<svg xmlns="http://www.w3.org/2000/svg" xmlns:xlink="http://www.w3.org/1999/xlink" width="500" zoomAndPan="magnify" viewBox="0 0 375 374.999991" height="500" preserveAspectRatio="xMidYMid meet" version="1.0"><defs><clipPath id="3613e6d6f3"><path d="M 124.808594 47.015625 L 250.058594 47.015625 L 250.058594 328 L 124.808594 328 Z M 124.808594 47.015625 " clip-rule="nonzero"/></clipPath></defs><g clip-path="url(#3613e6d6f3)"><path fill="#ffffff" d="M 242.402344 312.414062 L 236.394531 312.414062 L 236.394531 216.253906 C 236.394531 212.9375 234.257812 210.128906 231.28125 209.0625 L 231.28125 58.304688 C 231.28125 56.734375 230.046875 55.496094 228.472656 55.496094 C 226.902344 55.496094 225.664062 56.734375 225.664062 58.304688 L 225.664062 75.832031 C 215.722656 65.945312 192.863281 47.972656 162.644531 47.859375 C 158.65625 47.128906 153.152344 47.128906 147.253906 47.128906 C 136.132812 47.128906 124.84375 47.015625 124.84375 52.40625 C 124.84375 57.742188 136.1875 69.203125 147.308594 69.203125 C 157.308594 69.203125 166.351562 60.046875 168.09375 54.261719 C 199.601562 56.957031 221.734375 80.773438 225.609375 85.210938 L 225.609375 209.230469 C 222.914062 210.410156 221.003906 213.105469 221.003906 216.253906 L 221.003906 312.414062 L 213.980469 312.414062 C 209.65625 312.414062 206.175781 315.898438 206.175781 320.222656 C 206.175781 324.492188 209.65625 327.972656 213.980469 327.972656 L 242.292969 327.972656 C 246.558594 327.972656 250.042969 324.492188 250.042969 320.222656 C 250.15625 315.898438 246.671875 312.414062 242.402344 312.414062 Z M 242.402344 312.414062 " fill-opacity="1" fill-rule="nonzero"/></g><path fill="#f3b129" d="M 147.253906 52.015625 C 139.164062 52.015625 131.75 53.25 125.964844 55.328125 C 127.761719 61.957031 138.152344 69.707031 147.367188 69.707031 C 156.691406 69.707031 166.800781 61.957031 167.699219 55.046875 C 162.027344 53.136719 154.949219 52.015625 147.253906 52.015625 Z M 147.253906 52.015625 " fill-opacity="1" fill-rule="nonzero"/></svg>