<svg xmlns="http://www.w3.org/2000/svg" xmlns:xlink="http://www.w3.org/1999/xlink" width="500" zoomAndPan="magnify" viewBox="0 0 375 374.999991" height="500" preserveAspectRatio="xMidYMid meet" version="1.0"><defs><clipPath id="72d534f32c"><path d="M 57.59375 57.59375 L 317.09375 57.59375 L 317.09375 317.09375 L 57.59375 317.09375 Z M 57.59375 57.59375 " clip-rule="nonzero"/></clipPath></defs><g clip-path="url(#72d534f32c)"><path fill="#ffffff" d="M 66.253906 70.582031 C 66.253906 68.199219 68.199219 66.253906 70.582031 66.253906 L 131.203125 66.253906 C 133.589844 66.253906 135.535156 68.199219 135.535156 70.582031 L 135.535156 79.242188 C 135.535156 81.628906 133.589844 83.574219 131.203125 83.574219 L 70.582031 83.574219 C 68.199219 83.574219 66.253906 81.628906 66.253906 79.242188 Z M 194.125 170.175781 C 198.082031 175.113281 202.734375 179.476562 207.875 183.164062 L 135.535156 183.164062 L 135.535156 170.175781 Z M 248.117188 66.253906 C 281.539062 66.253906 308.738281 93.449219 308.738281 126.875 C 308.738281 160.296875 281.539062 187.496094 248.117188 187.496094 C 214.691406 187.496094 187.496094 160.296875 187.496094 126.875 C 187.496094 93.449219 214.691406 66.253906 248.117188 66.253906 Z M 261.105469 200.484375 C 261.105469 202.871094 259.160156 204.816406 256.777344 204.816406 L 79.242188 204.816406 C 76.859375 204.816406 74.914062 202.871094 74.914062 200.484375 L 74.914062 191.824219 L 224.234375 191.824219 C 231.691406 194.582031 239.710938 196.15625 248.117188 196.15625 C 252.5625 196.15625 256.894531 195.699219 261.105469 194.886719 Z M 226.464844 265.4375 C 226.464844 280.167969 227.972656 292.921875 230.929688 303.339844 C 231.421875 305.066406 230.710938 306.367188 230.238281 306.996094 C 229.390625 308.109375 228.121094 308.738281 226.734375 308.738281 L 124.101562 308.738281 C 122.8125 308.738281 121.628906 308.195312 120.800781 307.199219 C 119.972656 306.214844 119.617188 304.964844 119.835938 303.695312 L 123.035156 284.464844 C 125.453125 270.019531 119.785156 255.609375 108.269531 246.863281 C 98.050781 239.101562 86.09375 227.292969 83.945312 213.476562 L 246.527344 213.476562 C 238.355469 223.03125 226.464844 241.097656 226.464844 265.4375 Z M 70.582031 118.214844 L 84.183594 118.214844 C 83.828125 119.601562 83.574219 121.039062 83.574219 122.542969 C 83.574219 124.050781 83.828125 125.488281 84.183594 126.875 C 84.183594 126.875 70.632812 126.875 70.582031 126.875 C 68.265625 126.875 66.253906 124.84375 66.253906 122.542969 C 66.253906 120.160156 68.199219 118.214844 70.582031 118.214844 Z M 92.234375 122.542969 C 92.234375 117.773438 96.125 113.882812 100.894531 113.882812 C 105.664062 113.882812 109.554688 117.773438 109.554688 122.542969 C 109.554688 127.3125 105.664062 131.203125 100.894531 131.203125 C 96.125 131.203125 92.234375 127.3125 92.234375 122.542969 Z M 126.875 92.234375 L 126.875 183.164062 L 74.914062 183.164062 L 74.914062 135.535156 L 89.558594 135.535156 C 92.605469 138.1875 96.527344 139.863281 100.894531 139.863281 C 110.449219 139.863281 118.214844 132.101562 118.214844 122.542969 C 118.214844 112.988281 110.449219 105.222656 100.894531 105.222656 C 96.527344 105.222656 92.605469 106.898438 89.558594 109.554688 L 74.914062 109.554688 L 74.914062 92.234375 Z M 57.59375 122.542969 C 57.59375 126.0625 58.960938 129.328125 61.382812 131.660156 C 62.75 133.082031 64.441406 134.097656 66.253906 134.753906 L 66.253906 200.484375 C 66.253906 206.183594 69.972656 210.988281 75.097656 212.730469 C 76.824219 230.304688 91.015625 244.632812 103.023438 253.75 C 111.972656 260.566406 116.371094 271.777344 114.492188 283.042969 L 111.296875 302.277344 C 110.667969 306.046875 111.71875 309.886719 114.1875 312.796875 C 116.675781 315.722656 120.277344 317.398438 124.101562 317.398438 L 226.734375 317.398438 C 230.863281 317.398438 234.667969 315.503906 237.15625 312.203125 C 239.609375 308.957031 240.367188 304.863281 239.269531 300.972656 C 237.375 294.34375 235.125 282.789062 235.125 265.4375 C 235.125 236.800781 254.324219 217.316406 258.652344 213.289062 C 264.929688 212.359375 269.765625 207.015625 269.765625 200.484375 L 269.765625 192.636719 C 297.386719 183.519531 317.398438 157.503906 317.398438 126.875 C 317.398438 88.664062 286.324219 57.59375 248.117188 57.59375 C 209.90625 57.59375 178.835938 88.664062 178.835938 126.875 C 178.835938 139.492188 182.285156 151.316406 188.207031 161.515625 L 135.535156 161.515625 L 135.535156 91.4375 C 140.558594 89.644531 144.195312 84.875 144.195312 79.242188 L 144.195312 70.582031 C 144.195312 63.410156 138.375 57.59375 131.203125 57.59375 L 70.582031 57.59375 C 63.410156 57.59375 57.59375 63.410156 57.59375 70.582031 L 57.59375 79.242188 C 57.59375 84.875 61.230469 89.644531 66.253906 91.4375 L 66.253906 110.347656 C 61.230469 112.140625 57.59375 116.910156 57.59375 122.542969 " fill-opacity="1" fill-rule="nonzero"/></g><path fill="#ffffff" d="M 248.117188 161.515625 C 245.730469 161.515625 243.785156 159.570312 243.785156 157.183594 C 243.785156 154.800781 245.730469 152.855469 248.117188 152.855469 C 250.5 152.855469 252.445312 154.800781 252.445312 157.183594 C 252.445312 159.570312 250.5 161.515625 248.117188 161.515625 Z M 248.117188 144.195312 C 240.945312 144.195312 235.125 150.011719 235.125 157.183594 C 235.125 164.355469 240.945312 170.175781 248.117188 170.175781 C 255.289062 170.175781 261.105469 164.355469 261.105469 157.183594 C 261.105469 150.011719 255.289062 144.195312 248.117188 144.195312 " fill-opacity="1" fill-rule="nonzero"/><path fill="#ffffff" d="M 248.117188 126.875 C 240.417969 126.875 232.894531 129.445312 226.90625 134.128906 C 225.027344 135.601562 224.707031 138.324219 226.160156 140.203125 C 227.648438 142.078125 230.355469 142.417969 232.25 140.945312 C 241.179688 133.960938 255.050781 133.960938 263.980469 140.945312 C 264.777344 141.570312 265.722656 141.875 266.652344 141.875 C 267.9375 141.875 269.207031 141.300781 270.070312 140.203125 C 271.523438 138.324219 271.203125 135.601562 269.328125 134.128906 C 263.339844 129.445312 255.8125 126.875 248.117188 126.875 " fill-opacity="1" fill-rule="nonzero"/><path fill="#ffffff" d="M 248.117188 109.554688 C 235.886719 109.554688 224.285156 113.496094 214.574219 120.988281 C 212.679688 122.441406 212.324219 125.148438 213.78125 127.042969 C 215.25 128.953125 217.957031 129.308594 219.851562 127.835938 C 228.039062 121.546875 237.816406 118.214844 248.117188 118.214844 C 258.417969 118.214844 268.191406 121.546875 276.378906 127.835938 C 277.15625 128.445312 278.089844 128.734375 279.019531 128.734375 C 280.304688 128.734375 281.589844 128.160156 282.453125 127.042969 C 283.90625 125.148438 283.550781 122.441406 281.65625 120.988281 C 271.949219 113.496094 260.34375 109.554688 248.117188 109.554688 " fill-opacity="1" fill-rule="nonzero"/><path fill="#ffffff" d="M 248.117188 100.894531 C 262.964844 100.894531 277.023438 105.679688 288.777344 114.730469 C 289.574219 115.339844 290.484375 115.625 291.417969 115.625 C 292.703125 115.625 293.988281 115.050781 294.851562 113.933594 C 296.304688 112.039062 295.949219 109.316406 294.054688 107.863281 C 280.777344 97.628906 264.894531 92.234375 248.117188 92.234375 C 231.335938 92.234375 215.453125 97.628906 202.175781 107.863281 C 200.28125 109.316406 199.925781 112.039062 201.382812 113.933594 C 202.835938 115.828125 205.558594 116.183594 207.453125 114.730469 C 219.210938 105.679688 233.265625 100.894531 248.117188 100.894531 " fill-opacity="1" fill-rule="nonzero"/></svg>