<svg xmlns="http://www.w3.org/2000/svg" xmlns:xlink="http://www.w3.org/1999/xlink" width="500" zoomAndPan="magnify" viewBox="0 0 375 374.999991" height="500" preserveAspectRatio="xMidYMid meet" version="1.0"><defs><clipPath id="59dfad4ea9"><path d="M 73.511719 32.410156 L 301.511719 32.410156 L 301.511719 342.910156 L 73.511719 342.910156 Z M 73.511719 32.410156 " clip-rule="nonzero"/></clipPath></defs><g clip-path="url(#59dfad4ea9)"><path fill="#ffffff" d="M 296.566406 55.890625 L 292.429688 55.890625 L 292.429688 48.210938 L 295.582031 48.210938 L 295.582031 42.894531 L 280.027344 42.894531 C 226.480469 42.894531 202.460938 66.519531 192.027344 84.238281 L 192.027344 37.1875 C 192.027344 34.628906 189.859375 32.460938 187.300781 32.460938 C 184.742188 32.460938 182.578125 34.628906 182.578125 37.1875 L 182.578125 84.238281 C 172.140625 66.519531 148.320312 42.894531 94.574219 42.894531 L 79.023438 42.894531 L 79.023438 48.210938 L 82.566406 48.210938 L 82.566406 55.890625 L 78.433594 55.890625 C 75.675781 55.890625 73.511719 58.054688 73.511719 60.8125 C 73.511719 63.566406 75.675781 65.734375 78.433594 65.734375 L 103.433594 65.734375 C 106.191406 65.734375 108.355469 63.566406 108.355469 60.8125 C 108.355469 58.054688 106.191406 55.890625 103.433594 55.890625 L 99.300781 55.890625 L 99.300781 48.410156 C 158.164062 49.785156 177.0625 80.890625 182.773438 96.050781 L 182.773438 337.808594 C 182.773438 340.367188 184.9375 342.535156 187.5 342.535156 C 190.058594 342.535156 192.222656 340.367188 192.222656 337.808594 L 192.222656 96.050781 C 197.933594 80.890625 216.832031 49.984375 275.695312 48.410156 L 275.695312 55.890625 L 271.5625 55.890625 C 268.804688 55.890625 266.640625 58.054688 266.640625 60.8125 C 266.640625 63.566406 268.804688 65.734375 271.5625 65.734375 L 296.566406 65.734375 C 299.320312 65.734375 301.488281 63.566406 301.488281 60.8125 C 301.488281 58.25 299.320312 55.890625 296.566406 55.890625 Z M 296.566406 55.890625 " fill-opacity="1" fill-rule="nonzero"/></g></svg>