<svg xmlns="http://www.w3.org/2000/svg" xmlns:xlink="http://www.w3.org/1999/xlink" width="500" zoomAndPan="magnify" viewBox="0 0 375 374.999991" height="500" preserveAspectRatio="xMidYMid meet" version="1.0"><defs><clipPath id="f94002af43"><path d="M 22.917969 120 L 352.074219 120 L 352.074219 258.332031 L 22.917969 258.332031 Z M 22.917969 120 " clip-rule="nonzero"/></clipPath></defs><path fill="#32312b" d="M 134.753906 257.824219 C 134.796875 257.824219 134.839844 257.820312 134.882812 257.808594 L 188.472656 242.496094 C 188.632812 242.453125 188.757812 242.324219 188.796875 242.164062 C 188.882812 241.828125 197.734375 208.390625 227.113281 191.398438 L 227.285156 191.300781 L 297.382812 211.308594 C 297.382812 211.308594 297.503906 211.324219 297.515625 211.324219 C 297.546875 211.324219 297.578125 211.316406 297.601562 211.308594 L 297.65625 211.296875 L 297.683594 211.296875 L 351.230469 196 C 351.429688 195.941406 351.570312 195.757812 351.570312 195.550781 L 351.570312 153.289062 C 351.570312 153.144531 351.5 153.003906 351.382812 152.917969 C 351.300781 152.855469 351.203125 152.824219 351.105469 152.824219 C 351.058594 152.824219 351.015625 152.828125 350.972656 152.839844 L 332.40625 158.144531 L 302.910156 154.054688 C 296.738281 153.199219 290.410156 152.765625 284.109375 152.765625 C 273.238281 152.765625 262.121094 154.054688 251.0625 156.589844 L 250.914062 156.625 L 250.777344 156.566406 C 247.53125 155.21875 244.214844 153.957031 240.929688 152.820312 L 240.613281 152.710938 L 240.613281 121.714844 C 240.613281 121.570312 240.546875 121.429688 240.429688 121.34375 C 240.347656 121.28125 240.25 121.25 240.148438 121.25 C 240.105469 121.25 240.0625 121.253906 240.019531 121.265625 L 221.449219 126.570312 L 191.957031 122.484375 C 185.773438 121.625 179.4375 121.191406 173.128906 121.191406 C 139.640625 121.191406 104.59375 133.503906 71.785156 156.800781 L 42.261719 177.761719 L 23.671875 183.074219 C 23.46875 183.132812 23.332031 183.316406 23.332031 183.523438 L 23.332031 225.785156 C 23.332031 225.929688 23.402344 226.070312 23.519531 226.15625 C 23.597656 226.21875 23.695312 226.25 23.796875 226.25 C 23.816406 226.25 23.867188 226.242188 23.894531 226.234375 L 24.007812 226.210938 L 134.367188 257.613281 L 134.488281 257.726562 L 134.511719 257.757812 C 134.582031 257.800781 134.667969 257.824219 134.753906 257.824219 Z M 134.753906 257.824219 " fill-opacity="1" fill-rule="nonzero"/><path fill="#c3bca9" d="M 232.945312 187.863281 C 230.949219 188.769531 229.035156 189.746094 227.199219 190.789062 L 297.511719 210.863281 C 297.503906 210.839844 296.558594 207.679688 294.222656 203.453125 C 293.808594 202.703125 293.347656 201.921875 292.84375 201.113281 C 292.015625 199.789062 291.0625 198.40625 289.96875 197.015625 C 289.925781 196.957031 289.878906 196.894531 289.832031 196.835938 C 289.75 196.730469 289.660156 196.625 289.574219 196.519531 C 289.449219 196.363281 289.324219 196.203125 289.195312 196.046875 C 289.191406 196.042969 289.1875 196.039062 289.179688 196.03125 C 288.75 195.511719 288.300781 194.992188 287.828125 194.476562 C 287.777344 194.417969 287.722656 194.363281 287.671875 194.308594 C 285.082031 191.496094 281.902344 188.789062 278.03125 186.617188 C 277.976562 186.585938 277.921875 186.558594 277.871094 186.53125 C 277.136719 186.125 276.378906 185.738281 275.59375 185.371094 C 274.722656 184.964844 273.816406 184.585938 272.878906 184.238281 C 265.210938 181.382812 255.390625 180.632812 242.925781 184.195312 C 239.390625 185.203125 236.066406 186.445312 232.945312 187.863281 Z M 134.753906 257.359375 L 23.800781 225.785156 C 23.820312 225.761719 28.164062 220.910156 35.773438 213.613281 C 37.78125 211.6875 40.019531 209.589844 42.464844 207.363281 C 48.007812 202.316406 54.625 196.621094 62.089844 190.773438 C 65.371094 188.203125 68.816406 185.609375 72.40625 183.027344 C 75.519531 180.785156 78.738281 178.558594 82.058594 176.371094 C 94.269531 168.316406 107.789062 160.800781 121.988281 155.230469 C 125.871094 153.707031 129.804688 152.324219 133.773438 151.121094 C 135.917969 150.472656 138.035156 149.867188 140.128906 149.304688 C 147.324219 147.375 154.601562 145.941406 161.921875 144.984375 C 175.195312 143.246094 188.59375 143.089844 201.855469 144.472656 C 203.464844 144.640625 205.070312 144.824219 206.671875 145.035156 C 211.640625 145.695312 216.578125 146.578125 221.480469 147.667969 C 221.59375 147.691406 221.707031 147.71875 221.820312 147.746094 C 228.003906 149.132812 234.121094 150.859375 240.148438 152.921875 C 243.824219 154.179688 247.46875 155.558594 251.070312 157.0625 C 251.078125 157.0625 251.085938 157.0625 251.09375 157.0625 C 247.449219 157.902344 243.796875 158.882812 240.148438 159.992188 C 233.917969 161.890625 227.691406 164.1875 221.480469 166.871094 C 217.210938 168.71875 212.953125 170.746094 208.707031 172.960938 C 200.066406 177.46875 191.484375 182.738281 183.007812 188.753906 L 153.417969 209.765625 L 145.039062 212.15625 L 134.753906 215.09375 Z M 134.753906 257.359375 " fill-opacity="1" fill-rule="nonzero"/><path fill="#efeee4" d="M 23.796875 183.523438 L 23.796875 225.785156 L 23.800781 225.785156 C 23.820312 225.761719 28.164062 220.910156 35.773438 213.613281 C 37.78125 211.6875 40.019531 209.589844 42.464844 207.363281 C 48.007812 202.316406 54.625 196.621094 62.089844 190.773438 C 65.371094 188.203125 68.816406 185.609375 72.40625 183.027344 C 75.519531 180.785156 78.738281 178.558594 82.058594 176.371094 C 94.269531 168.316406 107.789062 160.800781 121.988281 155.230469 C 125.871094 153.707031 129.804688 152.324219 133.773438 151.121094 C 135.917969 150.472656 138.035156 149.867188 140.128906 149.304688 C 147.324219 147.375 154.601562 145.941406 161.921875 144.984375 C 175.195312 143.246094 188.59375 143.089844 201.855469 144.472656 C 203.464844 144.640625 205.070312 144.824219 206.671875 145.035156 C 211.640625 145.695312 216.578125 146.578125 221.480469 147.667969 C 221.59375 147.691406 221.707031 147.71875 221.820312 147.746094 C 228.003906 149.132812 234.121094 150.859375 240.148438 152.921875 L 240.148438 121.714844 L 221.480469 127.046875 L 210.414062 125.511719 L 206.25 124.933594 L 191.894531 122.945312 C 188.574219 122.484375 185.238281 122.15625 181.890625 121.945312 C 172.273438 121.332031 162.542969 121.738281 152.769531 123.136719 C 151.023438 123.386719 149.277344 123.671875 147.53125 123.984375 C 146.941406 124.09375 146.351562 124.21875 145.761719 124.332031 C 144.601562 124.554688 143.441406 124.773438 142.277344 125.023438 C 142.171875 125.046875 142.0625 125.066406 141.957031 125.089844 C 141.191406 125.253906 140.429688 125.449219 139.664062 125.625 C 138.855469 125.816406 138.046875 125.992188 137.238281 126.195312 C 136.390625 126.40625 135.546875 126.640625 134.699219 126.867188 C 133.863281 127.089844 133.027344 127.304688 132.195312 127.542969 C 131.335938 127.785156 130.480469 128.054688 129.625 128.3125 C 128.804688 128.558594 127.984375 128.792969 127.164062 129.054688 C 126.257812 129.34375 125.355469 129.65625 124.453125 129.960938 C 123.679688 130.222656 122.90625 130.46875 122.132812 130.742188 C 121.164062 131.082031 120.199219 131.453125 119.230469 131.8125 C 118.523438 132.078125 117.8125 132.328125 117.105469 132.601562 C 116.070312 133.003906 115.035156 133.433594 114 133.855469 C 113.355469 134.117188 112.714844 134.363281 112.074219 134.632812 C 111.003906 135.085938 109.929688 135.570312 108.859375 136.042969 C 108.253906 136.3125 107.648438 136.566406 107.042969 136.84375 C 106.152344 137.25 105.257812 137.6875 104.367188 138.109375 C 103.53125 138.507812 102.695312 138.894531 101.863281 139.304688 C 100.4375 140.007812 99.015625 140.734375 97.59375 141.476562 C 97.0625 141.753906 96.53125 142.042969 96 142.324219 C 95 142.859375 94.003906 143.402344 93.003906 143.957031 C 92.453125 144.261719 91.902344 144.566406 91.351562 144.878906 C 90.109375 145.585938 88.867188 146.308594 87.625 147.042969 C 87.203125 147.296875 86.777344 147.550781 86.355469 147.804688 C 85.101562 148.5625 83.851562 149.332031 82.601562 150.121094 C 82.046875 150.472656 81.492188 150.832031 80.9375 151.1875 C 79.96875 151.808594 79.003906 152.441406 78.042969 153.082031 C 77.488281 153.449219 76.9375 153.8125 76.386719 154.1875 C 75.140625 155.03125 73.898438 155.890625 72.65625 156.765625 C 72.457031 156.90625 72.253906 157.039062 72.054688 157.179688 L 42.464844 178.191406 L 33.972656 180.617188 L 23.800781 183.519531 L 23.800781 183.523438 Z M 134.753906 215.09375 L 145.039062 212.15625 L 153.417969 209.765625 L 183.007812 188.753906 C 191.484375 182.738281 200.066406 177.46875 208.707031 172.960938 C 209.980469 172.296875 211.257812 171.652344 212.535156 171.023438 C 212.683594 170.949219 212.832031 170.871094 212.976562 170.796875 C 213.230469 170.671875 213.484375 170.558594 213.738281 170.433594 C 214.65625 169.988281 215.578125 169.550781 216.496094 169.121094 C 216.882812 168.941406 217.265625 168.761719 217.652344 168.585938 C 218.925781 168 220.203125 167.425781 221.480469 166.871094 C 227.691406 164.1875 233.917969 161.890625 240.148438 159.992188 C 243.796875 158.882812 247.449219 157.902344 251.09375 157.0625 C 251.113281 157.058594 251.128906 157.058594 251.144531 157.054688 C 251.734375 156.917969 252.324219 156.789062 252.910156 156.664062 C 253.527344 156.527344 254.140625 156.414062 254.753906 156.289062 C 255.5 156.132812 256.25 155.972656 256.996094 155.832031 C 258.613281 155.523438 260.226562 155.234375 261.839844 154.980469 C 272.25 153.355469 282.609375 152.867188 292.84375 153.519531 C 296.191406 153.730469 299.527344 154.058594 302.847656 154.515625 L 317.203125 156.507812 L 321.738281 157.136719 L 332.4375 158.621094 L 351.101562 153.289062 L 351.105469 153.289062 L 351.105469 187.359375 L 351.101562 187.359375 L 351.105469 187.359375 L 351.105469 195.550781 L 351.101562 195.550781 L 332.4375 200.882812 L 323.484375 203.441406 L 312.8125 206.492188 L 297.511719 210.863281 C 297.503906 210.839844 296.558594 207.679688 294.222656 203.453125 C 293.808594 202.703125 293.347656 201.921875 292.84375 201.113281 C 292.429688 200.453125 291.984375 199.773438 291.503906 199.089844 C 291.027344 198.40625 290.515625 197.710938 289.96875 197.015625 C 289.925781 196.957031 289.878906 196.894531 289.832031 196.835938 C 289.75 196.730469 289.660156 196.625 289.574219 196.519531 C 289.449219 196.363281 289.324219 196.203125 289.195312 196.046875 C 289.191406 196.042969 289.1875 196.039062 289.179688 196.03125 C 288.75 195.511719 288.300781 194.992188 287.828125 194.476562 C 287.777344 194.417969 287.722656 194.363281 287.671875 194.308594 C 287.148438 193.738281 286.59375 193.175781 286.019531 192.617188 C 285.945312 192.546875 285.875 192.476562 285.800781 192.40625 C 285.234375 191.863281 284.644531 191.332031 284.03125 190.8125 C 283.949219 190.742188 283.867188 190.671875 283.78125 190.601562 C 283.148438 190.074219 282.492188 189.554688 281.804688 189.050781 C 281.753906 189.015625 281.699219 188.980469 281.648438 188.941406 C 280.925781 188.417969 280.179688 187.910156 279.398438 187.425781 C 278.949219 187.152344 278.496094 186.878906 278.03125 186.617188 C 277.976562 186.585938 277.921875 186.558594 277.871094 186.53125 C 277.136719 186.125 276.378906 185.738281 275.59375 185.371094 C 274.722656 184.964844 273.816406 184.585938 272.878906 184.238281 C 265.210938 181.382812 255.390625 180.632812 242.925781 184.195312 C 239.390625 185.203125 236.066406 186.445312 232.945312 187.863281 C 230.949219 188.769531 229.035156 189.746094 227.199219 190.789062 C 226.84375 190.992188 226.488281 191.199219 226.140625 191.40625 C 225.183594 191.96875 224.257812 192.550781 223.34375 193.148438 C 223.011719 193.367188 222.695312 193.59375 222.367188 193.816406 C 221.800781 194.199219 221.234375 194.582031 220.6875 194.980469 C 220.296875 195.257812 219.925781 195.546875 219.546875 195.832031 C 219.082031 196.179688 218.613281 196.527344 218.160156 196.882812 C 217.753906 197.203125 217.363281 197.527344 216.96875 197.851562 C 216.5625 198.183594 216.160156 198.515625 215.765625 198.855469 C 215.355469 199.203125 214.957031 199.558594 214.554688 199.917969 C 214.199219 200.234375 213.84375 200.554688 213.496094 200.875 C 213.085938 201.253906 212.6875 201.636719 212.292969 202.019531 C 211.972656 202.324219 211.660156 202.632812 211.347656 202.941406 C 210.945312 203.34375 210.550781 203.75 210.160156 204.15625 C 209.878906 204.449219 209.597656 204.746094 209.324219 205.042969 C 208.929688 205.464844 208.539062 205.890625 208.15625 206.316406 C 207.90625 206.597656 207.65625 206.882812 207.410156 207.164062 C 206.988281 207.652344 206.566406 208.140625 206.160156 208.628906 C 206.097656 208.703125 206.035156 208.777344 205.972656 208.851562 C 205.449219 209.488281 204.9375 210.125 204.441406 210.761719 C 204.414062 210.800781 204.382812 210.835938 204.355469 210.871094 C 203.277344 212.257812 202.265625 213.648438 201.316406 215.027344 C 201.296875 215.050781 201.28125 215.074219 201.265625 215.097656 C 200.816406 215.753906 200.378906 216.40625 199.953125 217.058594 C 199.921875 217.105469 199.886719 217.15625 199.855469 217.207031 C 198.53125 219.25 197.335938 221.257812 196.269531 223.191406 C 196.253906 223.222656 196.238281 223.25 196.222656 223.277344 C 194.792969 225.875 193.585938 228.34375 192.582031 230.578125 C 192.578125 230.589844 192.574219 230.601562 192.566406 230.613281 C 189.535156 237.371094 188.347656 242.046875 188.347656 242.046875 L 157.140625 250.964844 L 153.417969 252.027344 L 153.078125 252.125 L 134.753906 257.359375 Z M 134.753906 215.09375 " fill-opacity="1" fill-rule="nonzero"/><g clip-path="url(#f94002af43)"><path fill="#32312b" d="M 23.542969 182.625 L 42.054688 177.335938 L 71.511719 156.421875 C 110.910156 128.449219 152.582031 116.550781 192.019531 122.023438 L 221.414062 126.097656 L 239.890625 120.820312 C 240.175781 120.738281 240.476562 120.796875 240.710938 120.972656 C 240.941406 121.148438 241.082031 121.421875 241.082031 121.714844 L 241.082031 152.378906 C 244.40625 153.527344 247.699219 154.78125 250.957031 156.136719 C 268.472656 152.117188 285.933594 151.230469 302.976562 153.59375 L 332.371094 157.671875 L 350.847656 152.394531 C 351.128906 152.3125 351.429688 152.367188 351.664062 152.542969 C 351.898438 152.722656 352.035156 152.996094 352.035156 153.289062 L 352.035156 195.550781 C 352.035156 195.96875 351.757812 196.332031 351.359375 196.449219 L 332.695312 201.78125 C 332.695312 201.78125 332.691406 201.78125 332.691406 201.78125 L 297.765625 211.757812 C 297.75 211.761719 297.734375 211.757812 297.71875 211.761719 C 297.648438 211.777344 297.582031 211.792969 297.511719 211.792969 C 297.488281 211.792969 297.464844 211.785156 297.441406 211.785156 C 297.410156 211.78125 297.378906 211.777344 297.347656 211.769531 C 297.316406 211.765625 297.285156 211.765625 297.253906 211.757812 L 227.347656 191.800781 C 198.152344 208.6875 189.347656 241.890625 189.25 242.277344 C 189.167969 242.601562 188.921875 242.855469 188.601562 242.945312 L 153.675781 252.921875 L 135.011719 258.253906 C 134.925781 258.28125 134.839844 258.292969 134.753906 258.292969 C 134.554688 258.292969 134.355469 258.226562 134.191406 258.101562 C 134.164062 258.082031 134.152344 258.050781 134.132812 258.03125 L 23.992188 226.691406 C 23.929688 226.703125 23.863281 226.71875 23.796875 226.71875 C 23.597656 226.71875 23.398438 226.652344 23.234375 226.53125 C 23.003906 226.355469 22.867188 226.078125 22.867188 225.785156 L 22.867188 183.523438 C 22.867188 183.105469 23.140625 182.742188 23.542969 182.625 Z M 26.984375 225.84375 L 133.820312 256.246094 L 133.820312 215.097656 C 133.820312 214.679688 134.097656 214.3125 134.496094 214.199219 L 153.007812 208.910156 L 182.46875 187.996094 C 188.578125 183.65625 194.742188 179.707031 200.945312 176.148438 C 201.085938 176.066406 201.226562 175.988281 201.367188 175.90625 C 202.402344 175.316406 203.433594 174.738281 204.46875 174.171875 C 205.597656 173.550781 206.726562 172.949219 207.855469 172.355469 C 208.023438 172.269531 208.1875 172.179688 208.351562 172.09375 C 212.40625 169.976562 216.472656 168.035156 220.550781 166.253906 C 220.859375 166.121094 221.171875 165.988281 221.480469 165.855469 C 221.792969 165.722656 222.105469 165.589844 222.414062 165.457031 C 228.003906 163.089844 233.609375 161.027344 239.214844 159.296875 C 239.253906 159.285156 239.292969 159.273438 239.332031 159.261719 C 239.605469 159.175781 239.875 159.101562 240.148438 159.015625 C 240.421875 158.933594 240.691406 158.855469 240.964844 158.773438 C 241.003906 158.761719 241.042969 158.75 241.082031 158.738281 C 243.464844 158.03125 245.847656 157.382812 248.234375 156.792969 C 245.867188 155.84375 243.480469 154.949219 241.082031 154.109375 C 241.042969 154.09375 241.003906 154.078125 240.964844 154.066406 C 240.695312 153.972656 240.421875 153.882812 240.148438 153.789062 C 239.875 153.695312 239.605469 153.605469 239.332031 153.511719 C 239.292969 153.5 239.253906 153.488281 239.214844 153.472656 C 233.796875 151.648438 228.300781 150.097656 222.753906 148.820312 C 222.640625 148.792969 222.527344 148.769531 222.414062 148.742188 C 222.21875 148.699219 222.019531 148.652344 221.820312 148.609375 C 221.707031 148.582031 221.59375 148.558594 221.480469 148.53125 C 221.285156 148.488281 221.085938 148.441406 220.890625 148.398438 C 220.777344 148.371094 220.664062 148.34375 220.550781 148.320312 C 216.035156 147.34375 211.484375 146.550781 206.917969 145.9375 C 206.125 145.832031 205.335938 145.734375 204.542969 145.640625 C 203.957031 145.570312 203.375 145.496094 202.789062 145.429688 C 202.558594 145.40625 202.332031 145.386719 202.101562 145.359375 C 202.019531 145.351562 201.9375 145.34375 201.855469 145.335938 C 201.542969 145.304688 201.234375 145.273438 200.921875 145.242188 C 188.238281 143.988281 175.457031 144.136719 162.855469 145.707031 C 162.542969 145.746094 162.234375 145.785156 161.921875 145.824219 C 161.613281 145.867188 161.300781 145.898438 160.988281 145.941406 C 154.660156 146.804688 148.378906 148.035156 142.183594 149.621094 C 141.882812 149.695312 141.582031 149.773438 141.285156 149.851562 C 140.96875 149.933594 140.65625 150.007812 140.339844 150.09375 C 138.238281 150.65625 136.105469 151.265625 134.011719 151.902344 C 130.28125 153.03125 126.582031 154.328125 122.921875 155.746094 C 122.609375 155.867188 122.300781 155.988281 121.988281 156.113281 C 121.679688 156.234375 121.367188 156.359375 121.054688 156.484375 C 118.9375 157.335938 116.832031 158.234375 114.742188 159.167969 C 114.464844 159.292969 114.183594 159.417969 113.90625 159.542969 C 103.019531 164.484375 92.609375 170.464844 82.988281 176.792969 C 82.679688 176.996094 82.367188 177.203125 82.058594 177.40625 C 81.742188 177.613281 81.433594 177.824219 81.125 178.03125 C 79.800781 178.914062 78.496094 179.804688 77.207031 180.699219 C 76.425781 181.238281 75.65625 181.78125 74.886719 182.324219 C 74.132812 182.859375 73.386719 183.390625 72.644531 183.925781 C 72.644531 183.929688 72.644531 183.929688 72.644531 183.929688 C 69.304688 186.335938 66.09375 188.753906 63.023438 191.152344 C 62.710938 191.394531 62.398438 191.636719 62.089844 191.882812 C 61.777344 192.128906 61.46875 192.375 61.15625 192.621094 C 54.46875 197.917969 48.492188 203.0625 43.398438 207.675781 C 43.082031 207.960938 42.769531 208.246094 42.464844 208.523438 C 42.148438 208.8125 41.835938 209.09375 41.53125 209.378906 C 40.65625 210.183594 39.808594 210.96875 38.992188 211.734375 C 38.488281 212.203125 38 212.664062 37.523438 213.117188 L 37.519531 213.117188 C 37.027344 213.585938 36.546875 214.046875 36.078125 214.496094 C 31.753906 218.640625 28.507812 221.972656 26.550781 224.03125 C 26.496094 224.089844 26.445312 224.140625 26.390625 224.199219 C 25.964844 224.652344 25.597656 225.042969 25.304688 225.355469 C 25.304688 225.355469 25.300781 225.355469 25.300781 225.359375 C 25.300781 225.359375 25.296875 225.363281 25.296875 225.363281 L 26.773438 225.785156 Z M 296.023438 209.46875 C 294.824219 206.382812 291.695312 199.542969 285.683594 193.582031 C 274.960938 182.953125 260.664062 180.097656 243.183594 185.089844 C 238.273438 186.492188 233.78125 188.347656 229.664062 190.523438 Z M 135.570312 256.003906 L 135.570312 256.277344 L 136.539062 256.003906 L 152.144531 251.542969 L 152.144531 244.621094 L 142.339844 247.398438 L 141.035156 247.765625 L 139.839844 248.101562 L 135.6875 249.277344 L 135.570312 249.3125 Z M 190.359375 233.808594 L 190.21875 233.851562 L 173.300781 238.636719 L 173.296875 238.636719 L 154.351562 244 L 154.011719 244.09375 L 154.011719 251.007812 L 154.351562 250.910156 L 187.679688 241.386719 C 187.976562 240.34375 188.820312 237.597656 190.355469 233.8125 C 190.355469 233.8125 190.359375 233.808594 190.359375 233.808594 Z M 298.035156 209.867188 L 298.429688 209.753906 L 311.878906 205.910156 L 311.878906 199.425781 L 297.398438 203.523438 L 296.554688 203.761719 L 295.617188 204.027344 L 295.550781 204.046875 L 295.433594 204.082031 C 295.570312 204.335938 295.699219 204.585938 295.824219 204.828125 C 296.492188 206.136719 297.011719 207.296875 297.394531 208.226562 C 297.675781 208.902344 297.886719 209.460938 298.035156 209.867188 Z M 332.4375 200.035156 L 333.371094 199.769531 L 350.289062 194.9375 L 350.289062 188.558594 L 350.171875 188.59375 L 333.371094 193.347656 L 333.03125 193.441406 L 332.4375 193.609375 L 332.097656 193.707031 L 331.503906 193.875 L 313.742188 198.898438 L 313.742188 205.378906 L 331.503906 200.300781 Z M 332.660156 159.40625 C 332.585938 159.425781 332.511719 159.421875 332.4375 159.421875 C 332.398438 159.421875 332.363281 159.433594 332.324219 159.429688 L 331.503906 159.316406 L 317.550781 157.378906 L 317.269531 157.460938 L 313.742188 158.457031 L 313.742188 176.742188 L 324.257812 173.765625 L 325.320312 173.464844 L 326.363281 173.171875 L 327.734375 172.78125 L 328.546875 172.550781 L 329.355469 172.324219 L 331.503906 171.714844 L 332.4375 171.453125 L 332.523438 171.425781 L 333.371094 171.1875 L 333.457031 171.164062 L 350.171875 166.433594 L 350.289062 166.402344 L 350.289062 154.371094 L 333.371094 159.203125 Z M 241.082031 160.566406 C 241.042969 160.578125 241.003906 160.585938 240.964844 160.597656 C 240.691406 160.679688 240.421875 160.761719 240.148438 160.84375 C 239.875 160.925781 239.605469 161.003906 239.332031 161.089844 C 239.292969 161.101562 239.253906 161.113281 239.214844 161.125 C 233.609375 162.878906 228.003906 164.964844 222.414062 167.359375 C 222.105469 167.492188 221.792969 167.625 221.480469 167.757812 C 221.171875 167.894531 220.859375 168.023438 220.550781 168.160156 C 219.664062 168.550781 218.777344 168.960938 217.894531 169.367188 C 217.652344 169.476562 217.414062 169.582031 217.171875 169.695312 C 216.085938 170.199219 214.996094 170.722656 213.910156 171.25 L 213.910156 184.765625 L 224.347656 181.8125 L 251.976562 173.996094 L 251.976562 157.703125 C 251.710938 157.761719 251.445312 157.820312 251.175781 157.878906 C 247.8125 158.65625 244.445312 159.554688 241.082031 160.566406 Z M 192.078125 196.453125 L 192.078125 192.878906 L 173.300781 198.191406 L 173.296875 198.195312 L 170.015625 199.121094 L 169.6875 199.214844 L 154.351562 210.101562 L 154.011719 210.34375 L 154.011719 221.933594 L 154.351562 221.839844 L 163.859375 219.148438 L 165.273438 218.75 L 167.011719 218.257812 L 172.792969 216.621094 L 192.078125 211.164062 Z M 212.046875 183.398438 L 212.046875 172.175781 C 211.035156 172.683594 210.023438 173.195312 209.015625 173.722656 C 208.851562 173.804688 208.691406 173.894531 208.527344 173.980469 C 200.109375 178.410156 191.746094 183.554688 183.484375 189.421875 L 174.222656 195.992188 L 174.554688 195.902344 L 192.757812 190.75 L 200.515625 188.554688 L 203.042969 187.839844 L 205.929688 187.023438 L 212.046875 185.292969 Z M 172.113281 218.75 L 164.394531 220.933594 L 162.699219 221.414062 L 161.320312 221.804688 L 154.351562 223.777344 L 153.417969 224.039062 L 153.335938 224.0625 L 153.328125 224.066406 L 152.484375 224.304688 L 135.6875 229.058594 L 135.570312 229.089844 L 135.570312 247.375 L 135.6875 247.339844 L 141.566406 245.675781 L 142.769531 245.335938 L 144.109375 244.957031 L 152.484375 242.589844 L 152.824219 242.492188 L 153.417969 242.324219 L 154.351562 242.058594 L 172.113281 237.035156 Z M 135.570312 227.152344 L 135.6875 227.121094 L 152.144531 222.460938 L 152.144531 210.976562 L 135.570312 215.710938 Z M 233.878906 181.191406 L 233.878906 186.5625 C 236.664062 185.355469 239.601562 184.296875 242.703125 183.410156 C 254.707031 179.980469 264.316406 180.519531 271.945312 183.097656 L 271.945312 170.28125 L 253.164062 175.597656 L 250.90625 176.234375 L 248.476562 176.921875 L 242.527344 178.605469 L 239.5 179.464844 L 234.953125 180.75 L 233.878906 181.054688 Z M 291.910156 198.375 L 291.910156 184.855469 L 285.730469 186.601562 L 284.652344 186.910156 L 283.425781 187.257812 L 281.507812 187.796875 L 281.363281 187.839844 C 285.886719 190.96875 289.339844 194.777344 291.910156 198.375 Z M 350.289062 168.339844 L 350.171875 168.371094 L 333.710938 173.027344 L 333.710938 191.3125 L 350.171875 186.65625 L 350.289062 186.621094 Z M 293.777344 201.1875 C 294.03125 201.597656 294.273438 202.007812 294.503906 202.40625 L 294.621094 202.371094 L 295.0625 202.246094 L 296.011719 201.980469 L 296.84375 201.742188 L 312.554688 197.296875 L 313.488281 197.035156 L 331.503906 191.9375 L 331.84375 191.839844 L 331.84375 173.558594 L 331.503906 173.652344 L 330.328125 173.984375 L 329.515625 174.214844 L 328.707031 174.445312 L 328.3125 174.554688 L 327.300781 174.84375 L 326.28125 175.128906 L 313.066406 178.871094 L 312.132812 179.132812 L 293.777344 184.328125 Z M 279.28125 186.492188 L 279.433594 186.449219 L 281.335938 185.910156 L 282.625 185.546875 L 283.769531 185.222656 L 292.589844 182.726562 L 293.523438 182.460938 L 311.878906 177.269531 L 311.878906 158.984375 L 309.78125 159.578125 L 307.652344 160.179688 L 305.472656 160.796875 L 299.460938 162.496094 L 297.734375 162.988281 L 295.789062 163.535156 L 293.097656 164.296875 L 292.164062 164.5625 L 273.808594 169.753906 L 273.808594 183.78125 C 275.773438 184.5625 277.59375 185.476562 279.28125 186.492188 Z M 302.734375 155.324219 C 299.761719 154.914062 296.773438 154.613281 293.777344 154.402344 L 293.777344 162.167969 L 295.074219 161.800781 L 300.300781 160.324219 L 302.515625 159.695312 L 304.679688 159.082031 L 312.554688 156.855469 L 312.671875 156.820312 L 312.953125 156.742188 Z M 254.824219 157.082031 C 254.5 157.152344 254.171875 157.21875 253.84375 157.289062 L 253.84375 173.464844 L 272.625 168.152344 L 273.554688 167.890625 L 290.914062 162.976562 L 291.910156 162.695312 L 291.910156 154.269531 C 280.976562 153.648438 269.902344 154.34375 258.78125 156.324219 C 257.464844 156.5625 256.144531 156.8125 254.824219 157.082031 Z M 227.261719 189.839844 C 228.792969 188.980469 230.375 188.164062 232.011719 187.398438 L 232.011719 181.582031 L 229.484375 182.296875 L 213.234375 186.894531 L 213.230469 186.894531 L 200.542969 190.484375 L 197.917969 191.230469 L 195.640625 191.871094 L 193.945312 192.351562 L 193.945312 210.636719 L 206.285156 207.144531 L 206.488281 207.085938 C 211.449219 201.296875 217.566406 195.703125 225.042969 191.144531 C 225.402344 190.921875 225.769531 190.703125 226.136719 190.488281 C 226.511719 190.269531 226.882812 190.050781 227.261719 189.839844 Z M 204.402344 209.613281 L 204.210938 209.667969 L 193.269531 212.765625 L 193.261719 212.765625 L 173.976562 218.222656 L 173.976562 236.507812 L 191.140625 231.652344 L 191.285156 231.609375 C 193.925781 225.539062 198.128906 217.511719 204.402344 209.617188 C 204.402344 209.617188 204.402344 209.613281 204.402344 209.613281 Z M 24.617188 223.703125 C 24.652344 223.664062 24.695312 223.621094 24.730469 223.578125 C 26.300781 221.910156 29.035156 219.070312 32.761719 215.433594 L 24.730469 217.707031 L 24.617188 217.738281 Z M 68.15625 185.195312 L 63.023438 186.648438 L 63.023438 189.09375 C 64.695312 187.796875 66.40625 186.5 68.15625 185.199219 C 68.15625 185.199219 68.15625 185.199219 68.15625 185.195312 Z M 139.917969 148.519531 C 146.847656 146.660156 153.886719 145.253906 160.988281 144.296875 L 160.988281 138.710938 L 142.210938 144.023438 L 142.207031 144.023438 L 122.921875 149.480469 L 122.921875 153.996094 C 126.425781 152.648438 129.96875 151.421875 133.539062 150.339844 C 135.648438 149.699219 137.796875 149.085938 139.917969 148.519531 Z M 206.210938 144.199219 L 220.550781 140.140625 L 221.480469 139.878906 L 221.566406 139.855469 L 222.414062 139.613281 L 222.5 139.589844 L 239.214844 134.859375 L 239.332031 134.828125 L 239.332031 122.796875 L 222.414062 127.628906 L 221.707031 127.832031 C 221.632812 127.851562 221.558594 127.847656 221.480469 127.847656 C 221.445312 127.847656 221.40625 127.859375 221.371094 127.855469 L 220.550781 127.742188 L 206.59375 125.808594 L 206.3125 125.886719 L 202.789062 126.882812 L 202.789062 143.789062 C 203.929688 143.914062 205.070312 144.050781 206.210938 144.199219 Z M 210.765625 144.847656 C 214.039062 145.359375 217.304688 145.957031 220.550781 146.652344 C 220.664062 146.675781 220.777344 146.703125 220.890625 146.726562 L 220.890625 141.984375 L 220.550781 142.078125 Z M 239.332031 136.765625 L 239.214844 136.796875 L 222.753906 141.457031 L 222.753906 147.148438 C 228.300781 148.410156 233.796875 149.945312 239.214844 151.753906 C 239.253906 151.765625 239.292969 151.78125 239.332031 151.792969 Z M 63.597656 164.328125 L 81.800781 159.175781 L 101.089844 153.71875 L 101.089844 140.601562 C 91.484375 145.417969 81.941406 151.164062 72.527344 157.847656 L 63.269531 164.421875 Z M 102.957031 139.804688 L 102.957031 153.191406 L 121.734375 147.878906 L 141.023438 142.421875 L 141.023438 126.128906 C 128.320312 128.988281 115.585938 133.515625 102.957031 139.679688 Z M 191.78125 123.753906 C 188.808594 123.339844 185.820312 123.039062 182.820312 122.828125 L 182.820312 130.59375 L 201.601562 125.28125 L 201.71875 125.25 L 201.996094 125.167969 Z M 200.921875 127.410156 L 182.144531 132.722656 L 181.210938 132.988281 L 162.855469 138.183594 L 162.855469 144.0625 C 175.457031 142.507812 188.238281 142.359375 200.921875 143.605469 Z M 121.054688 150.007812 L 102.28125 155.320312 L 102.273438 155.324219 L 82.988281 160.777344 L 82.988281 174.851562 C 94.71875 167.199219 107.589844 160.089844 121.054688 154.730469 Z M 81.125 161.308594 L 62.34375 166.621094 L 59.0625 167.550781 L 58.730469 167.640625 L 58.730469 167.644531 L 43.398438 178.53125 L 43.058594 178.769531 L 43.058594 190.359375 L 43.398438 190.265625 L 61.835938 185.046875 L 72.492188 182.03125 C 75.289062 180.03125 78.167969 178.039062 81.125 176.078125 Z M 24.617188 195.578125 L 24.730469 195.546875 L 41.191406 190.890625 L 41.191406 179.402344 L 24.617188 184.136719 Z M 61.15625 187.179688 L 43.398438 192.203125 L 42.464844 192.46875 L 42.378906 192.492188 L 42.375 192.492188 L 41.53125 192.730469 L 24.730469 197.484375 L 24.617188 197.515625 L 24.617188 215.800781 L 24.730469 215.769531 L 35.605469 212.691406 C 37.410156 210.972656 39.386719 209.121094 41.53125 207.171875 C 41.835938 206.890625 42.148438 206.609375 42.464844 206.324219 C 42.769531 206.046875 43.082031 205.765625 43.398438 205.484375 C 48.53125 200.871094 54.507812 195.773438 61.15625 190.546875 Z M 142.890625 125.835938 L 142.890625 141.894531 L 161.667969 136.578125 L 162.601562 136.316406 L 180.957031 131.121094 L 180.957031 122.699219 C 168.40625 121.980469 155.667969 123.003906 142.890625 125.714844 Z M 142.890625 125.835938 " fill-opacity="1" fill-rule="nonzero"/></g></svg>