<?xml version="1.0" encoding="UTF-8"?>
<svg version="1.1" xmlns="http://www.w3.org/2000/svg" width="512" height="512">
<path d="M0 0 C1.09915237 -0.0071553 2.19830475 -0.01431061 3.33076477 -0.02168274 C4.53707047 -0.02437164 5.74337616 -0.02706055 6.98623657 -0.02983093 C8.89142311 -0.03968773 8.89142311 -0.03968773 10.83509827 -0.04974365 C15.04773703 -0.07076262 19.26037608 -0.08114241 23.47305298 -0.09111023 C24.92383468 -0.09515827 26.37461618 -0.09927521 27.82539749 -0.10346031 C34.64001883 -0.12250541 41.45462937 -0.13673916 48.26927221 -0.14507228 C56.13482942 -0.15484957 64.00010559 -0.18118447 71.86556375 -0.22157317 C77.9463339 -0.25172617 84.02702342 -0.26654027 90.10786688 -0.26985329 C93.73936985 -0.27220429 97.37057233 -0.28117097 101.00199509 -0.30631447 C105.05291219 -0.33391043 109.10320024 -0.32976664 113.15420532 -0.32279968 C114.35646255 -0.33560974 115.55871979 -0.3484198 116.79740906 -0.36161804 C124.9177189 -0.31058043 124.9177189 -0.31058043 128.93292236 2.04006958 C131.82155222 5.48528374 131.98163997 8.76012332 131.69961548 13.14717102 C130.13780229 16.81743202 129.04050952 17.91990832 125.69961548 20.14717102 C84.77961548 20.14717102 43.85961548 20.14717102 1.69961548 20.14717102 C1.69961548 152.80717102 1.69961548 285.46717102 1.69961548 422.14717102 C78.25961548 422.14717102 154.81961548 422.14717102 233.69961548 422.14717102 C233.03961548 419.17717102 232.37961548 416.20717102 231.69961548 413.14717102 C231.35242161 409.64375343 231.36555772 406.16670891 231.38711548 402.64717102 C231.3944873 401.20748962 231.3944873 401.20748962 231.40200806 399.73872375 C231.89471118 369.319991 244.78723878 342.41099309 266.26919556 321.15962219 C284.44125323 303.76383717 306.17085723 295.65127934 330.69961548 292.14717102 C330.69961548 228.78717102 330.69961548 165.42717102 330.69961548 100.14717102 C308.91961548 100.14717102 287.13961548 100.14717102 264.69961548 100.14717102 C257.47433943 96.01844185 253.29406366 93.18059427 250.69961548 85.14717102 C250.45910645 82.07824707 250.45910645 82.07824707 250.4725647 78.61274719 C250.47271576 77.31177597 250.47286682 76.01080475 250.47302246 74.67041016 C250.48323424 73.26031845 250.49366621 71.85022833 250.50430298 70.44013977 C250.50803589 68.98997188 250.51088155 67.53980145 250.51287842 66.08963013 C250.52049299 62.28378768 250.54012259 58.47809932 250.56228638 54.6723175 C250.58279185 50.78439925 250.59189017 46.89645596 250.60195923 43.00849915 C250.6233707 35.3879864 250.65748014 27.76760035 250.69961548 20.14717102 C249.39290894 20.16811829 248.08620239 20.18906555 246.73989868 20.21064758 C241.88519274 20.28312655 237.0305345 20.32899977 232.17544556 20.36689758 C230.07542881 20.38699499 227.9754679 20.41427768 225.87564087 20.44892883 C222.8545859 20.49752872 219.83427171 20.52015864 216.81289673 20.53779602 C215.40793694 20.56876373 215.40793694 20.56876373 213.97459412 20.60035706 C209.68820064 20.60182778 207.34337182 20.54160631 203.61831665 18.25923157 C200.91984203 15.28881498 200.78901012 13.21944714 200.55899048 9.33467102 C200.7575923 6.2453093 201.71214206 4.4895504 203.69961548 2.14717102 C207.08892553 -0.11236901 208.34693779 -0.1257012 212.32925415 -0.19096375 C213.48443039 -0.21340652 214.63960663 -0.2358493 215.82978821 -0.25897217 C217.07976089 -0.27060898 218.32973358 -0.28224579 219.61758423 -0.29423523 C221.54710686 -0.31489296 221.54710686 -0.31489296 223.51560974 -0.33596802 C226.24174564 -0.36148676 228.96777029 -0.3771751 231.69400024 -0.38822937 C235.17026813 -0.40473385 238.6444857 -0.46308777 242.12006664 -0.53137302 C245.45250539 -0.58719927 248.78470911 -0.5934121 252.11758423 -0.60673523 C253.35743576 -0.63659012 254.59728729 -0.66644501 255.87471008 -0.69720459 C257.04564713 -0.69127792 258.21658417 -0.68535126 259.42300415 -0.679245 C260.44431931 -0.68875687 261.46563446 -0.69826874 262.51789856 -0.70806885 C267.35812831 0.59297633 270.1768131 3.69409196 273.69961548 7.14717102 C274.34004823 7.76230529 274.98048098 8.37743956 275.64032078 9.01121426 C277.66567685 10.97694248 279.66520652 12.96618741 281.66030884 14.96260071 C282.41089569 15.70982895 283.16148254 16.45705719 283.93481445 17.22692871 C286.38898876 19.67168375 288.83945045 22.12011699 291.28945923 24.56904602 C293.00191576 26.27828661 294.71444642 27.98745294 296.42704773 29.69654846 C300.00185827 33.2653925 303.57461735 36.83627593 307.14614868 40.40840149 C311.7300423 44.99239726 316.32080776 49.56944466 320.9133215 54.14480209 C324.44506869 57.66545945 327.97229067 61.19062325 331.49823189 64.71709442 C333.18996544 66.40764584 334.88332555 68.09657115 336.57832146 69.78385162 C338.93852961 72.13430943 341.29237371 74.49096115 343.64468384 76.84931946 C344.34852707 77.54754318 345.0523703 78.24576691 345.77754211 78.96514893 C346.73409698 79.92799553 346.73409698 79.92799553 347.7099762 80.91029358 C348.26648833 81.46626095 348.82300047 82.02222832 349.39637661 82.59504318 C352.48089289 86.26863188 351.83655146 90.77256685 351.81987 95.29052734 C351.82115163 96.55006461 351.82115163 96.55006461 351.82245916 97.83504707 C351.82411096 100.65875503 351.81859745 103.48240405 351.81314087 106.30610657 C351.81285891 108.32622781 351.81301691 110.34634915 351.81358337 112.36647034 C351.813871 117.85992807 351.80797993 123.3533641 351.80100942 128.84681678 C351.79477004 134.58436966 351.79417162 140.32192301 351.79298401 146.05947876 C351.78987242 156.92854403 351.78166134 167.79759928 351.77163452 178.66666013 C351.76046804 191.03892343 351.75496158 203.41118721 351.74993908 215.7834543 C351.7394786 241.2380321 351.72188248 266.692601 351.69961548 292.14717102 C352.52154388 292.21133713 353.34347229 292.27550323 354.19030762 292.34161377 C355.26958527 292.42818741 356.34886292 292.51476105 357.46084595 292.60395813 C358.53027435 292.68874924 359.59970276 292.77354034 360.70153809 292.86090088 C383.33391844 295.02194407 403.66533207 307.81236978 419.69961548 323.14717102 C420.44727173 323.82006165 421.19492798 324.49295227 421.96524048 325.18623352 C436.67487235 338.91865209 446.32284062 358.70507638 450.69961548 378.14717102 C451.03606079 379.62443665 451.03606079 379.62443665 451.37930298 381.13154602 C457.00383035 410.87219763 449.78461374 440.2430242 433.60977173 465.39717102 C415.8700669 490.23936475 389.9062138 506.38730922 359.92954302 511.71962094 C353.8661012 512.52224731 347.78677089 512.4291787 341.68099976 512.41459656 C340.18331495 512.41833949 338.68563209 512.42294356 337.18795228 512.4283272 C333.09892699 512.44049192 329.00998392 512.44030453 324.92094469 512.43793845 C320.50104561 512.43752866 316.08117232 512.44858447 311.6612854 512.45805359 C303.01430222 512.47462562 294.36734631 512.4801613 285.72034857 512.48127834 C278.69311144 512.48223005 271.66588328 512.48634641 264.63864899 512.4926796 C244.70690843 512.51027692 224.77518936 512.51952012 204.84344098 512.51801865 C203.23359013 512.51789878 203.23359013 512.51789878 201.59121704 512.51777649 C200.51667118 512.51769473 199.44212533 512.51761297 198.33501747 512.51752873 C180.90018685 512.5167149 163.46544243 512.5358808 146.03063676 512.56405322 C128.12068202 512.59276497 110.21076937 512.60659465 92.30079103 512.60486567 C82.24863429 512.60420147 72.19656807 512.60970766 62.14443207 512.63122177 C53.59158633 512.64941043 45.03887221 512.6537995 36.48601553 512.64020292 C32.12255554 512.63366329 27.75934828 512.6335922 23.39591217 512.65090942 C19.40138343 512.66659988 15.40730868 512.66381816 11.41279128 512.64634116 C9.96818478 512.6432625 8.52354473 512.64693624 7.07897779 512.65806131 C-1.60966799 512.72054249 -7.36772422 512.56060392 -14.00741577 506.61982727 C-18.56479409 500.80635174 -19.59717713 496.31363697 -19.55765343 489.02670574 C-19.5611595 488.20953718 -19.56466558 487.39236861 -19.5682779 486.55043736 C-19.57761314 483.80060677 -19.5726631 481.05098698 -19.56781006 478.30114746 C-19.57154525 476.31437819 -19.57614624 474.32761039 -19.5815407 472.34084493 C-19.59380235 466.87201123 -19.59350651 461.40323856 -19.59115195 455.93439424 C-19.59074459 450.03992221 -19.60177525 444.14546995 -19.61126709 438.25100708 C-19.62789532 426.69920899 -19.63340335 415.14742974 -19.63449185 403.59562083 C-19.63541065 394.20793286 -19.63952584 384.82025151 -19.6458931 375.43256569 C-19.64768816 372.73111275 -19.64946779 370.02965979 -19.65124285 367.32820684 C-19.65168495 366.65663232 -19.65212704 365.98505779 -19.65258254 365.29313253 C-19.6648924 346.40076334 -19.67278352 327.50839644 -19.67189598 308.61602306 C-19.67186482 307.90361625 -19.67183367 307.19120943 -19.67180156 306.45721453 C-19.67163535 302.8463756 -19.67143726 299.23553669 -19.67123215 295.62469777 C-19.67119226 294.90756213 -19.67115237 294.19042648 -19.67111127 293.45155946 C-19.67103039 292.00133613 -19.6709468 290.5511128 -19.67086049 289.10088947 C-19.66963492 266.53678242 -19.68464853 243.97273548 -19.71200562 221.40864563 C-19.74272291 196.06256109 -19.75993833 170.71651603 -19.75807917 145.37041169 C-19.75792991 142.66801568 -19.7578325 139.96561967 -19.75777054 137.26322365 C-19.75774723 136.597817 -19.75772392 135.93241036 -19.75769991 135.24683987 C-19.75764216 125.19941222 -19.76834329 115.15203382 -19.78443527 105.10461998 C-19.80261915 93.67764211 -19.80701737 82.25076274 -19.79341643 70.82377668 C-19.78687274 64.99193952 -19.78682016 59.16029148 -19.80412292 53.32847214 C-19.81979662 47.99090037 -19.81704835 42.65366859 -19.79955466 37.3161054 C-19.79647218 35.38409151 -19.80016385 33.4520526 -19.81127481 31.52006819 C-19.82537479 28.89468643 -19.81482654 26.27050075 -19.79816246 23.64515972 C-19.813067 22.51888599 -19.813067 22.51888599 -19.82827264 21.36985925 C-19.74317707 15.03262695 -17.69437494 9.86036016 -13.48397827 5.08857727 C-12.90776733 4.63353821 -12.3315564 4.17849915 -11.73788452 3.70967102 C-11.15909546 3.23658508 -10.5803064 2.76349915 -9.98397827 2.27607727 C-6.71403533 0.08347052 -3.8145305 0.0170377 0 0 Z M271.69961548 36.14717102 C271.69961548 50.66717102 271.69961548 65.18717102 271.69961548 80.14717102 C286.21961548 80.14717102 300.73961548 80.14717102 315.69961548 80.14717102 C310.79317075 74.39996887 310.79317075 74.39996887 305.6378479 68.95600891 C304.53221748 67.84565025 304.53221748 67.84565025 303.4042511 66.71286011 C302.62902603 65.93965927 301.85380096 65.16645844 301.05508423 64.36982727 C300.24469193 63.55847824 299.43429962 62.74712921 298.59934998 61.91119385 C296.89872992 60.20989701 295.19686127 58.50984742 293.49380493 56.81098938 C290.87439261 54.19697437 288.26041137 51.57761247 285.6468811 48.9577179 C283.99160307 47.30309991 282.33601526 45.64879175 280.68008423 43.99482727 C279.5020649 42.81377159 279.5020649 42.81377159 278.30024719 41.6088562 C277.57892105 40.89068222 276.85759491 40.17250824 276.1144104 39.43257141 C275.47742722 38.79638382 274.84044403 38.16019623 274.18415833 37.50473022 C272.91190061 36.03469762 272.91190061 36.03469762 271.69961548 36.14717102 Z M282.69961548 335.14717102 C281.47178345 336.2357843 281.47178345 336.2357843 280.21914673 337.34638977 C263.7772713 352.76861401 253.32828563 374.61345221 252.49649048 397.24092102 C252.01031031 424.62803856 261.60096002 447.3215329 280.32461548 467.20967102 C296.78923528 483.22251772 319.85550666 492.12364465 342.69961548 492.14717102 C364.73025158 491.29768678 385.21309835 484.08201595 401.69961548 469.14717102 C402.51817017 468.42142883 403.33672485 467.69568665 404.18008423 466.94795227 C420.62195966 451.52572803 431.07094532 429.68088983 431.90274048 407.05342102 C432.38892065 379.66630348 422.79827093 356.97280914 404.07461548 337.08467102 C371.02271125 304.9396788 316.69232853 304.35377214 282.69961548 335.14717102 Z M1.69961548 442.14717102 C1.69961548 458.64717102 1.69961548 475.14717102 1.69961548 492.14717102 C92.77961548 492.14717102 183.85961548 492.14717102 277.69961548 492.14717102 C275.13840808 489.58596362 272.68619317 487.22665451 269.94961548 484.89717102 C255.75310337 472.45557831 247.95001279 459.6792653 239.69961548 442.14717102 C161.15961548 442.14717102 82.61961548 442.14717102 1.69961548 442.14717102 Z " fill="#fe6100" transform="translate(39.300384521484375,-0.1471710205078125)"/>
<path d="M0 0 C1.49814382 -0.01140678 2.99625076 -0.03167448 4.49414062 -0.06152344 C18.72416792 -0.34488921 31.39136239 1.47061787 42.46411133 11.29516602 C52.48105518 21.70925742 56.35985132 36.83887316 56.77661133 50.98266602 C56.71091834 52.42243731 56.60309906 53.86061405 56.46411133 55.29516602 C56.37129883 56.28774414 56.27848633 57.28032227 56.18286133 58.30297852 C54.46870594 72.24697335 48.81273449 85.61037226 37.81176758 94.72485352 C27.43027941 101.66887721 16.84503001 102.54580464 4.74462891 102.64526367 C3.26758087 102.66184693 1.79061386 102.68916893 0.31396484 102.72729492 C-1.83301715 102.78230282 -3.97813914 102.80396386 -6.12573242 102.81860352 C-7.40311279 102.83842285 -8.68049316 102.85824219 -9.99658203 102.87866211 C-14.6774963 102.10695865 -16.24245414 100.65881842 -19.53588867 97.29516602 C-20.79194051 93.52701049 -20.70767182 89.99054475 -20.72875977 86.06347656 C-20.73693726 85.2241156 -20.74511475 84.38475464 -20.75354004 83.5199585 C-20.77836459 80.74060782 -20.7949018 77.96130808 -20.80932617 75.18188477 C-20.81464985 74.23229197 -20.81997353 73.28269917 -20.82545853 72.30433083 C-20.85217629 67.27890454 -20.8715563 62.253503 -20.88598633 57.22802734 C-20.89933183 53.06960077 -20.92719763 48.91166417 -20.96801758 44.75341797 C-21.01731678 39.73135708 -21.04210391 34.70974104 -21.04921341 29.6874485 C-21.05592784 27.77488157 -21.07115489 25.86232463 -21.09510422 23.94989586 C-21.12673919 21.2710842 -21.12679541 18.59398863 -21.11938477 15.91503906 C-21.1357901 15.1278096 -21.15219543 14.34058014 -21.1690979 13.52949524 C-21.12330774 9.47839609 -20.71101839 7.02045385 -18.12442017 3.81892395 C-12.98435888 -1.19251612 -6.78545869 0.03584771 0 0 Z M0.46411133 21.29516602 C0.46411133 41.09516602 0.46411133 60.89516602 0.46411133 81.29516602 C13.96251735 82.17553981 13.96251735 82.17553981 25.46411133 77.29516602 C32.94084873 69.81842861 35.00318836 61.27609435 35.52270508 50.96313477 C35.37183382 41.5185943 33.34437988 33.04248252 26.46411133 26.29516602 C18.09771527 19.38379536 12.61377092 21.29516602 0.46411133 21.29516602 Z " fill="#fe6100" transform="translate(194.535888671875,164.704833984375)"/>
<path d="M0 0 C0.75031494 -0.00807175 1.50062988 -0.01614349 2.27368164 -0.02445984 C3.86748952 -0.03830674 5.46132713 -0.04902618 7.05517578 -0.05688477 C8.67082523 -0.06833984 10.28643879 -0.08868769 11.90185547 -0.1184082 C24.09766957 -0.34277107 33.80840565 0.54041852 43.68359375 8.48046875 C50.90261936 15.46662257 54.53988038 24.17279085 54.9375 34.11328125 C54.55296448 45.76766542 49.87013898 53.35358091 41.5 61.23828125 C31.56131898 69.48527189 19.67197375 68.59628048 7.5 68.23828125 C7.51571045 69.05506348 7.5314209 69.8718457 7.54760742 70.71337891 C7.6101394 74.42994202 7.64904944 78.14639421 7.6875 81.86328125 C7.71263672 83.14847656 7.73777344 84.43367188 7.76367188 85.7578125 C7.77333984 87.00175781 7.78300781 88.24570313 7.79296875 89.52734375 C7.8086792 90.66896973 7.82438965 91.8105957 7.84057617 92.98681641 C7.39772431 97.21470251 6.18519039 100.86516315 2.8125 103.61328125 C-0.66201646 104.55233975 -3.96135728 104.82805504 -7.5 104.23828125 C-10.3100346 102.44464214 -12.00940468 101.2194719 -13.5 98.23828125 C-13.614249 95.36632549 -13.66786269 92.51807249 -13.67700195 89.64526367 C-13.68685875 88.31088005 -13.68685875 88.31088005 -13.69691467 86.94953918 C-13.71666937 83.99760866 -13.72831486 81.04572904 -13.73828125 78.09375 C-13.74235678 77.08682917 -13.7464323 76.07990833 -13.75063133 75.04247475 C-13.77150095 69.71345855 -13.78579903 64.38446817 -13.79516602 59.05541992 C-13.80623469 53.54717961 -13.84063747 48.03934281 -13.88033772 42.53124523 C-13.90646488 38.29933412 -13.91485437 34.06751973 -13.91844749 29.83553505 C-13.92332324 27.8049376 -13.9349652 25.77434475 -13.95348549 23.74382591 C-13.97779473 20.90205149 -13.97692696 18.06132866 -13.9699707 15.21948242 C-13.98278076 14.38033295 -13.99559082 13.54118347 -14.00878906 12.67660522 C-13.97296479 8.66233825 -13.80052941 6.71152628 -11.59562683 3.23945618 C-7.95568816 -0.23642698 -4.80278329 0.04901004 0 0 Z M7.5 21.23828125 C7.5 29.81828125 7.5 38.39828125 7.5 47.23828125 C9.85125 47.30015625 12.2025 47.36203125 14.625 47.42578125 C15.35348145 47.45309326 16.08196289 47.48040527 16.83251953 47.50854492 C21.50203284 47.56743626 24.55237207 46.69174073 28.5 44.23828125 C32.21072756 40.28320758 32.21072756 40.28320758 33.5546875 35.25 C33.22306568 30.96054386 32.91690284 28.76786053 30.1875 25.30078125 C25.1515502 21.43598257 21.54822764 20.96973552 15.25 21.11328125 C11.41375 21.17515625 11.41375 21.17515625 7.5 21.23828125 Z " fill="#fe6100" transform="translate(105.5,163.76171875)"/>
<path d="M0 0 C3.49890004 2.11391877 4.70578686 3.11736059 6 7 C6.11929387 9.44743986 6.18518708 11.8686787 6.20532227 14.31713867 C6.21522186 15.05884811 6.22512146 15.80055756 6.23532104 16.56474304 C6.26690257 19.01578583 6.29168021 21.466848 6.31640625 23.91796875 C6.33697867 25.61762495 6.35797522 27.31727607 6.37937927 29.016922 C6.4345702 33.49014163 6.48399262 37.96340721 6.53222656 42.43670654 C6.58246332 47.00146574 6.63813804 51.56615823 6.69335938 56.13085938 C6.80090452 65.08718259 6.9023576 74.04356373 7 83 C7.67909424 82.29915283 8.35818848 81.59830566 9.05786133 80.8762207 C10.40013794 79.50856567 10.40013794 79.50856567 11.76953125 78.11328125 C12.65487549 77.20618408 13.54021973 76.29908691 14.45239258 75.36450195 C17.81195556 72.24640253 19.44114476 71.25804841 24 71 C27.63941307 72.09182392 30.11822095 73.2035544 32.9375 75.75 C34.47754625 79.01127441 34.37514231 81.43614803 34 85 C31.69787324 89.75271266 28.14172934 93.13223544 24.43359375 96.796875 C23.79889664 97.43111389 23.16419952 98.06535278 22.51026917 98.71881104 C21.17368371 100.05238591 19.83467916 101.38354011 18.4934082 102.71240234 C16.43575181 104.75173262 14.38627971 106.79902182 12.33789062 108.84765625 C11.03693051 110.14370331 9.735514 111.43929243 8.43359375 112.734375 C7.51168495 113.65461456 7.51168495 113.65461456 6.57115173 114.59344482 C2.97370446 118.15068102 0.93329821 120.14750535 -4.125 120.5 C-7.90554121 120.38888816 -9.7272696 119.83810366 -12.49609375 117.265625 C-13.18316406 116.63011719 -13.87023437 115.99460937 -14.578125 115.33984375 C-15.37734375 114.56769531 -16.1765625 113.79554688 -17 113 C-17.47284424 112.54351074 -17.94568848 112.08702148 -18.43286133 111.61669922 C-21.72755563 108.42517688 -24.98648217 105.19928945 -28.22973633 101.95556641 C-29.95311378 100.23440631 -31.68438324 98.52144382 -33.41601562 96.80859375 C-34.51611248 95.71142606 -35.61573949 94.61378703 -36.71484375 93.515625 C-37.48972389 92.75152313 -37.48972389 92.75152313 -38.28025818 91.97198486 C-41.68189854 88.54829413 -42.86238698 86.48622057 -43.3125 81.625 C-42.93939765 77.29701278 -42.21430922 75.88463648 -39 73 C-35.02645921 71.20066077 -32.87888786 70.78841589 -28.625 71.8125 C-25.24716087 73.48328479 -22.89370293 75.96136547 -20.2734375 78.63671875 C-19.47083496 79.45229248 -18.66823242 80.26786621 -17.84130859 81.1081543 C-17.23367676 81.73246338 -16.62604492 82.35677246 -16 83 C-15.99413376 82.05896927 -15.98826752 81.11793854 -15.98222351 80.14839172 C-15.92498695 71.2759471 -15.85222049 62.40374735 -15.76428509 53.53155231 C-15.71957562 48.97035301 -15.68032079 44.40924314 -15.65356445 39.84790039 C-15.62753718 35.44515414 -15.58713894 31.04275195 -15.53681374 26.64021873 C-15.5201411 24.96136953 -15.50862928 23.2824608 -15.50238609 21.60354042 C-15.49274915 19.25005735 -15.46469598 16.89745528 -15.43237305 14.54418945 C-15.43380814 13.8515097 -15.43524323 13.15882996 -15.4367218 12.44515991 C-15.35320291 8.13971094 -14.63758907 5.42071459 -12 2 C-7.97685134 -0.68209911 -4.72780081 -0.68843415 0 0 Z " fill="#fe6100" transform="translate(386,342)"/>
<path d="M0 0 C0.87078186 -0.00807175 1.74156372 -0.01614349 2.63873291 -0.02445984 C4.48472094 -0.03830382 6.3307346 -0.04902457 8.17675781 -0.05688477 C10.99073335 -0.07406676 13.80352452 -0.11794543 16.6171875 -0.16210938 C18.4114497 -0.17223915 20.20572189 -0.18075436 22 -0.1875 C23.25656403 -0.21376213 23.25656403 -0.21376213 24.53851318 -0.24055481 C29.92055087 -0.22072223 33.00454156 0.63780817 37.265625 4.23828125 C39.00194136 7.71091398 38.86752902 11.45021138 38.265625 15.23828125 C36.08403355 17.99397572 34.39385006 19.67416872 31.265625 21.23828125 C29.3062646 21.3233833 27.34399706 21.34545781 25.3828125 21.3359375 C24.21621094 21.33271484 23.04960937 21.32949219 21.84765625 21.32617188 C20.62433594 21.31779297 19.40101563 21.30941406 18.140625 21.30078125 C16.90957031 21.29626953 15.67851562 21.29175781 14.41015625 21.28710938 C11.36195861 21.27529466 8.31378584 21.25735875 5.265625 21.23828125 C5.265625 27.83828125 5.265625 34.43828125 5.265625 41.23828125 C6.92851562 41.18027344 8.59140625 41.12226563 10.3046875 41.0625 C12.49997188 41.01559221 14.69528668 40.97009315 16.890625 40.92578125 C17.98503906 40.88388672 19.07945312 40.84199219 20.20703125 40.79882812 C29.32583062 40.6606645 29.32583062 40.6606645 32.97265625 43.578125 C35.66396957 46.70041524 36.34788076 48.12549337 36.265625 52.23828125 C35.11736349 56.22342413 34.28561168 58.52081898 30.85546875 60.93359375 C25.81653596 62.76493603 21.20332314 62.55945559 15.890625 62.42578125 C14.35728516 62.40547852 14.35728516 62.40547852 12.79296875 62.38476562 C10.28330451 62.34958342 7.7747441 62.30035664 5.265625 62.23828125 C5.28133545 63.20652832 5.2970459 64.17477539 5.31323242 65.17236328 C5.36776485 68.78409419 5.40205919 72.3957891 5.43041992 76.0078125 C5.44545369 77.56744519 5.46588635 79.12703597 5.49194336 80.68652344 C5.52856711 82.93565241 5.54540521 85.18421972 5.55859375 87.43359375 C5.57407761 88.12446075 5.58956146 88.81532776 5.60551453 89.52713013 C5.60710907 94.17321586 4.70543644 97.29341273 2.265625 101.23828125 C-0.44521047 103.43625595 -2.22394672 104.16226002 -5.671875 104.67578125 C-9.5468176 104.12221802 -11.68862848 102.64654594 -14.734375 100.23828125 C-16.38276193 96.94150739 -15.90897419 93.27061611 -15.92724609 89.64526367 C-15.93542358 88.75567459 -15.94360107 87.86608551 -15.95202637 86.94953918 C-15.97689436 83.99761636 -15.9933995 81.04574164 -16.0078125 78.09375 C-16.01313618 77.08682917 -16.01845985 76.07990833 -16.02394485 75.04247475 C-16.05068186 69.71346421 -16.07005547 64.38447715 -16.08447266 59.05541992 C-16.10112672 53.54708714 -16.14590948 48.03935193 -16.1968441 42.53124523 C-16.23047504 38.29933472 -16.24204552 34.06756681 -16.24769974 29.83553505 C-16.25442312 27.80491885 -16.26967329 25.77431239 -16.29359055 23.74382591 C-16.32515733 20.90188041 -16.3252917 18.06155671 -16.31787109 15.21948242 C-16.33427643 14.38033295 -16.35068176 13.54118347 -16.36758423 12.67660522 C-16.32121375 8.3392528 -16.13860875 6.7409734 -13.32290649 3.23945618 C-8.92232877 -0.16259855 -5.39577355 0.04712452 0 0 Z " fill="#fe6100" transform="translate(280.734375,163.76171875)"/>
<path d="M0 0 C3 1.4375 3 1.4375 5 4 C6.29282605 8.33096727 6.53077114 11.75268782 4.75 15.9375 C2.7297043 18.31856279 1.06245731 19.82889264 -2.0859375 20.3359375 C-5.93211019 20.40157185 -8.48452922 20.24699641 -12 18.5625 C-14.84918034 14.91198769 -15.2942122 11.57663425 -15 7 C-11.98054704 -0.09571447 -7.05326098 -0.95280894 0 0 Z " fill="#fe6100" transform="translate(210,0)"/>
</svg>
