<svg xmlns="http://www.w3.org/2000/svg" xmlns:xlink="http://www.w3.org/1999/xlink" width="500" zoomAndPan="magnify" viewBox="0 0 375 374.999991" height="500" preserveAspectRatio="xMidYMid meet" version="1.0"><defs><clipPath id="e32f29ca35"><path d="M 37.5 78 L 337 78 L 337 306 L 37.5 306 Z M 37.5 78 " clip-rule="nonzero"/></clipPath></defs><g clip-path="url(#e32f29ca35)"><path fill="#000000" d="M 240.097656 239.355469 C 244.960938 239.355469 248.902344 243.304688 248.902344 248.171875 C 248.902344 253.042969 244.960938 256.988281 240.097656 256.988281 L 187.28125 256.988281 C 182.417969 256.988281 178.476562 253.042969 178.476562 248.171875 C 178.476562 243.304688 182.417969 239.355469 187.28125 239.355469 L 187.28125 191.457031 C 170.078125 201.453125 160.871094 213.457031 160.871094 226.128906 C 160.871094 249.910156 171.429688 271.058594 193.078125 290.03125 C 196.734375 293.238281 197.105469 298.808594 193.90625 302.472656 C 190.703125 306.136719 185.140625 306.507812 181.484375 303.300781 C 156.179688 281.128906 143.265625 255.253906 143.265625 226.128906 C 143.265625 179.425781 215.25 146.777344 328.128906 146.777344 C 332.992188 146.777344 336.933594 150.726562 336.933594 155.59375 C 336.933594 160.464844 332.992188 164.410156 328.128906 164.410156 L 328.128906 208.496094 C 332.992188 208.496094 336.933594 212.445312 336.933594 217.3125 C 336.933594 222.183594 332.992188 226.128906 328.128906 226.128906 L 275.308594 226.128906 C 270.449219 226.128906 266.507812 222.183594 266.507812 217.3125 C 266.507812 212.445312 270.449219 208.496094 275.308594 208.496094 L 275.308594 167.121094 C 262.621094 168.5 250.863281 170.378906 240.097656 172.683594 Z M 292.917969 165.542969 L 292.917969 208.496094 L 310.523438 208.496094 L 310.523438 164.683594 C 304.511719 164.871094 298.640625 165.160156 292.917969 165.542969 Z M 220.785156 177.636719 C 215.128906 179.351562 209.824219 181.214844 204.886719 183.21875 L 204.886719 239.355469 L 222.492188 239.355469 L 222.492188 177.636719 Z M 76.132812 292.386719 C 78.496094 296.640625 76.964844 302.007812 72.714844 304.375 C 68.464844 306.738281 63.105469 305.207031 60.742188 300.949219 C 45.367188 273.230469 37.628906 245.320312 37.628906 217.3125 C 37.628906 123.140625 144.945312 68.121094 328.726562 80.671875 C 333.578125 81 337.242188 85.207031 336.910156 90.066406 C 336.582031 94.925781 332.378906 98.59375 327.53125 98.261719 C 152.523438 86.3125 55.234375 136.195312 55.234375 217.3125 C 55.234375 242.210938 62.164062 267.199219 76.132812 292.386719 Z M 121.972656 274.792969 C 124.3125 279.0625 122.75 284.421875 118.488281 286.761719 C 114.226562 289.105469 108.875 287.542969 106.535156 283.273438 C 104.242188 279.082031 102.191406 274.84375 100.386719 270.558594 C 98.492188 266.074219 100.59375 260.902344 105.070312 259.007812 C 109.550781 257.113281 114.714844 259.214844 116.605469 263.699219 C 118.175781 267.429688 119.964844 271.125 121.972656 274.792969 Z M 108.074219 223.980469 C 108.175781 228.847656 104.316406 232.878906 99.457031 232.976562 C 94.59375 233.078125 90.574219 229.210938 90.472656 224.34375 C 90.457031 223.476562 90.445312 222.609375 90.445312 221.742188 C 90.445312 217.523438 90.855469 213.359375 91.667969 209.25 C 92.617188 204.472656 97.25 201.371094 102.019531 202.320312 C 106.785156 203.265625 109.886719 207.90625 108.9375 212.683594 C 108.347656 215.660156 108.050781 218.675781 108.050781 221.738281 C 108.050781 222.488281 108.058594 223.234375 108.074219 223.980469 Z M 128.867188 180.035156 C 125.296875 183.339844 119.726562 183.117188 116.425781 179.542969 C 113.128906 175.964844 113.347656 170.386719 116.921875 167.082031 C 120.289062 163.964844 123.960938 160.957031 127.917969 158.058594 C 131.84375 155.1875 137.351562 156.046875 140.21875 159.980469 C 143.085938 163.914062 142.226562 169.429688 138.300781 172.300781 C 134.878906 174.804688 131.730469 177.386719 128.867188 180.035156 Z M 175.070312 152.613281 C 170.550781 154.410156 165.433594 152.199219 163.636719 147.671875 C 161.84375 143.148438 164.050781 138.019531 168.570312 136.222656 C 172.707031 134.578125 176.988281 133.007812 181.402344 131.515625 C 186.007812 129.957031 191.003906 132.4375 192.558594 137.050781 C 194.113281 141.664062 191.636719 146.667969 187.03125 148.222656 C 182.90625 149.617188 178.917969 151.082031 175.070312 152.613281 Z M 228.875 137.386719 C 224.097656 138.300781 219.488281 135.167969 218.570312 130.386719 C 217.65625 125.601562 220.785156 120.984375 225.5625 120.066406 C 229.910156 119.230469 234.34375 118.457031 238.851562 117.742188 C 243.652344 116.980469 248.160156 120.261719 248.921875 125.074219 C 249.679688 129.882812 246.40625 134.398438 241.601562 135.160156 C 237.28125 135.84375 233.035156 136.585938 228.875 137.386719 Z M 284.035156 130.472656 C 279.183594 130.792969 274.988281 127.117188 274.667969 122.257812 C 274.34375 117.398438 278.015625 113.199219 282.867188 112.875 C 287.28125 112.582031 291.746094 112.335938 296.257812 112.144531 C 301.117188 111.9375 305.222656 115.710938 305.429688 120.578125 C 305.636719 125.441406 301.867188 129.554688 297.011719 129.761719 C 292.636719 129.949219 288.308594 130.1875 284.035156 130.472656 Z M 284.035156 130.472656 " fill-opacity="1" fill-rule="nonzero"/></g></svg>