<svg width="19" height="19" viewBox="0 0 19 19" fill="none" xmlns="http://www.w3.org/2000/svg">
<path d="M9.06699 1.75C9.25944 1.41667 9.74056 1.41667 9.93301 1.75L16.4282 13C16.6207 13.3333 16.3801 13.75 15.9952 13.75H3.00481C2.61991 13.75 2.37935 13.3333 2.5718 13L9.06699 1.75Z" fill="white" stroke="#FF0000"/>
<path fill-rule="evenodd" clip-rule="evenodd" d="M10.2482 7.07955L11.9229 8.80795C12.0257 8.91402 12.0257 9.08598 11.9229 9.19204L10.2482 10.9205C10.1454 11.0265 9.9788 11.0265 9.87603 10.9205C9.77327 10.8144 9.77327 10.6424 9.87603 10.5364L11.1015 9.27159H7V8.72841H11.1015L9.87603 7.46364C9.77327 7.35757 9.77327 7.18561 9.87603 7.07955C9.9788 6.97348 10.1454 6.97348 10.2482 7.07955Z" fill="black"/>
</svg>
