<svg xmlns="http://www.w3.org/2000/svg" xmlns:xlink="http://www.w3.org/1999/xlink" width="500" zoomAndPan="magnify" viewBox="0 0 375 374.999991" height="500" preserveAspectRatio="xMidYMid meet" version="1.0"><defs><clipPath id="8d4ff93781"><path d="M 21.601562 127.5 L 353 127.5 L 353 247.5 L 21.601562 247.5 Z M 21.601562 127.5 " clip-rule="nonzero"/></clipPath></defs><g clip-path="url(#8d4ff93781)"><path fill="#afb2af" d="M 156.828125 157.078125 C 156.8125 157.003906 156.796875 156.929688 156.777344 156.859375 C 156.757812 156.789062 156.738281 156.71875 156.710938 156.648438 C 156.683594 156.578125 156.65625 156.503906 156.621094 156.4375 C 156.589844 156.371094 156.554688 156.308594 156.515625 156.246094 C 156.476562 156.179688 156.433594 156.117188 156.386719 156.058594 C 156.34375 155.996094 156.296875 155.941406 156.246094 155.886719 C 156.195312 155.828125 156.136719 155.777344 156.082031 155.730469 C 156.027344 155.683594 155.972656 155.636719 155.917969 155.59375 C 155.84375 155.542969 155.773438 155.496094 155.695312 155.453125 C 155.660156 155.433594 155.632812 155.40625 155.59375 155.386719 C 155.570312 155.378906 155.550781 155.371094 155.527344 155.363281 C 155.449219 155.324219 155.367188 155.292969 155.285156 155.265625 C 155.21875 155.242188 155.148438 155.222656 155.082031 155.203125 C 155.007812 155.1875 154.9375 155.175781 154.867188 155.167969 C 154.78125 155.152344 154.699219 155.144531 154.613281 155.140625 C 154.585938 155.140625 154.5625 155.132812 154.539062 155.132812 L 31.511719 155.132812 L 31.511719 127.5 L 21.871094 127.5 L 21.871094 244.300781 C 21.871094 244.714844 21.949219 245.109375 22.109375 245.488281 C 22.265625 245.871094 22.488281 246.207031 22.78125 246.496094 C 23.070312 246.789062 23.40625 247.011719 23.789062 247.171875 C 24.167969 247.328125 24.5625 247.40625 24.972656 247.40625 L 28.410156 247.40625 C 28.824219 247.40625 29.21875 247.328125 29.597656 247.171875 C 29.980469 247.011719 30.3125 246.789062 30.605469 246.496094 C 30.894531 246.207031 31.121094 245.871094 31.277344 245.488281 C 31.433594 245.109375 31.511719 244.714844 31.511719 244.300781 L 31.511719 219.558594 L 123.085938 219.558594 C 123.691406 219.847656 124.292969 219.847656 124.894531 219.558594 L 154.539062 219.558594 C 154.847656 219.558594 155.144531 219.496094 155.429688 219.378906 C 155.710938 219.261719 155.964844 219.09375 156.183594 218.875 C 156.402344 218.65625 156.570312 218.40625 156.6875 218.121094 C 156.804688 217.832031 156.863281 217.535156 156.863281 217.226562 L 156.863281 157.460938 C 156.863281 157.414062 156.851562 157.375 156.851562 157.332031 C 156.847656 157.242188 156.839844 157.160156 156.828125 157.078125 Z M 93.445312 162.582031 L 120.089844 214.898438 L 66.800781 214.898438 Z M 63.132812 211.851562 L 39.742188 159.789062 L 89.648438 159.789062 Z M 97.238281 159.789062 L 150.746094 159.789062 L 123.992188 212.3125 Z M 31.507812 159.789062 L 34.632812 159.789062 L 59.40625 214.898438 L 31.511719 214.898438 Z M 127.894531 214.898438 L 152.210938 167.144531 L 152.210938 214.898438 Z M 343.1875 127.484375 L 343.1875 155.105469 L 220.308594 155.105469 C 220.28125 155.105469 220.253906 155.105469 220.226562 155.105469 C 220.148438 155.109375 220.066406 155.117188 219.988281 155.128906 C 219.914062 155.140625 219.835938 155.152344 219.761719 155.167969 C 219.695312 155.183594 219.628906 155.207031 219.566406 155.230469 C 219.484375 155.257812 219.398438 155.289062 219.320312 155.328125 C 219.296875 155.335938 219.273438 155.34375 219.25 155.351562 C 219.230469 155.363281 219.183594 155.398438 219.148438 155.417969 C 219.074219 155.460938 219 155.507812 218.929688 155.5625 C 218.871094 155.601562 218.816406 155.648438 218.765625 155.695312 C 218.707031 155.746094 218.652344 155.796875 218.597656 155.851562 C 218.550781 155.90625 218.5 155.964844 218.457031 156.023438 C 218.410156 156.082031 218.367188 156.144531 218.328125 156.210938 C 218.289062 156.273438 218.257812 156.335938 218.226562 156.402344 C 218.191406 156.46875 218.160156 156.539062 218.132812 156.613281 C 218.109375 156.683594 218.085938 156.753906 218.066406 156.824219 C 218.046875 156.894531 218.03125 156.96875 218.019531 157.042969 C 218.007812 157.125 218 157.207031 217.996094 157.289062 C 217.996094 157.332031 217.980469 157.375 217.980469 157.421875 L 217.980469 217.214844 C 217.980469 217.523438 218.042969 217.820312 218.160156 218.105469 C 218.277344 218.390625 218.445312 218.640625 218.664062 218.859375 C 218.882812 219.078125 219.132812 219.246094 219.417969 219.367188 C 219.703125 219.484375 220 219.542969 220.308594 219.542969 L 249.953125 219.542969 C 250.554688 219.832031 251.15625 219.832031 251.757812 219.542969 L 343.1875 219.542969 L 343.1875 244.300781 C 343.1875 244.714844 343.265625 245.109375 343.425781 245.488281 C 343.582031 245.871094 343.804688 246.207031 344.097656 246.496094 C 344.386719 246.789062 344.722656 247.011719 345.101562 247.171875 C 345.484375 247.328125 345.878906 247.40625 346.289062 247.40625 L 349.726562 247.40625 C 350.140625 247.40625 350.535156 247.328125 350.914062 247.171875 C 351.292969 247.011719 351.628906 246.789062 351.921875 246.496094 C 352.210938 246.207031 352.4375 245.871094 352.59375 245.488281 C 352.75 245.109375 352.828125 244.714844 352.828125 244.300781 L 352.828125 127.492188 Z M 281.402344 162.5625 L 308.046875 214.878906 L 254.757812 214.878906 Z M 250.855469 212.292969 L 224.109375 159.761719 L 277.609375 159.761719 Z M 285.199219 159.761719 L 335.105469 159.761719 L 311.710938 211.828125 Z M 222.636719 167.128906 L 246.953125 214.886719 L 222.636719 214.886719 Z M 315.4375 214.886719 L 340.207031 159.761719 L 343.1875 159.761719 L 343.1875 214.886719 Z M 315.4375 214.886719 " fill-opacity="1" fill-rule="nonzero"/></g><path fill="#06873d" d="M 312.167969 150.460938 L 312.167969 224.433594 C 312.167969 225.25 312.089844 226.058594 311.929688 226.855469 C 311.769531 227.65625 311.535156 228.433594 311.222656 229.1875 C 310.910156 229.941406 310.53125 230.65625 310.078125 231.335938 C 309.625 232.011719 309.109375 232.640625 308.535156 233.214844 C 307.957031 233.792969 307.332031 234.308594 306.652344 234.761719 C 305.976562 235.214844 305.261719 235.597656 304.507812 235.90625 C 303.753906 236.21875 302.980469 236.457031 302.179688 236.613281 C 301.382812 236.773438 300.574219 236.851562 299.757812 236.851562 L 74.945312 236.851562 C 74.128906 236.851562 73.320312 236.773438 72.523438 236.613281 C 71.722656 236.457031 70.949219 236.21875 70.195312 235.90625 C 69.441406 235.597656 68.726562 235.214844 68.050781 234.761719 C 67.371094 234.308594 66.746094 233.792969 66.167969 233.214844 C 65.59375 232.640625 65.078125 232.011719 64.625 231.335938 C 64.175781 230.65625 63.792969 229.941406 63.480469 229.1875 C 63.167969 228.433594 62.933594 227.65625 62.773438 226.855469 C 62.613281 226.058594 62.535156 225.25 62.535156 224.433594 L 62.535156 150.460938 C 62.535156 149.648438 62.613281 148.839844 62.773438 148.039062 C 62.933594 147.238281 63.167969 146.464844 63.480469 145.710938 C 63.792969 144.957031 64.175781 144.242188 64.625 143.5625 C 65.078125 142.886719 65.59375 142.257812 66.167969 141.679688 C 66.746094 141.105469 67.371094 140.589844 68.050781 140.136719 C 68.726562 139.683594 69.441406 139.300781 70.195312 138.988281 C 70.949219 138.675781 71.722656 138.441406 72.523438 138.28125 C 73.320312 138.125 74.128906 138.042969 74.945312 138.042969 L 299.757812 138.042969 C 300.574219 138.042969 301.382812 138.125 302.179688 138.28125 C 302.980469 138.441406 303.753906 138.675781 304.507812 138.988281 C 305.261719 139.300781 305.976562 139.683594 306.652344 140.136719 C 307.332031 140.589844 307.957031 141.105469 308.535156 141.679688 C 309.109375 142.257812 309.625 142.886719 310.078125 143.5625 C 310.53125 144.242188 310.910156 144.957031 311.222656 145.710938 C 311.535156 146.464844 311.769531 147.238281 311.929688 148.039062 C 312.089844 148.839844 312.167969 149.648438 312.167969 150.460938 Z M 312.167969 150.460938 " fill-opacity="1" fill-rule="nonzero"/><path fill="#ffffff" d="M 298.847656 232.058594 L 75.855469 232.058594 C 75.296875 232.058594 74.742188 232.003906 74.191406 231.894531 C 73.644531 231.785156 73.109375 231.621094 72.59375 231.40625 C 72.074219 231.191406 71.585938 230.929688 71.117188 230.617188 C 70.652344 230.304688 70.222656 229.953125 69.828125 229.554688 C 69.429688 229.160156 69.078125 228.730469 68.765625 228.261719 C 68.453125 227.796875 68.191406 227.304688 67.976562 226.789062 C 67.761719 226.269531 67.601562 225.734375 67.492188 225.1875 C 67.378906 224.636719 67.324219 224.082031 67.324219 223.523438 L 67.324219 151.375 C 67.324219 150.816406 67.378906 150.261719 67.492188 149.710938 C 67.601562 149.160156 67.761719 148.628906 67.976562 148.109375 C 68.191406 147.59375 68.453125 147.101562 68.765625 146.632812 C 69.078125 146.167969 69.429688 145.738281 69.828125 145.339844 C 70.222656 144.945312 70.652344 144.589844 71.117188 144.277344 C 71.585938 143.96875 72.074219 143.703125 72.59375 143.488281 C 73.109375 143.273438 73.644531 143.113281 74.191406 143.003906 C 74.742188 142.894531 75.296875 142.839844 75.855469 142.835938 L 298.847656 142.835938 C 299.40625 142.839844 299.960938 142.894531 300.511719 143.003906 C 301.058594 143.113281 301.59375 143.273438 302.109375 143.488281 C 302.625 143.703125 303.117188 143.96875 303.582031 144.277344 C 304.050781 144.589844 304.480469 144.945312 304.875 145.339844 C 305.273438 145.738281 305.625 146.167969 305.9375 146.632812 C 306.246094 147.101562 306.511719 147.59375 306.726562 148.109375 C 306.941406 148.628906 307.101562 149.160156 307.210938 149.710938 C 307.320312 150.261719 307.375 150.816406 307.375 151.375 L 307.375 223.523438 C 307.375 224.082031 307.320312 224.636719 307.210938 225.1875 C 307.101562 225.734375 306.941406 226.269531 306.726562 226.789062 C 306.511719 227.304688 306.246094 227.796875 305.9375 228.261719 C 305.625 228.730469 305.269531 229.160156 304.875 229.554688 C 304.480469 229.953125 304.046875 230.304688 303.582031 230.617188 C 303.117188 230.929688 302.625 231.191406 302.109375 231.40625 C 301.59375 231.621094 301.058594 231.785156 300.507812 231.894531 C 299.960938 232.003906 299.40625 232.058594 298.847656 232.058594 Z M 75.855469 144.390625 C 75.398438 144.390625 74.945312 144.433594 74.492188 144.523438 C 74.042969 144.613281 73.609375 144.746094 73.183594 144.921875 C 72.761719 145.097656 72.359375 145.3125 71.976562 145.566406 C 71.597656 145.820312 71.246094 146.113281 70.921875 146.4375 C 70.597656 146.761719 70.308594 147.113281 70.050781 147.496094 C 69.796875 147.875 69.582031 148.277344 69.40625 148.703125 C 69.230469 149.125 69.101562 149.5625 69.011719 150.011719 C 68.921875 150.460938 68.875 150.917969 68.875 151.375 L 68.875 223.523438 C 68.875 223.980469 68.921875 224.433594 69.011719 224.882812 C 69.097656 225.335938 69.230469 225.769531 69.40625 226.195312 C 69.582031 226.617188 69.796875 227.019531 70.050781 227.402344 C 70.308594 227.785156 70.597656 228.136719 70.921875 228.460938 C 71.246094 228.785156 71.597656 229.074219 71.976562 229.328125 C 72.359375 229.585938 72.761719 229.800781 73.183594 229.976562 C 73.609375 230.152344 74.042969 230.285156 74.492188 230.375 C 74.945312 230.460938 75.398438 230.507812 75.855469 230.507812 L 298.847656 230.507812 C 299.304688 230.507812 299.757812 230.460938 300.207031 230.375 C 300.65625 230.285156 301.09375 230.152344 301.515625 229.976562 C 301.941406 229.800781 302.34375 229.585938 302.722656 229.328125 C 303.105469 229.074219 303.457031 228.785156 303.78125 228.460938 C 304.105469 228.136719 304.394531 227.785156 304.648438 227.402344 C 304.902344 227.019531 305.117188 226.617188 305.292969 226.195312 C 305.46875 225.769531 305.601562 225.335938 305.691406 224.882812 C 305.78125 224.433594 305.824219 223.980469 305.824219 223.523438 L 305.824219 151.375 C 305.824219 150.917969 305.78125 150.460938 305.691406 150.011719 C 305.601562 149.5625 305.46875 149.125 305.292969 148.703125 C 305.117188 148.277344 304.902344 147.875 304.648438 147.496094 C 304.394531 147.113281 304.105469 146.761719 303.78125 146.4375 C 303.457031 146.113281 303.105469 145.820312 302.722656 145.566406 C 302.34375 145.3125 301.941406 145.097656 301.515625 144.921875 C 301.09375 144.746094 300.65625 144.613281 300.207031 144.523438 C 299.757812 144.433594 299.304688 144.390625 298.847656 144.390625 Z M 75.855469 144.390625 " fill-opacity="1" fill-rule="nonzero"/></svg>