<svg xmlns="http://www.w3.org/2000/svg" xmlns:xlink="http://www.w3.org/1999/xlink" width="500" zoomAndPan="magnify" viewBox="0 0 375 374.999991" height="500" preserveAspectRatio="xMidYMid meet" version="1.0"><defs><clipPath id="05f721eef4"><path d="M 94 79.027344 L 281 79.027344 L 281 295.777344 L 94 295.777344 Z M 94 79.027344 " clip-rule="nonzero"/></clipPath><clipPath id="681c4fa5db"><path d="M 37.5 92 L 337.5 92 L 337.5 252 L 37.5 252 Z M 37.5 92 " clip-rule="nonzero"/></clipPath></defs><g clip-path="url(#05f721eef4)"><path fill="#afb2af" d="M 113.613281 360.191406 L 113.613281 379.296875 L 94.527344 379.296875 L 94.527344 360.191406 C 94.527344 359.828125 94.59375 359.480469 94.734375 359.144531 C 94.871094 358.8125 95.070312 358.515625 95.324219 358.257812 C 95.578125 358.003906 95.875 357.804688 96.210938 357.667969 C 96.542969 357.53125 96.890625 357.460938 97.253906 357.460938 L 98.617188 357.460938 L 98.617188 81.757812 C 98.617188 81.398438 98.683594 81.046875 98.824219 80.714844 C 98.960938 80.378906 99.160156 80.085938 99.414062 79.828125 C 99.671875 79.574219 99.964844 79.375 100.300781 79.238281 C 100.632812 79.097656 100.980469 79.027344 101.34375 79.027344 L 106.796875 79.027344 C 107.160156 79.027344 107.507812 79.097656 107.839844 79.238281 C 108.175781 79.375 108.46875 79.574219 108.726562 79.828125 C 108.980469 80.085938 109.175781 80.378906 109.316406 80.714844 C 109.453125 81.046875 109.523438 81.398438 109.523438 81.757812 L 109.523438 357.460938 L 110.886719 357.460938 C 111.25 357.460938 111.597656 357.53125 111.929688 357.667969 C 112.265625 357.804688 112.558594 358.003906 112.816406 358.257812 C 113.070312 358.515625 113.269531 358.8125 113.40625 359.144531 C 113.542969 359.480469 113.613281 359.828125 113.613281 360.191406 Z M 277.746094 357.460938 L 276.382812 357.460938 L 276.382812 81.757812 C 276.382812 81.398438 276.316406 81.046875 276.175781 80.714844 C 276.039062 80.378906 275.839844 80.085938 275.585938 79.828125 C 275.328125 79.574219 275.035156 79.375 274.699219 79.238281 C 274.367188 79.097656 274.019531 79.027344 273.65625 79.027344 L 268.203125 79.027344 C 267.839844 79.027344 267.492188 79.097656 267.160156 79.238281 C 266.824219 79.375 266.53125 79.574219 266.273438 79.828125 C 266.019531 80.085938 265.824219 80.378906 265.683594 80.714844 C 265.546875 81.046875 265.476562 81.398438 265.476562 81.757812 L 265.476562 357.460938 L 264.113281 357.460938 C 263.75 357.460938 263.402344 357.53125 263.070312 357.667969 C 262.734375 357.804688 262.441406 358.003906 262.183594 358.257812 C 261.929688 358.515625 261.730469 358.8125 261.59375 359.144531 C 261.457031 359.480469 261.386719 359.828125 261.386719 360.191406 L 261.386719 379.296875 L 280.472656 379.296875 L 280.472656 360.191406 C 280.472656 359.828125 280.40625 359.480469 280.265625 359.144531 C 280.128906 358.8125 279.929688 358.515625 279.675781 358.257812 C 279.421875 358.003906 279.125 357.804688 278.789062 357.667969 C 278.457031 357.53125 278.109375 357.460938 277.746094 357.460938 Z M 277.746094 357.460938 " fill-opacity="1" fill-rule="nonzero"/></g><g clip-path="url(#681c4fa5db)"><path fill="#06873d" d="M 337.476562 112 L 337.476562 232.34375 C 337.476562 232.972656 337.449219 233.59375 337.386719 234.21875 C 337.324219 234.839844 337.234375 235.457031 337.113281 236.074219 C 336.988281 236.6875 336.839844 237.292969 336.65625 237.890625 C 336.476562 238.492188 336.265625 239.078125 336.023438 239.65625 C 335.785156 240.234375 335.519531 240.800781 335.222656 241.351562 C 334.929688 241.902344 334.609375 242.441406 334.261719 242.960938 C 333.914062 243.480469 333.542969 243.984375 333.144531 244.46875 C 332.75 244.949219 332.328125 245.414062 331.886719 245.855469 C 331.445312 246.296875 330.984375 246.71875 330.5 247.117188 C 330.015625 247.511719 329.515625 247.886719 328.996094 248.234375 C 328.476562 248.582031 327.941406 248.902344 327.386719 249.195312 C 326.835938 249.492188 326.273438 249.757812 325.695312 250 C 325.117188 250.238281 324.53125 250.449219 323.929688 250.628906 C 323.332031 250.8125 322.726562 250.964844 322.113281 251.085938 C 321.5 251.207031 320.882812 251.300781 320.261719 251.359375 C 319.640625 251.421875 319.015625 251.453125 318.390625 251.453125 L 56.609375 251.453125 C 55.984375 251.453125 55.359375 251.421875 54.738281 251.359375 C 54.117188 251.300781 53.5 251.207031 52.886719 251.085938 C 52.273438 250.964844 51.667969 250.8125 51.070312 250.628906 C 50.46875 250.449219 49.882812 250.238281 49.304688 250 C 48.726562 249.757812 48.164062 249.492188 47.613281 249.195312 C 47.058594 248.902344 46.523438 248.582031 46.003906 248.234375 C 45.484375 247.886719 44.984375 247.511719 44.5 247.117188 C 44.015625 246.71875 43.554688 246.296875 43.113281 245.855469 C 42.671875 245.414062 42.25 244.949219 41.855469 244.46875 C 41.457031 243.984375 41.085938 243.480469 40.738281 242.960938 C 40.390625 242.441406 40.070312 241.902344 39.777344 241.351562 C 39.480469 240.800781 39.214844 240.234375 38.976562 239.65625 C 38.734375 239.078125 38.523438 238.492188 38.34375 237.890625 C 38.160156 237.292969 38.011719 236.6875 37.886719 236.074219 C 37.765625 235.457031 37.675781 234.839844 37.613281 234.21875 C 37.550781 233.59375 37.523438 232.972656 37.523438 232.34375 L 37.523438 112 C 37.523438 111.371094 37.550781 110.75 37.613281 110.125 C 37.675781 109.503906 37.765625 108.882812 37.886719 108.269531 C 38.011719 107.65625 38.164062 107.050781 38.34375 106.453125 C 38.523438 105.851562 38.734375 105.265625 38.976562 104.6875 C 39.214844 104.109375 39.480469 103.542969 39.777344 102.992188 C 40.070312 102.4375 40.390625 101.902344 40.738281 101.382812 C 41.085938 100.863281 41.457031 100.359375 41.855469 99.875 C 42.25 99.394531 42.671875 98.929688 43.113281 98.488281 C 43.554688 98.042969 44.015625 97.625 44.5 97.226562 C 44.984375 96.832031 45.484375 96.457031 46.003906 96.109375 C 46.523438 95.761719 47.058594 95.441406 47.613281 95.148438 C 48.164062 94.851562 48.726562 94.585938 49.304688 94.34375 C 49.882812 94.105469 50.46875 93.894531 51.070312 93.714844 C 51.667969 93.53125 52.273438 93.378906 52.886719 93.257812 C 53.5 93.136719 54.117188 93.042969 54.738281 92.984375 C 55.359375 92.921875 55.984375 92.890625 56.609375 92.890625 L 318.390625 92.890625 C 319.015625 92.890625 319.640625 92.921875 320.261719 92.984375 C 320.882812 93.042969 321.5 93.136719 322.113281 93.257812 C 322.726562 93.378906 323.332031 93.53125 323.929688 93.714844 C 324.53125 93.894531 325.117188 94.105469 325.695312 94.34375 C 326.273438 94.585938 326.835938 94.851562 327.386719 95.148438 C 327.941406 95.441406 328.476562 95.761719 328.996094 96.109375 C 329.515625 96.457031 330.015625 96.832031 330.5 97.226562 C 330.984375 97.625 331.445312 98.042969 331.886719 98.488281 C 332.328125 98.929688 332.75 99.394531 333.144531 99.875 C 333.542969 100.359375 333.914062 100.863281 334.261719 101.382812 C 334.609375 101.902344 334.929688 102.4375 335.222656 102.992188 C 335.519531 103.542969 335.785156 104.109375 336.023438 104.6875 C 336.265625 105.265625 336.476562 105.851562 336.65625 106.453125 C 336.839844 107.050781 336.988281 107.65625 337.113281 108.269531 C 337.234375 108.882812 337.324219 109.503906 337.386719 110.125 C 337.449219 110.75 337.476562 111.371094 337.476562 112 Z M 337.476562 112 " fill-opacity="1" fill-rule="nonzero"/></g><path fill="#ffffff" d="M 316.183594 245.832031 L 58.816406 245.832031 C 57.785156 245.832031 56.765625 245.730469 55.757812 245.527344 C 54.75 245.328125 53.769531 245.027344 52.816406 244.632812 C 51.867188 244.238281 50.964844 243.753906 50.109375 243.183594 C 49.253906 242.609375 48.460938 241.960938 47.734375 241.230469 C 47.007812 240.503906 46.355469 239.710938 45.785156 238.855469 C 45.210938 237.996094 44.730469 237.09375 44.335938 236.140625 C 43.941406 235.191406 43.640625 234.210938 43.441406 233.199219 C 43.238281 232.1875 43.136719 231.167969 43.136719 230.136719 L 43.136719 114.207031 C 43.136719 113.175781 43.238281 112.15625 43.441406 111.144531 C 43.640625 110.136719 43.941406 109.15625 44.335938 108.203125 C 44.730469 107.25 45.210938 106.347656 45.785156 105.492188 C 46.355469 104.632812 47.007812 103.84375 47.734375 103.113281 C 48.460938 102.386719 49.253906 101.734375 50.109375 101.160156 C 50.964844 100.589844 51.867188 100.105469 52.820312 99.710938 C 53.769531 99.316406 54.75 99.019531 55.757812 98.816406 C 56.765625 98.613281 57.785156 98.511719 58.816406 98.511719 L 316.183594 98.511719 C 317.214844 98.511719 318.234375 98.613281 319.242188 98.816406 C 320.25 99.019531 321.230469 99.316406 322.179688 99.710938 C 323.132812 100.105469 324.035156 100.589844 324.890625 101.160156 C 325.746094 101.734375 326.539062 102.386719 327.265625 103.113281 C 327.992188 103.84375 328.644531 104.632812 329.214844 105.492188 C 329.789062 106.347656 330.269531 107.25 330.664062 108.203125 C 331.058594 109.15625 331.359375 110.136719 331.558594 111.144531 C 331.761719 112.15625 331.863281 113.175781 331.863281 114.207031 L 331.863281 230.136719 C 331.863281 231.167969 331.761719 232.1875 331.558594 233.199219 C 331.359375 234.210938 331.058594 235.191406 330.664062 236.140625 C 330.269531 237.09375 329.789062 237.996094 329.214844 238.855469 C 328.644531 239.710938 327.992188 240.503906 327.265625 241.230469 C 326.539062 241.960938 325.746094 242.609375 324.890625 243.183594 C 324.035156 243.753906 323.132812 244.238281 322.183594 244.632812 C 321.230469 245.027344 320.25 245.328125 319.242188 245.527344 C 318.234375 245.730469 317.214844 245.832031 316.183594 245.832031 Z M 58.816406 99.875 C 57.875 99.875 56.945312 99.96875 56.023438 100.152344 C 55.101562 100.339844 54.207031 100.609375 53.339844 100.972656 C 52.472656 101.332031 51.648438 101.773438 50.867188 102.296875 C 50.085938 102.820312 49.363281 103.414062 48.699219 104.078125 C 48.03125 104.742188 47.441406 105.464844 46.917969 106.25 C 46.394531 107.03125 45.953125 107.855469 45.59375 108.726562 C 45.234375 109.59375 44.960938 110.488281 44.777344 111.410156 C 44.59375 112.335938 44.5 113.265625 44.5 114.207031 L 44.5 230.136719 C 44.5 231.078125 44.59375 232.011719 44.777344 232.933594 C 44.960938 233.855469 45.234375 234.75 45.59375 235.621094 C 45.953125 236.488281 46.394531 237.3125 46.917969 238.097656 C 47.441406 238.878906 48.03125 239.601562 48.699219 240.265625 C 49.363281 240.933594 50.085938 241.527344 50.867188 242.046875 C 51.648438 242.570312 52.472656 243.011719 53.339844 243.375 C 54.207031 243.734375 55.101562 244.007812 56.023438 244.191406 C 56.945312 244.375 57.875 244.46875 58.816406 244.46875 L 316.183594 244.46875 C 317.125 244.46875 318.054688 244.375 318.976562 244.191406 C 319.898438 244.007812 320.792969 243.734375 321.660156 243.375 C 322.527344 243.011719 323.351562 242.570312 324.132812 242.046875 C 324.914062 241.527344 325.636719 240.933594 326.300781 240.265625 C 326.96875 239.601562 327.558594 238.878906 328.082031 238.097656 C 328.605469 237.3125 329.046875 236.488281 329.40625 235.621094 C 329.765625 234.75 330.039062 233.855469 330.222656 232.933594 C 330.40625 232.011719 330.5 231.078125 330.5 230.136719 L 330.5 114.207031 C 330.5 113.265625 330.40625 112.335938 330.222656 111.410156 C 330.039062 110.488281 329.765625 109.59375 329.40625 108.726562 C 329.046875 107.855469 328.605469 107.03125 328.082031 106.25 C 327.558594 105.464844 326.96875 104.742188 326.300781 104.078125 C 325.636719 103.414062 324.914062 102.820312 324.132812 102.296875 C 323.351562 101.773438 322.527344 101.332031 321.660156 100.972656 C 320.792969 100.609375 319.898438 100.339844 318.976562 100.152344 C 318.054688 99.96875 317.125 99.875 316.183594 99.875 Z M 58.816406 99.875 " fill-opacity="1" fill-rule="nonzero"/></svg>