<svg width="50" height="51" viewBox="0 0 50 51" fill="none" xmlns="http://www.w3.org/2000/svg">
<path d="M39.5161 5.45363C45.8669 9.98992 50 17.4093 50 25.8064C50 39.5968 38.8306 50.7762 25.0504 50.8064C11.2903 50.8367 0.0201797 39.6169 1.83988e-05 25.8468C-0.0100622 17.4496 4.123 10.0101 10.4637 5.46371C11.6432 4.62701 13.2863 4.97984 13.9919 6.23992L15.5847 9.07258C16.1794 10.131 15.8972 11.4718 14.9194 12.1976C10.7359 15.3024 8.06453 20.2218 8.06453 25.7964C8.05445 35.1008 15.5746 42.7419 25 42.7419C34.2339 42.7419 41.996 35.2621 41.9355 25.6956C41.9052 20.4738 39.4456 15.4335 35.0706 12.1875C34.0927 11.4617 33.8206 10.121 34.4153 9.07258L36.0081 6.23992C36.7137 4.98992 38.3468 4.61693 39.5161 5.45363ZM29.0323 26.6129V2.41935C29.0323 1.07863 27.9536 0 26.6129 0H23.3871C22.0464 0 20.9678 1.07863 20.9678 2.41935V26.6129C20.9678 27.9536 22.0464 29.0322 23.3871 29.0322H26.6129C27.9536 29.0322 29.0323 27.9536 29.0323 26.6129Z" fill="white"/>
</svg>
