<svg xmlns="http://www.w3.org/2000/svg" xmlns:xlink="http://www.w3.org/1999/xlink" width="500" zoomAndPan="magnify" viewBox="0 0 375 374.999991" height="500" preserveAspectRatio="xMidYMid meet" version="1.0"><defs><clipPath id="6eabe9574d"><path d="M 37.5 74.589844 L 337.5 74.589844 L 337.5 300.339844 L 37.5 300.339844 Z M 37.5 74.589844 " clip-rule="nonzero"/></clipPath><clipPath id="0f51aee24f"><path d="M 37.5 74.589844 L 337.5 74.589844 L 337.5 300.339844 L 37.5 300.339844 Z M 37.5 74.589844 " clip-rule="nonzero"/></clipPath></defs><g clip-path="url(#6eabe9574d)"><path fill="#ffffff" d="M 87.460938 300.191406 C 87.417969 300.191406 87.375 300.1875 87.335938 300.175781 L 81.128906 298.382812 C 80.941406 298.328125 80.808594 298.148438 80.808594 297.953125 L 80.808594 289.804688 L 66.039062 294.011719 C 66 294.023438 65.960938 294.027344 65.917969 294.027344 C 65.902344 294.027344 65.875 294.023438 65.84375 294.015625 L 65.78125 294.003906 L 38.226562 286.136719 C 38.101562 286.097656 37.996094 286.007812 37.941406 285.886719 C 37.910156 285.816406 37.898438 285.734375 37.90625 285.65625 L 37.902344 279.972656 C 37.902344 279.777344 38.035156 279.597656 38.226562 279.542969 L 53.0625 275.308594 L 53.0625 242.953125 C 53.0625 242.917969 53.070312 242.878906 53.082031 242.828125 C 53.109375 242.761719 53.121094 242.734375 53.140625 242.707031 C 53.183594 242.644531 53.210938 242.617188 53.238281 242.597656 C 53.300781 242.5625 53.332031 242.546875 53.367188 242.535156 L 53.386719 242.527344 L 53.417969 242.511719 L 59.589844 240.730469 C 59.628906 240.71875 59.671875 240.714844 59.710938 240.714844 C 59.753906 240.714844 59.796875 240.71875 59.835938 240.730469 L 66.042969 242.527344 C 66.09375 242.546875 66.125 242.5625 66.152344 242.578125 L 66.210938 242.613281 C 66.214844 242.617188 66.238281 242.644531 66.265625 242.679688 C 66.300781 242.734375 66.316406 242.761719 66.328125 242.792969 C 66.355469 242.878906 66.363281 242.917969 66.363281 242.953125 L 66.363281 245.339844 L 66.691406 245.160156 C 69.695312 243.546875 72.714844 241.761719 75.667969 239.851562 L 75.898438 239.699219 C 79.949219 237.066406 83.992188 234.128906 87.910156 230.96875 L 87.941406 230.941406 L 87.964844 230.902344 C 88.019531 230.800781 88.109375 230.726562 88.21875 230.691406 L 88.257812 230.679688 L 88.292969 230.652344 C 92.300781 227.398438 96.308594 223.8125 100.199219 219.996094 L 100.238281 219.957031 L 100.253906 219.898438 C 100.300781 219.75 100.414062 219.636719 100.5625 219.59375 L 100.617188 219.578125 L 100.660156 219.539062 C 104.65625 215.59375 108.644531 211.285156 112.519531 206.742188 L 112.5625 206.691406 L 112.570312 206.625 C 112.59375 206.449219 112.71875 206.300781 112.890625 206.253906 L 112.953125 206.234375 L 113 206.183594 C 117.011719 201.445312 121 196.339844 124.851562 191.007812 L 124.894531 190.949219 L 124.894531 190.878906 C 124.894531 190.691406 125.015625 190.523438 125.195312 190.457031 L 125.261719 190.4375 L 125.300781 190.378906 C 133.660156 178.742188 141.8125 165.464844 149.527344 150.910156 L 149.554688 150.859375 L 149.554688 150.804688 C 149.554688 150.648438 149.628906 150.511719 149.753906 150.429688 L 149.800781 150.398438 L 149.828125 150.347656 C 153.898438 142.636719 157.949219 134.382812 161.863281 125.8125 L 161.882812 125.769531 L 161.882812 125.324219 C 161.882812 125.132812 162.011719 124.960938 162.195312 124.902344 L 162.292969 124.871094 L 162.332031 124.78125 C 166.382812 115.859375 170.375 106.410156 174.199219 96.6875 L 174.214844 96.648438 L 174.214844 96.609375 C 174.214844 96.488281 174.257812 96.378906 174.335938 96.292969 L 174.363281 96.261719 L 174.378906 96.222656 C 175.316406 93.839844 176.238281 91.449219 177.121094 89.125 L 177.132812 89.085938 L 177.132812 77.054688 C 177.132812 77.019531 177.140625 76.976562 177.15625 76.925781 C 177.179688 76.863281 177.195312 76.835938 177.214844 76.808594 C 177.257812 76.746094 177.285156 76.71875 177.3125 76.699219 C 177.375 76.660156 177.40625 76.648438 177.4375 76.636719 L 177.460938 76.628906 L 177.492188 76.613281 L 183.660156 74.832031 C 183.703125 74.820312 183.742188 74.8125 183.785156 74.8125 C 183.828125 74.8125 183.867188 74.820312 183.910156 74.832031 L 217.859375 84.449219 C 217.910156 84.472656 217.941406 84.484375 217.972656 84.503906 L 218.03125 84.539062 C 218.03125 84.542969 218.058594 84.570312 218.085938 84.605469 C 218.121094 84.65625 218.136719 84.6875 218.148438 84.71875 C 218.175781 84.800781 218.183594 84.839844 218.183594 84.878906 L 218.183594 92.261719 L 219.371094 93.703125 C 238.820312 117.3125 268.214844 152.996094 298.148438 172.570312 L 298.234375 172.628906 L 302.574219 171.371094 C 302.613281 171.359375 302.65625 171.355469 302.699219 171.355469 C 302.742188 171.355469 302.78125 171.359375 302.824219 171.371094 L 309.027344 173.167969 C 309.078125 173.1875 309.109375 173.203125 309.140625 173.222656 C 309.171875 173.242188 309.1875 173.25 309.199219 173.253906 C 309.199219 173.257812 309.226562 173.285156 309.253906 173.320312 C 309.289062 173.375 309.304688 173.40625 309.316406 173.433594 C 309.34375 173.519531 309.351562 173.558594 309.351562 173.59375 L 309.351562 177.824219 L 323.792969 182 L 323.792969 181.421875 C 323.792969 181.382812 323.800781 181.34375 323.816406 181.292969 C 323.839844 181.230469 323.855469 181.199219 323.875 181.171875 C 323.917969 181.109375 323.945312 181.085938 323.972656 181.0625 C 324.035156 181.027344 324.066406 181.011719 324.097656 181 L 324.121094 180.996094 L 324.152344 180.976562 L 330.320312 179.199219 C 330.363281 179.1875 330.402344 179.179688 330.445312 179.179688 C 330.488281 179.179688 330.527344 179.1875 330.570312 179.199219 L 336.773438 180.992188 C 336.824219 181.011719 336.855469 181.027344 336.886719 181.046875 C 336.917969 181.066406 336.933594 181.074219 336.945312 181.082031 C 336.945312 181.085938 336.972656 181.109375 337 181.144531 C 337.035156 181.199219 337.050781 181.230469 337.0625 181.261719 C 337.089844 181.34375 337.097656 181.382812 337.097656 181.421875 L 337.097656 232.660156 C 337.097656 232.855469 336.964844 233.035156 336.773438 233.089844 L 330.570312 234.882812 C 330.527344 234.894531 330.488281 234.898438 330.445312 234.898438 C 330.402344 234.898438 330.363281 234.894531 330.320312 234.882812 L 324.117188 233.089844 C 323.925781 233.035156 323.792969 232.855469 323.792969 232.660156 L 323.792969 220.554688 L 309.351562 224.671875 L 309.347656 224.839844 C 309.347656 225.039062 309.21875 225.207031 309.027344 225.261719 L 302.824219 227.054688 C 302.78125 227.070312 302.742188 227.074219 302.699219 227.074219 C 302.65625 227.074219 302.613281 227.070312 302.574219 227.054688 L 301.785156 226.828125 L 218.183594 250.652344 L 218.183594 265.640625 C 218.183594 265.839844 218.050781 266.015625 217.859375 266.070312 L 211.65625 267.863281 C 211.617188 267.875 211.574219 267.882812 211.53125 267.882812 C 211.492188 267.882812 211.449219 267.875 211.40625 267.863281 L 205.203125 266.070312 C 205.015625 266.015625 204.882812 265.839844 204.882812 265.640625 L 204.882812 254.445312 L 94.109375 286.011719 L 94.109375 297.953125 C 94.109375 298.148438 93.976562 298.328125 93.789062 298.382812 L 87.582031 300.175781 C 87.542969 300.1875 87.5 300.191406 87.460938 300.191406 Z M 75.230469 241.164062 C 72.347656 243.003906 69.40625 244.726562 66.480469 246.28125 L 66.363281 246.34375 L 66.363281 271.5 L 75.574219 268.871094 L 75.574219 240.941406 Z M 87.542969 232.320312 C 83.929688 235.207031 80.238281 237.890625 76.570312 240.296875 L 76.46875 240.363281 L 76.46875 268.613281 L 80.808594 267.375 L 80.808594 250.78125 C 80.808594 250.742188 80.816406 250.703125 80.832031 250.652344 C 80.855469 250.589844 80.871094 250.558594 80.890625 250.53125 C 80.933594 250.472656 80.957031 250.445312 80.984375 250.421875 C 81.046875 250.386719 81.082031 250.371094 81.113281 250.359375 L 81.132812 250.355469 L 81.164062 250.335938 L 87.335938 248.558594 C 87.375 248.546875 87.417969 248.539062 87.460938 248.539062 C 87.5 248.539062 87.542969 248.546875 87.582031 248.558594 L 87.867188 248.640625 L 87.90625 248.351562 L 87.90625 232.03125 Z M 97.488281 252.3125 C 96.488281 252.886719 95.421875 253.472656 94.230469 254.105469 L 94.109375 254.167969 L 94.109375 263.574219 L 97.824219 262.511719 L 97.824219 252.125 Z M 99.898438 250.902344 C 99.539062 251.113281 99.183594 251.324219 98.828125 251.535156 L 98.714844 251.601562 L 98.714844 262.257812 L 100.234375 261.824219 L 100.234375 250.699219 Z M 109.796875 244.335938 C 106.976562 246.386719 104.097656 248.320312 101.234375 250.085938 L 101.128906 250.152344 L 101.128906 261.570312 L 110.152344 258.992188 L 110.152344 244.078125 Z M 112.207031 242.550781 C 111.933594 242.757812 111.65625 242.960938 111.382812 243.167969 L 111.046875 243.417969 L 111.046875 258.734375 L 112.566406 258.300781 L 112.566406 242.277344 Z M 122.109375 234.378906 C 119.292969 236.890625 116.414062 239.292969 113.546875 241.519531 L 113.457031 241.585938 L 113.457031 258.046875 L 122.480469 255.46875 L 122.480469 234.046875 Z M 124.519531 232.1875 C 124.164062 232.515625 123.804688 232.84375 123.449219 233.171875 L 123.375 233.238281 L 123.375 255.210938 L 124.894531 254.777344 L 124.894531 231.839844 Z M 134.425781 222.285156 C 131.613281 225.304688 128.730469 228.210938 125.859375 230.929688 L 125.789062 230.996094 L 125.789062 254.523438 L 134.8125 251.945312 L 134.8125 221.871094 Z M 99.855469 221.433594 C 96.226562 224.957031 92.535156 228.257812 88.882812 231.246094 L 88.800781 231.3125 L 88.800781 248.910156 L 93.789062 250.351562 C 93.839844 250.371094 93.871094 250.386719 93.898438 250.40625 L 93.957031 250.4375 C 93.960938 250.445312 93.988281 250.472656 94.015625 250.503906 C 94.050781 250.558594 94.0625 250.589844 94.074219 250.617188 C 94.101562 250.703125 94.109375 250.742188 94.109375 250.78125 L 94.109375 253.164062 L 94.4375 252.988281 C 95.546875 252.390625 96.679688 251.757812 97.90625 251.046875 L 97.929688 251.035156 L 97.953125 251.011719 C 98.003906 250.957031 98.074219 250.917969 98.152344 250.898438 L 98.179688 250.890625 L 98.203125 250.875 C 98.847656 250.5 99.488281 250.121094 100.128906 249.730469 L 100.234375 249.667969 L 100.234375 221.066406 Z M 136.835938 219.65625 C 136.476562 220.054688 136.121094 220.445312 135.761719 220.835938 L 135.707031 220.898438 L 135.707031 251.691406 L 137.222656 251.253906 L 137.222656 219.222656 Z M 146.742188 207.871094 C 143.945312 211.425781 141.0625 214.882812 138.175781 218.152344 L 138.117188 218.214844 L 138.117188 251 L 147.140625 248.421875 L 147.140625 207.363281 Z M 112.171875 208.328125 C 108.558594 212.519531 104.867188 216.484375 101.195312 220.125 L 101.128906 220.1875 L 101.128906 249.121094 L 101.46875 248.910156 C 104.378906 247.097656 107.316406 245.105469 110.195312 242.992188 L 110.222656 242.972656 L 110.242188 242.945312 C 110.292969 242.875 110.367188 242.824219 110.453125 242.792969 L 110.484375 242.78125 L 110.507812 242.761719 C 111.167969 242.277344 111.824219 241.785156 112.476562 241.285156 L 112.566406 241.214844 L 112.566406 207.875 Z M 149.152344 204.761719 C 148.898438 205.101562 148.636719 205.433594 148.378906 205.765625 L 148.035156 206.210938 L 148.035156 248.167969 L 149.554688 247.734375 L 149.554688 204.234375 Z M 159.0625 190.886719 C 158.308594 192.011719 157.550781 193.128906 156.789062 194.230469 C 154.757812 197.171875 152.640625 200.117188 150.492188 202.984375 L 150.449219 203.042969 L 150.449219 247.476562 L 159.472656 244.898438 L 159.472656 190.277344 Z M 161.214844 187.632812 C 160.945312 188.050781 160.671875 188.464844 160.402344 188.878906 L 160.363281 188.933594 L 160.363281 244.644531 L 161.882812 244.210938 L 161.882812 186.605469 Z M 171.382812 171.039062 C 168.582031 175.902344 165.699219 180.65625 162.8125 185.160156 L 162.777344 185.214844 L 162.777344 243.953125 L 171.800781 241.375 L 171.800781 170.316406 Z M 173.796875 166.792969 C 173.4375 167.429688 173.082031 168.066406 172.722656 168.699219 L 172.695312 168.75 L 172.695312 241.121094 L 174.214844 240.6875 L 174.214844 166.042969 Z M 124.492188 192.800781 C 120.882812 197.730469 117.1875 202.429688 113.511719 206.769531 L 113.457031 206.832031 L 113.457031 240.53125 L 113.820312 240.25 C 117.507812 237.367188 121.207031 234.191406 124.824219 230.808594 L 124.894531 230.742188 L 124.894531 192.25 Z M 176.714844 161.484375 C 176.191406 162.453125 175.664062 163.417969 175.136719 164.378906 L 175.109375 164.429688 L 175.109375 240.433594 L 177.132812 239.851562 L 177.132812 161.589844 Z M 190.4375 236.050781 L 196.460938 234.332031 L 196.460938 205.289062 L 190.4375 203.546875 Z M 197.355469 234.074219 L 203.167969 232.414062 L 203.167969 207.226562 L 197.355469 205.546875 Z M 204.0625 232.160156 L 204.882812 231.925781 L 204.882812 207.722656 L 204.0625 207.484375 Z M 136.8125 174.578125 C 134.230469 178.699219 131.617188 182.675781 129.042969 186.40625 C 128.054688 187.835938 127.003906 189.324219 125.832031 190.957031 L 125.789062 191.015625 L 125.789062 229.902344 L 126.167969 229.542969 C 129.042969 226.792969 131.9375 223.84375 134.765625 220.777344 L 134.808594 220.730469 L 134.820312 220.667969 C 134.851562 220.5 134.976562 220.363281 135.144531 220.320312 L 135.207031 220.300781 L 135.25 220.253906 C 135.890625 219.554688 136.53125 218.84375 137.167969 218.128906 L 137.222656 218.066406 L 137.222656 173.921875 Z M 218.183594 228.125 L 230.417969 224.628906 L 230.421875 131.601562 L 230.355469 131.535156 C 226.558594 127.617188 222.59375 123.371094 218.574219 118.910156 L 218.183594 118.476562 Z M 231.808594 224.230469 L 244.046875 220.734375 L 244.046875 144.921875 L 243.972656 144.855469 C 240.164062 141.34375 236.203125 137.496094 232.191406 133.414062 L 231.808594 133.023438 Z M 245.433594 220.339844 L 257.671875 216.84375 L 257.671875 156.617188 L 257.585938 156.546875 C 253.769531 153.523438 249.808594 150.152344 245.808594 146.53125 L 245.433594 146.191406 Z M 149.132812 153.347656 C 145.539062 160.015625 141.835938 166.449219 138.128906 172.460938 L 138.078125 172.542969 L 138.101562 172.632812 C 138.113281 172.675781 138.117188 172.710938 138.117188 172.742188 L 138.117188 217.050781 L 138.511719 216.605469 C 141.417969 213.277344 144.304688 209.769531 147.097656 206.179688 L 147.140625 206.121094 L 147.144531 206.050781 C 147.152344 205.867188 147.277344 205.703125 147.453125 205.648438 L 147.519531 205.628906 L 147.5625 205.570312 C 148.214844 204.730469 148.863281 203.878906 149.507812 203.019531 L 149.554688 202.957031 L 149.554688 153.453125 Z M 259.058594 216.445312 L 271.296875 212.949219 L 271.296875 166.382812 L 271.195312 166.316406 C 267.398438 163.894531 263.4375 161.089844 259.421875 157.984375 L 259.058594 157.707031 Z M 272.6875 212.550781 L 284.921875 209.054688 L 284.921875 173.835938 L 284.792969 173.777344 C 280.976562 172.046875 277.019531 169.925781 273.027344 167.46875 L 272.6875 167.257812 Z M 286.3125 208.660156 L 296.046875 205.878906 L 296.046875 177.871094 L 295.882812 177.824219 C 292.882812 177.011719 289.765625 175.917969 286.621094 174.582031 L 286.3125 174.449219 Z M 313.5625 203.574219 L 323.792969 206.59375 L 323.792969 199.300781 L 313.5625 196.34375 Z M 309.351562 202.332031 L 312.667969 203.3125 L 312.667969 196.085938 L 309.351562 195.125 Z M 204.0625 202.769531 L 204.882812 203.007812 L 204.882812 170.15625 L 204.0625 169.917969 Z M 197.355469 200.832031 L 203.167969 202.511719 L 203.167969 169.660156 L 197.355469 167.980469 Z M 161.457031 128.71875 C 157.90625 136.355469 154.210938 143.800781 150.472656 150.84375 L 150.449219 150.894531 L 150.449219 201.769531 L 150.851562 201.222656 C 153.722656 197.339844 156.613281 193.207031 159.433594 188.9375 L 159.472656 188.882812 L 159.472656 188.816406 C 159.472656 188.617188 159.582031 188.453125 159.753906 188.386719 L 159.820312 188.359375 L 159.859375 188.300781 C 160.523438 187.289062 161.1875 186.265625 161.847656 185.234375 L 161.882812 185.179688 L 161.882812 128.8125 Z M 190.4375 198.832031 L 196.460938 200.574219 L 196.460938 167.722656 L 190.4375 165.980469 Z M 313.5625 192.082031 L 323.792969 195.039062 L 323.792969 186.710938 L 313.5625 183.753906 Z M 309.351562 190.863281 L 312.667969 191.824219 L 312.667969 183.496094 L 309.351562 182.535156 Z M 173.785156 100.136719 C 170.238281 108.992188 166.542969 117.632812 162.796875 125.816406 L 162.777344 125.859375 L 162.777344 183.78125 L 163.191406 183.125 C 166.070312 178.5625 168.957031 173.730469 171.773438 168.769531 L 171.800781 168.71875 L 171.800781 168.660156 C 171.800781 168.484375 171.886719 168.339844 172.027344 168.257812 L 172.082031 168.226562 L 172.109375 168.171875 C 172.804688 166.945312 173.496094 165.703125 174.1875 164.453125 L 174.214844 164.402344 L 174.214844 100.21875 Z M 286.3125 173.480469 L 286.445312 173.539062 C 289.609375 174.910156 292.746094 176.03125 295.765625 176.867188 L 296.046875 176.949219 L 296.046875 173.59375 C 296.046875 173.558594 296.054688 173.519531 296.070312 173.46875 C 296.09375 173.40625 296.109375 173.375 296.128906 173.347656 C 296.171875 173.285156 296.199219 173.257812 296.226562 173.238281 C 296.289062 173.203125 296.320312 173.1875 296.351562 173.175781 L 296.371094 173.167969 L 296.402344 173.152344 L 296.648438 173.085938 L 297.109375 172.953125 L 296.707031 172.6875 C 293.460938 170.523438 290.082031 168.078125 286.671875 165.425781 L 286.3125 165.144531 Z M 272.6875 166.210938 L 272.792969 166.277344 C 276.988281 168.894531 281.132812 171.140625 285.101562 172.941406 L 285.417969 173.085938 L 285.417969 164.441406 L 285.332031 164.375 C 281.339844 161.210938 277.210938 157.6875 273.058594 153.910156 L 272.6875 153.570312 Z M 259.058594 156.582031 L 259.144531 156.648438 C 263.355469 159.941406 267.496094 162.894531 271.449219 165.429688 L 271.792969 165.648438 L 271.792969 152.746094 L 271.71875 152.679688 C 267.753906 149.023438 263.621094 145.003906 259.445312 140.734375 L 259.058594 140.34375 Z M 204.0625 165.207031 L 204.882812 165.441406 L 204.882812 132.589844 L 204.0625 132.351562 Z M 197.355469 163.265625 L 203.167969 164.945312 L 203.167969 132.09375 L 197.355469 130.414062 Z M 192.542969 129.222656 C 191.851562 130.769531 191.15625 132.308594 190.457031 133.832031 L 190.4375 133.875 L 190.4375 161.265625 L 196.460938 163.007812 L 196.460938 130.15625 L 192.621094 129.042969 Z M 176.703125 92.710938 C 176.179688 94.070312 175.652344 95.417969 175.125 96.761719 L 175.109375 96.800781 L 175.109375 161.890625 L 175.527344 161.996094 C 176.054688 161.019531 176.582031 160.035156 177.109375 159.046875 L 177.132812 158.996094 L 177.132812 92.792969 Z M 245.433594 144.992188 L 245.507812 145.058594 C 249.683594 148.875 253.820312 152.417969 257.804688 155.589844 L 258.167969 155.878906 L 258.167969 139.425781 L 258.105469 139.359375 C 254.148438 135.28125 250.015625 130.847656 245.824219 126.183594 L 245.433594 125.75 Z M 231.808594 131.753906 L 231.871094 131.816406 C 236.0625 136.113281 240.199219 140.152344 244.164062 143.824219 L 244.539062 144.171875 L 244.539062 124.75 L 244.484375 124.6875 C 240.585938 120.320312 236.570312 115.6875 232.203125 110.527344 L 231.808594 110.0625 Z M 190.4375 130.785156 L 190.863281 130.878906 C 191.0625 130.4375 191.683594 129.039062 191.683594 129.039062 L 191.789062 128.804688 L 190.4375 128.414062 Z M 218.183594 117.140625 L 218.242188 117.203125 C 222.441406 121.890625 226.574219 126.339844 230.53125 130.433594 L 230.914062 130.832031 L 230.914062 109 L 230.863281 108.9375 C 226.449219 103.699219 222.320312 98.691406 218.683594 94.269531 L 218.183594 93.664062 Z M 204.0625 127.640625 L 204.882812 127.875 L 204.882812 103.203125 L 204.0625 102.234375 Z M 202.738281 104.921875 C 200.996094 109.339844 199.1875 113.769531 197.371094 118.085938 L 197.355469 118.125 L 197.355469 125.699219 L 203.167969 127.378906 L 203.167969 105.003906 Z M 196.03125 121.238281 C 195.546875 122.375 195.054688 123.503906 194.566406 124.628906 L 194.464844 124.863281 L 196.460938 125.441406 L 196.460938 121.324219 Z M 194.242188 91.152344 C 194.242188 91.355469 194.101562 91.53125 193.90625 91.585938 L 190.4375 92.496094 L 190.4375 123.699219 L 193.628906 124.621094 L 193.707031 124.441406 C 194.589844 122.414062 195.511719 120.257812 196.449219 118.027344 L 196.460938 117.992188 L 196.464844 117.957031 C 196.472656 117.859375 196.511719 117.769531 196.574219 117.695312 L 196.597656 117.667969 L 196.613281 117.632812 C 198.828125 112.351562 201.03125 106.894531 203.152344 101.414062 L 203.167969 101.375 L 203.167969 101.175781 L 203.117188 101.113281 C 200.566406 98.085938 197.949219 94.945312 194.640625 90.9375 L 194.253906 90.472656 Z M 204.242188 101.066406 L 204.882812 101.820312 L 204.882812 100.617188 L 204.449219 100.535156 Z M 201.386719 97.664062 C 202.035156 98.4375 202.683594 99.214844 203.34375 100 L 203.589844 100.289062 L 204.421875 98.117188 L 201.078125 97.148438 L 201.078125 95.515625 C 201.078125 92.058594 198.898438 88.921875 195.65625 87.707031 L 195.503906 87.648438 L 195.402344 87.777344 C 195.050781 88.226562 194.769531 88.734375 194.570312 89.28125 L 194.527344 89.398438 L 194.609375 89.496094 C 196.554688 91.851562 198.578125 94.300781 200.683594 96.824219 L 201.078125 97.296875 Z M 201.386719 97.664062 " fill-opacity="1" fill-rule="nonzero"/></g><path fill="#c3bca9" d="M 66.128906 272.035156 L 81.253906 267.710938 L 81.253906 267.714844 Z M 183.785156 254.167969 L 177.582031 255.941406 L 93.710938 279.90625 C 93.695312 279.910156 93.679688 279.914062 93.664062 279.917969 L 93.664062 285.675781 L 205.328125 253.851562 L 205.328125 248.015625 L 189.988281 252.398438 Z M 308.902344 202.667969 L 305.8125 203.550781 L 305.800781 203.546875 L 302.699219 204.4375 L 299.648438 205.3125 L 299.621094 205.320312 L 299.171875 205.449219 L 296.496094 206.214844 L 217.738281 228.71875 L 217.738281 250.316406 L 301.785156 226.363281 L 302.699219 226.101562 L 308.902344 224.335938 L 324.242188 219.964844 L 324.242188 207.191406 Z M 65.917969 272.097656 L 59.710938 273.871094 L 53.507812 275.644531 L 38.351562 279.972656 L 38.355469 285.699219 L 38.351562 285.707031 L 65.917969 293.578125 L 65.9375 293.566406 C 65.929688 293.574219 65.921875 293.578125 65.917969 293.582031 L 81.253906 289.210938 L 81.253906 267.71875 L 66.128906 272.039062 Z M 183.785156 238.417969 L 177.582031 240.191406 L 93.664062 264.167969 L 93.664062 279.914062 C 93.679688 279.910156 93.695312 279.90625 93.710938 279.902344 L 177.582031 255.941406 L 189.988281 252.394531 L 205.328125 248.015625 L 205.328125 232.261719 L 189.988281 236.644531 Z M 183.785156 238.417969 " fill-opacity="1" fill-rule="nonzero"/><path fill="#ebe6e6" d="M 302.699219 226.101562 L 308.902344 224.335938 L 308.902344 224.832031 L 302.699219 226.628906 L 301.785156 226.363281 Z M 53.507812 242.953125 L 53.507812 275.644531 L 59.710938 273.871094 L 65.917969 272.097656 L 65.917969 242.953125 L 59.710938 241.160156 Z M 336.648438 181.421875 L 336.648438 232.660156 L 330.445312 234.453125 L 324.242188 232.660156 L 324.242188 198.964844 L 308.902344 194.53125 L 308.902344 202.667969 L 305.8125 203.550781 L 305.800781 203.546875 L 302.699219 204.4375 L 299.648438 205.3125 L 299.621094 205.320312 L 299.171875 205.449219 L 296.496094 206.214844 L 296.496094 173.59375 L 302.699219 171.800781 L 308.902344 173.59375 L 308.902344 178.160156 L 324.242188 182.59375 L 324.242188 181.421875 L 330.445312 179.625 Z M 324.242188 195.632812 L 324.242188 186.375 L 308.902344 181.941406 L 308.902344 191.199219 Z M 183.785156 75.261719 L 217.738281 84.878906 L 217.738281 265.640625 L 211.53125 267.433594 L 205.328125 265.640625 L 205.328125 207.386719 L 189.988281 202.953125 L 189.988281 236.644531 L 177.582031 240.191406 L 177.582031 77.054688 L 183.785156 78.847656 L 183.785156 78.8125 L 177.582031 77.054688 Z M 205.328125 132.253906 L 189.988281 127.820312 L 189.988281 161.601562 L 205.328125 166.035156 Z M 205.328125 97.914062 L 201.527344 96.8125 L 201.527344 95.515625 C 201.527344 91.667969 199.019531 88.277344 195.359375 87.136719 C 194.394531 88.179688 193.792969 89.582031 193.792969 91.152344 L 189.988281 92.152344 L 189.988281 124.035156 L 205.328125 128.46875 Z M 190.109375 87.933594 C 190.070312 87.960938 190.027344 87.984375 189.988281 88.011719 L 189.988281 88.015625 C 189.992188 88.015625 189.992188 88.015625 189.992188 88.015625 C 190.03125 87.984375 190.070312 87.960938 190.109375 87.933594 Z M 205.328125 203.601562 L 205.328125 169.820312 L 189.988281 165.386719 L 189.988281 199.167969 Z M 81.253906 250.78125 L 81.253906 297.953125 L 87.460938 299.746094 L 93.664062 297.953125 L 93.664062 250.78125 L 87.460938 248.984375 Z M 81.253906 250.78125 " fill-opacity="1" fill-rule="nonzero"/><g clip-path="url(#0f51aee24f)"><path fill="#ffffff" d="M 337.289062 181.230469 C 337.285156 181.210938 337.277344 181.195312 337.269531 181.179688 C 337.25 181.132812 337.230469 181.085938 337.199219 181.046875 C 337.191406 181.035156 337.183594 181.019531 337.175781 181.007812 C 337.140625 180.964844 337.101562 180.921875 337.050781 180.886719 C 337.046875 180.882812 337.042969 180.878906 337.039062 180.878906 C 337.03125 180.871094 337.015625 180.863281 337.003906 180.855469 C 336.960938 180.828125 336.914062 180.808594 336.863281 180.789062 C 336.851562 180.785156 336.847656 180.78125 336.835938 180.777344 L 330.632812 178.984375 C 330.507812 178.949219 330.382812 178.949219 330.257812 178.984375 L 324.054688 180.777344 C 324.042969 180.78125 324.035156 180.785156 324.027344 180.789062 C 323.976562 180.808594 323.929688 180.828125 323.886719 180.855469 C 323.875 180.863281 323.863281 180.871094 323.851562 180.878906 C 323.847656 180.878906 323.84375 180.882812 323.839844 180.886719 C 323.792969 180.921875 323.75 180.964844 323.714844 181.007812 C 323.707031 181.019531 323.699219 181.035156 323.691406 181.046875 C 323.664062 181.085938 323.640625 181.132812 323.621094 181.179688 C 323.613281 181.195312 323.609375 181.210938 323.601562 181.230469 C 323.585938 181.289062 323.570312 181.355469 323.570312 181.421875 L 323.570312 181.703125 L 309.574219 177.65625 L 309.574219 173.59375 C 309.574219 173.527344 309.558594 173.464844 309.542969 173.402344 C 309.535156 173.386719 309.53125 173.371094 309.523438 173.351562 C 309.503906 173.304688 309.480469 173.261719 309.453125 173.222656 C 309.445312 173.207031 309.4375 173.195312 309.429688 173.183594 C 309.394531 173.136719 309.351562 173.09375 309.304688 173.058594 C 309.300781 173.058594 309.296875 173.054688 309.292969 173.054688 C 309.28125 173.042969 309.269531 173.039062 309.257812 173.03125 C 309.214844 173.003906 309.167969 172.980469 309.117188 172.964844 C 309.105469 172.960938 309.097656 172.953125 309.089844 172.953125 L 302.886719 171.15625 C 302.761719 171.121094 302.632812 171.121094 302.511719 171.15625 L 298.269531 172.382812 C 268.375 152.832031 239 117.175781 219.542969 93.558594 L 218.40625 92.179688 L 218.40625 84.878906 C 218.40625 84.875 218.40625 84.875 218.40625 84.875 C 218.40625 84.808594 218.394531 84.746094 218.375 84.6875 C 218.371094 84.667969 218.363281 84.652344 218.355469 84.636719 C 218.335938 84.589844 218.3125 84.542969 218.285156 84.503906 C 218.277344 84.492188 218.269531 84.476562 218.261719 84.46875 C 218.226562 84.421875 218.1875 84.378906 218.140625 84.34375 C 218.136719 84.339844 218.128906 84.339844 218.125 84.335938 C 218.113281 84.328125 218.101562 84.320312 218.089844 84.3125 C 218.042969 84.289062 217.996094 84.265625 217.949219 84.25 C 217.9375 84.246094 217.929688 84.238281 217.917969 84.234375 L 183.96875 74.617188 C 183.847656 74.582031 183.71875 74.582031 183.597656 74.617188 L 177.394531 76.410156 C 177.386719 76.414062 177.378906 76.421875 177.367188 76.425781 C 177.316406 76.441406 177.269531 76.464844 177.226562 76.492188 C 177.214844 76.5 177.203125 76.503906 177.191406 76.511719 C 177.1875 76.515625 177.183594 76.515625 177.179688 76.519531 C 177.132812 76.554688 177.089844 76.597656 177.054688 76.644531 C 177.046875 76.65625 177.039062 76.667969 177.03125 76.679688 C 177.003906 76.722656 176.980469 76.765625 176.960938 76.8125 C 176.953125 76.828125 176.949219 76.847656 176.941406 76.863281 C 176.925781 76.925781 176.910156 76.988281 176.910156 77.054688 L 176.910156 89.046875 C 176.003906 91.4375 175.089844 93.800781 174.171875 96.140625 C 174.0625 96.261719 173.992188 96.421875 173.992188 96.597656 L 173.992188 96.609375 C 170.136719 106.40625 166.179688 115.765625 162.128906 124.6875 C 161.859375 124.773438 161.660156 125.023438 161.660156 125.324219 L 161.660156 125.71875 C 157.742188 134.300781 153.730469 142.480469 149.628906 150.242188 C 149.449219 150.363281 149.332031 150.566406 149.332031 150.800781 L 149.332031 150.804688 C 141.578125 165.425781 133.503906 178.578125 125.121094 190.25 C 124.859375 190.339844 124.671875 190.585938 124.671875 190.878906 C 120.789062 196.25 116.839844 201.300781 112.828125 206.039062 C 112.574219 206.113281 112.382812 206.328125 112.351562 206.597656 C 108.460938 211.15625 104.511719 215.417969 100.503906 219.378906 C 100.28125 219.441406 100.105469 219.613281 100.042969 219.835938 C 96.132812 223.667969 92.171875 227.21875 88.152344 230.480469 C 87.988281 230.53125 87.851562 230.644531 87.769531 230.792969 C 83.824219 233.976562 79.824219 236.878906 75.773438 239.511719 C 75.699219 239.5625 75.625 239.613281 75.546875 239.664062 C 72.589844 241.578125 69.601562 243.34375 66.585938 244.964844 L 66.585938 242.953125 C 66.585938 242.886719 66.574219 242.824219 66.554688 242.761719 C 66.550781 242.746094 66.542969 242.730469 66.535156 242.710938 C 66.519531 242.664062 66.496094 242.621094 66.46875 242.582031 C 66.460938 242.566406 66.453125 242.554688 66.441406 242.542969 C 66.40625 242.496094 66.367188 242.453125 66.320312 242.417969 C 66.316406 242.417969 66.3125 242.414062 66.308594 242.410156 C 66.296875 242.402344 66.285156 242.398438 66.273438 242.390625 C 66.226562 242.363281 66.179688 242.339844 66.128906 242.324219 C 66.121094 242.320312 66.113281 242.3125 66.101562 242.3125 L 59.898438 240.515625 C 59.777344 240.480469 59.648438 240.480469 59.527344 240.515625 L 53.320312 242.3125 C 53.3125 242.3125 53.304688 242.320312 53.292969 242.324219 C 53.242188 242.339844 53.195312 242.363281 53.152344 242.390625 C 53.140625 242.398438 53.128906 242.402344 53.117188 242.410156 C 53.113281 242.414062 53.109375 242.417969 53.105469 242.417969 C 53.058594 242.453125 53.019531 242.496094 52.980469 242.542969 C 52.972656 242.554688 52.964844 242.566406 52.957031 242.582031 C 52.929688 242.621094 52.90625 242.664062 52.886719 242.710938 C 52.882812 242.730469 52.875 242.746094 52.871094 242.761719 C 52.851562 242.824219 52.839844 242.886719 52.839844 242.953125 L 52.839844 275.136719 L 38.167969 279.328125 C 37.878906 279.410156 37.679688 279.675781 37.679688 279.972656 L 37.683594 285.628906 C 37.671875 285.75 37.6875 285.867188 37.738281 285.980469 C 37.820312 286.160156 37.976562 286.296875 38.167969 286.351562 L 65.726562 294.222656 L 65.734375 294.222656 C 65.75 294.226562 65.765625 294.226562 65.78125 294.230469 C 65.828125 294.242188 65.871094 294.253906 65.917969 294.253906 C 65.980469 294.253906 66.039062 294.242188 66.101562 294.226562 L 80.585938 290.097656 L 80.585938 297.953125 C 80.585938 298.25 80.78125 298.511719 81.070312 298.597656 L 87.273438 300.390625 C 87.335938 300.40625 87.398438 300.417969 87.460938 300.417969 C 87.523438 300.417969 87.585938 300.40625 87.644531 300.390625 L 93.851562 298.597656 C 94.136719 298.511719 94.332031 298.25 94.332031 297.953125 L 94.332031 286.179688 L 204.65625 254.738281 L 204.65625 265.640625 C 204.65625 265.9375 204.855469 266.203125 205.140625 266.285156 L 211.347656 268.078125 C 211.40625 268.097656 211.46875 268.105469 211.53125 268.105469 C 211.59375 268.105469 211.65625 268.097656 211.71875 268.078125 L 217.921875 266.285156 C 218.210938 266.203125 218.40625 265.9375 218.40625 265.640625 L 218.40625 250.820312 L 301.785156 227.058594 L 302.511719 227.269531 C 302.574219 227.289062 302.636719 227.296875 302.699219 227.296875 C 302.761719 227.296875 302.824219 227.289062 302.886719 227.269531 L 309.089844 225.476562 C 309.375 225.394531 309.570312 225.136719 309.570312 224.839844 L 323.570312 220.851562 L 323.570312 232.660156 C 323.570312 232.957031 323.769531 233.21875 324.054688 233.304688 L 330.257812 235.097656 C 330.320312 235.113281 330.382812 235.125 330.445312 235.125 C 330.507812 235.125 330.570312 235.113281 330.632812 235.097656 L 336.835938 233.304688 C 337.121094 233.21875 337.320312 232.957031 337.320312 232.660156 L 337.320312 181.421875 C 337.320312 181.355469 337.308594 181.289062 337.289062 181.230469 Z M 335.980469 232.15625 L 331.117188 233.5625 L 331.117188 183.71875 L 334.800781 182.652344 L 335.980469 182.3125 Z M 308.234375 223.828125 L 303.367188 225.214844 L 302.699219 225.40625 L 302.027344 225.597656 L 301.785156 225.664062 L 299.355469 226.359375 L 218.40625 249.429688 L 218.40625 244.976562 L 227.386719 242.410156 L 232.960938 240.816406 L 295.824219 222.859375 L 296.496094 222.667969 L 297.164062 222.476562 L 302.027344 221.085938 L 302.699219 220.894531 L 303.367188 220.703125 L 308.234375 219.3125 L 308.902344 219.121094 L 309.574219 218.929688 L 323.570312 214.929688 L 323.570312 219.457031 L 309.574219 223.445312 L 308.902344 223.636719 Z M 217.066406 251.203125 L 217.066406 265.136719 L 212.203125 266.542969 L 212.203125 87.179688 L 215.886719 86.113281 L 217.066406 85.769531 L 217.066406 91.972656 C 216.945312 92.175781 216.945312 92.433594 217.066406 92.644531 Z M 189.988281 257.527344 L 184.457031 259.101562 L 183.785156 259.292969 L 183.238281 259.449219 L 183.117188 259.484375 L 182.023438 259.796875 L 94.332031 284.785156 L 94.332031 280.425781 L 176.910156 256.832031 L 177.582031 256.640625 L 178.25 256.449219 L 183.117188 255.058594 L 183.785156 254.867188 L 184.457031 254.675781 L 189.320312 253.285156 L 189.988281 253.09375 L 190.660156 252.902344 L 204.65625 248.902344 L 204.65625 253.347656 L 190.660156 257.335938 Z M 92.992188 286.5625 L 92.992188 297.449219 L 88.128906 298.855469 L 88.128906 253.078125 L 89.023438 252.820312 L 91.816406 252.011719 L 92.992188 251.671875 Z M 65.246094 292.691406 L 39.023438 285.203125 L 39.019531 280.480469 L 52.839844 276.53125 L 53.507812 276.339844 L 54.179688 276.148438 L 59.042969 274.761719 L 59.710938 274.570312 L 60.382812 274.378906 L 65.246094 272.988281 L 65.917969 272.796875 L 66.585938 272.605469 L 80.585938 268.605469 L 80.585938 282.964844 L 76.71875 284.070312 L 65.730469 287.210938 C 65.441406 287.292969 65.242188 287.554688 65.242188 287.855469 Z M 55.921875 242.953125 L 59.710938 241.859375 L 63.503906 242.953125 L 60.761719 243.746094 L 59.710938 244.050781 L 58.664062 243.746094 Z M 100.011719 251.09375 L 100.011719 261.65625 L 98.9375 261.960938 L 98.9375 251.726562 C 99.296875 251.515625 99.65625 251.308594 100.011719 251.09375 Z M 112.34375 242.730469 L 112.34375 258.132812 L 111.269531 258.4375 L 111.269531 243.53125 C 111.625 243.265625 111.984375 243 112.34375 242.730469 Z M 137 219.804688 L 137 251.085938 L 135.929688 251.394531 L 135.929688 220.988281 C 136.285156 220.59375 136.644531 220.203125 137 219.804688 Z M 149.332031 204.898438 L 149.332031 247.5625 L 148.257812 247.871094 L 148.257812 206.289062 C 148.617188 205.824219 148.972656 205.367188 149.332031 204.898438 Z M 161.660156 187.359375 L 161.660156 244.042969 L 160.589844 244.347656 L 160.589844 189 C 160.945312 188.457031 161.304688 187.90625 161.660156 187.359375 Z M 173.992188 166.902344 L 173.992188 240.519531 L 172.917969 240.824219 L 172.917969 168.808594 C 173.277344 168.175781 173.632812 167.539062 173.992188 166.902344 Z M 187.617188 77.042969 L 188.835938 77.386719 L 189.988281 77.714844 L 190.660156 77.90625 L 215.300781 84.886719 L 211.53125 85.976562 L 205.53125 84.277344 L 205.308594 84.214844 L 190.660156 80.0625 L 189.988281 79.875 L 189.320312 79.683594 L 186.285156 78.824219 L 185.066406 78.476562 L 183.847656 78.132812 L 183.570312 78.054688 L 180.015625 77.046875 L 183.789062 75.957031 Z M 302.699219 172.5 L 306.488281 173.59375 L 303.746094 174.386719 L 302.699219 174.691406 L 301.652344 174.386719 L 301.21875 174.265625 C 300.734375 173.964844 300.246094 173.65625 299.761719 173.347656 Z M 323.570312 183.097656 L 323.570312 184.480469 C 319.097656 183.238281 314.574219 181.441406 310.035156 179.183594 Z M 330.445312 180.324219 L 334.238281 181.421875 L 331.492188 182.214844 L 330.445312 182.515625 L 329.398438 182.214844 L 326.652344 181.421875 Z M 297.164062 178.394531 C 297.550781 178.488281 297.9375 178.578125 298.324219 178.664062 L 298.324219 204.996094 L 297.164062 205.324219 Z M 309.574219 182.832031 L 312.445312 183.664062 L 312.445312 191.527344 L 309.574219 190.695312 Z M 245.65625 221.4375 L 257.941406 217.925781 L 257.941406 232.285156 L 245.65625 235.796875 Z M 286.535156 209.757812 L 295.824219 207.105469 L 296.496094 206.914062 L 297.164062 206.722656 L 298.820312 206.246094 L 298.820312 220.605469 L 297.164062 221.078125 L 296.496094 221.269531 L 295.824219 221.460938 L 286.535156 224.117188 Z M 313.785156 216.332031 L 313.785156 204.804688 L 323.570312 207.695312 L 323.570312 213.535156 Z M 313.785156 203.410156 L 313.785156 196.640625 L 323.570312 199.46875 L 323.570312 206.296875 Z M 313.785156 193.308594 L 323.570312 196.136719 L 323.570312 198.074219 L 313.785156 195.246094 Z M 312.445312 192.921875 L 312.445312 194.859375 L 309.574219 194.027344 L 308.902344 193.832031 L 308.234375 193.640625 L 306.472656 193.128906 L 306.472656 191.195312 L 308.234375 191.703125 L 308.902344 191.898438 L 309.574219 192.089844 Z M 312.445312 196.253906 L 312.445312 203.011719 L 309.574219 202.164062 L 309.574219 195.421875 Z M 309.574219 203.5625 L 312.445312 204.410156 L 312.445312 216.714844 L 309.574219 217.535156 L 308.902344 217.726562 L 308.234375 217.917969 L 303.367188 219.304688 L 302.699219 219.496094 L 302.027344 219.6875 L 300.160156 220.222656 L 300.160156 205.863281 L 302.027344 205.332031 L 302.699219 205.136719 L 303.367188 204.945312 L 305.023438 204.472656 L 305.996094 204.195312 L 308.234375 203.554688 L 308.898438 203.363281 L 308.902344 203.367188 Z M 285.195312 210.140625 L 285.195312 224.5 L 272.910156 228.007812 L 272.910156 213.652344 Z M 271.570312 228.390625 L 259.285156 231.902344 L 259.285156 217.542969 L 271.570312 214.035156 Z M 232.03125 225.332031 L 244.316406 221.820312 L 244.316406 236.179688 L 232.03125 239.6875 Z M 323.570312 194.742188 L 313.785156 191.914062 L 313.785156 184.050781 L 323.570312 186.878906 Z M 300.699219 175.507812 C 301.144531 175.78125 301.585938 176.046875 302.027344 176.3125 L 302.027344 203.933594 L 300.160156 204.46875 L 300.160156 175.351562 Z M 230.691406 225.714844 L 230.691406 240.070312 L 230.503906 240.125 L 218.40625 243.582031 L 218.40625 229.222656 Z M 313.785156 182.65625 L 313.785156 182.402344 C 314.445312 182.6875 315.101562 182.960938 315.757812 183.226562 Z M 312.445312 182.269531 L 309.574219 181.4375 L 308.902344 181.242188 L 308.234375 181.050781 L 306.472656 180.539062 L 306.472656 178.839844 C 307.058594 179.15625 307.644531 179.46875 308.234375 179.769531 C 308.457031 179.882812 308.679688 179.992188 308.902344 180.105469 C 309.125 180.21875 309.351562 180.332031 309.574219 180.445312 C 310.53125 180.917969 311.488281 181.371094 312.445312 181.804688 Z M 305.613281 181.6875 L 308.234375 182.445312 L 308.234375 190.308594 L 305.988281 189.660156 C 305.785156 189.601562 305.566406 189.640625 305.398438 189.765625 C 305.230469 189.894531 305.128906 190.09375 305.128906 190.304688 L 305.128906 193.632812 C 305.128906 193.933594 305.328125 194.195312 305.613281 194.277344 L 308.234375 195.035156 L 308.234375 202.160156 L 305.652344 202.898438 C 305.640625 202.902344 305.628906 202.898438 305.617188 202.902344 L 303.367188 203.546875 L 303.367188 177.101562 C 303.957031 177.441406 304.542969 177.773438 305.128906 178.101562 L 305.128906 181.042969 C 305.128906 181.34375 305.328125 181.605469 305.613281 181.6875 Z M 297.164062 174.488281 L 298.34375 174.828125 L 298.820312 174.964844 L 298.820312 177.402344 C 298.269531 177.28125 297.71875 177.152344 297.164062 177.011719 Z M 326.070312 186.90625 L 326.070312 212.820312 L 325.816406 212.894531 L 324.910156 213.152344 L 324.910156 186.21875 C 325.296875 186.3125 325.683594 186.402344 326.070312 186.488281 Z M 308.234375 177.265625 L 305.988281 176.617188 C 305.785156 176.558594 305.566406 176.597656 305.398438 176.726562 C 304.851562 176.417969 304.300781 176.101562 303.753906 175.78125 L 307.054688 174.828125 L 308.234375 174.488281 Z M 295.824219 205.707031 L 286.535156 208.363281 L 286.535156 174.785156 C 289.644531 176.109375 292.746094 177.203125 295.824219 178.039062 Z M 284.699219 208.886719 L 272.910156 212.257812 L 272.910156 167.65625 C 276.839844 170.078125 280.777344 172.203125 284.699219 173.980469 Z M 271.074219 212.78125 L 268.417969 213.539062 L 259.285156 216.148438 L 259.285156 158.160156 C 263.191406 161.183594 267.128906 163.984375 271.074219 166.503906 Z M 257.449219 216.675781 L 245.65625 220.042969 L 245.65625 146.695312 C 249.539062 150.210938 253.476562 153.574219 257.449219 156.722656 Z M 243.820312 220.566406 L 232.03125 223.933594 L 232.03125 133.570312 C 235.882812 137.488281 239.820312 141.328125 243.824219 145.019531 Z M 230.195312 224.460938 L 218.40625 227.828125 L 218.40625 119.058594 C 222.214844 123.28125 226.152344 127.523438 230.195312 131.691406 Z M 178.25 159.089844 C 179.886719 156.011719 181.507812 152.871094 183.117188 149.667969 L 183.117188 237.914062 L 180.300781 238.714844 C 180.300781 238.71875 180.296875 238.71875 180.292969 238.71875 L 178.25 239.300781 Z M 204.65625 101.210938 C 204.605469 101.148438 204.554688 101.085938 204.5 101.023438 C 204.550781 100.886719 204.605469 100.753906 204.65625 100.617188 Z M 204.65625 127.578125 L 204.285156 127.472656 L 204.285156 102.847656 C 204.410156 102.992188 204.535156 103.140625 204.65625 103.285156 Z M 204.65625 131.363281 L 204.285156 131.253906 L 202.945312 130.867188 L 197.578125 129.316406 L 197.578125 126.925781 L 202.945312 128.480469 L 204.285156 128.867188 L 204.65625 128.972656 Z M 204.65625 165.144531 L 204.285156 165.039062 L 204.285156 132.648438 L 204.65625 132.757812 Z M 204.65625 168.929688 L 204.285156 168.820312 L 202.945312 168.433594 L 197.578125 166.882812 L 197.578125 164.492188 L 202.945312 166.046875 L 204.285156 166.433594 L 204.65625 166.539062 Z M 204.65625 202.710938 L 204.285156 202.605469 L 204.285156 170.214844 L 204.65625 170.324219 Z M 204.65625 206.496094 L 204.285156 206.386719 L 202.945312 206 L 197.578125 204.449219 L 197.578125 202.058594 L 202.945312 203.613281 L 204.285156 204 L 204.65625 204.105469 Z M 204.65625 231.757812 L 204.285156 231.863281 L 204.285156 207.78125 L 204.65625 207.890625 Z M 204.65625 247.507812 L 197.578125 249.53125 L 197.578125 235.175781 L 204.65625 233.152344 Z M 94.332031 264.675781 L 97.597656 263.742188 L 97.597656 278.09375 L 94.332031 279.027344 Z M 196.242188 249.914062 L 190.660156 251.507812 L 189.988281 251.699219 L 189.320312 251.890625 L 185.246094 253.054688 L 185.246094 238.699219 L 189.320312 237.535156 L 189.988281 237.34375 L 190.660156 237.152344 L 196.238281 235.558594 L 196.238281 249.875 C 196.238281 249.886719 196.238281 249.898438 196.242188 249.914062 Z M 187.367188 93.417969 L 187.375 93.417969 L 187.402344 93.425781 C 187.457031 93.445312 187.515625 93.449219 187.570312 93.453125 C 187.574219 93.453125 187.582031 93.453125 187.585938 93.453125 C 187.601562 93.453125 187.621094 93.449219 187.636719 93.449219 C 187.667969 93.445312 187.703125 93.441406 187.734375 93.433594 C 187.742188 93.433594 187.75 93.433594 187.753906 93.433594 L 189.320312 93.019531 L 189.320312 123.144531 L 187.675781 122.667969 C 187.472656 122.609375 187.253906 122.648438 187.085938 122.777344 C 186.917969 122.902344 186.820312 123.101562 186.820312 123.3125 L 186.820312 127.09375 C 186.820312 127.394531 187.015625 127.65625 187.304688 127.738281 L 189.320312 128.324219 L 189.320312 133.738281 C 187.714844 137.25 186.09375 140.695312 184.457031 144.070312 L 184.457031 92.578125 Z M 188.328125 91.894531 C 188.34375 91.808594 188.367188 91.722656 188.386719 91.636719 C 188.394531 91.597656 188.402344 91.558594 188.410156 91.519531 C 188.453125 91.347656 188.503906 91.175781 188.5625 91.011719 C 188.566406 90.996094 188.570312 90.984375 188.574219 90.972656 C 188.640625 90.789062 188.71875 90.609375 188.804688 90.4375 C 188.8125 90.414062 188.828125 90.398438 188.835938 90.375 C 188.910156 90.234375 188.988281 90.09375 189.078125 89.957031 C 189.113281 89.90625 189.148438 89.851562 189.1875 89.800781 C 189.230469 89.734375 189.273438 89.667969 189.320312 89.605469 C 189.34375 89.574219 189.371094 89.546875 189.398438 89.511719 C 189.445312 89.449219 189.5 89.390625 189.550781 89.328125 C 189.617188 89.253906 189.6875 89.179688 189.761719 89.105469 C 189.824219 89.039062 189.890625 88.972656 189.957031 88.910156 C 189.96875 88.902344 189.976562 88.890625 189.988281 88.878906 C 190.042969 88.832031 190.097656 88.792969 190.152344 88.746094 C 190.230469 88.679688 190.308594 88.613281 190.390625 88.550781 C 190.429688 88.523438 190.472656 88.5 190.511719 88.472656 C 190.558594 88.4375 190.609375 88.402344 190.660156 88.367188 C 190.699219 88.34375 190.742188 88.316406 190.78125 88.289062 C 190.863281 88.238281 190.945312 88.195312 191.03125 88.148438 C 191.09375 88.113281 191.160156 88.082031 191.222656 88.050781 C 191.398438 87.960938 191.578125 87.886719 191.761719 87.820312 C 191.765625 87.820312 191.769531 87.816406 191.777344 87.816406 C 191.8125 87.804688 191.851562 87.789062 191.886719 87.773438 C 191.984375 87.742188 192.078125 87.71875 192.175781 87.691406 C 192.253906 87.671875 192.328125 87.652344 192.40625 87.632812 C 192.488281 87.617188 192.570312 87.597656 192.65625 87.582031 C 192.816406 87.554688 192.976562 87.535156 193.136719 87.523438 C 193.179688 87.519531 193.222656 87.519531 193.265625 87.519531 C 193.351562 87.515625 193.4375 87.507812 193.523438 87.507812 C 193.5625 87.507812 193.605469 87.515625 193.648438 87.515625 C 193.757812 87.519531 193.871094 87.527344 193.984375 87.535156 C 194.050781 87.542969 194.121094 87.542969 194.1875 87.550781 C 194.1875 87.550781 194.183594 87.554688 194.183594 87.558594 C 194.050781 87.761719 193.929688 87.976562 193.824219 88.191406 C 193.589844 88.65625 193.414062 89.152344 193.296875 89.660156 C 193.222656 89.976562 193.167969 90.300781 193.144531 90.628906 L 190.660156 91.28125 L 189.988281 91.460938 L 189.320312 91.636719 L 188.339844 91.894531 Z M 200.855469 95.515625 L 200.855469 96.679688 C 198.75 94.15625 196.726562 91.710938 194.78125 89.355469 C 194.96875 88.839844 195.234375 88.351562 195.578125 87.914062 C 198.714844 89.089844 200.855469 92.128906 200.855469 95.515625 Z M 202.945312 101.335938 C 200.796875 106.875 198.617188 112.28125 196.40625 117.546875 C 196.3125 117.652344 196.253906 117.789062 196.242188 117.941406 C 195.332031 120.101562 194.421875 122.238281 193.503906 124.351562 L 190.660156 123.53125 L 190.660156 92.667969 L 193.964844 91.800781 C 194.257812 91.722656 194.464844 91.457031 194.464844 91.152344 C 194.464844 91.128906 194.464844 91.105469 194.46875 91.078125 C 197.144531 94.320312 199.976562 97.734375 202.945312 101.257812 Z M 196.238281 125.144531 L 194.769531 124.71875 C 195.261719 123.59375 195.75 122.464844 196.238281 121.324219 Z M 196.238281 162.710938 L 190.660156 161.097656 L 190.660156 133.925781 C 191.359375 132.398438 192.054688 130.863281 192.746094 129.3125 L 196.238281 130.324219 Z M 196.238281 200.277344 L 190.660156 198.664062 L 190.660156 166.277344 L 196.238281 167.890625 Z M 185.246094 145.359375 C 186.617188 142.558594 187.972656 139.71875 189.320312 136.828125 L 189.320312 160.710938 L 187.675781 160.234375 C 187.472656 160.175781 187.253906 160.214844 187.085938 160.34375 C 186.917969 160.46875 186.820312 160.667969 186.820312 160.878906 L 186.820312 164.660156 C 186.820312 164.960938 187.015625 165.222656 187.304688 165.304688 L 189.320312 165.890625 L 189.320312 198.277344 L 187.675781 197.800781 C 187.472656 197.742188 187.253906 197.78125 187.085938 197.910156 C 186.917969 198.035156 186.820312 198.234375 186.820312 198.445312 L 186.820312 202.230469 C 186.820312 202.527344 187.015625 202.789062 187.304688 202.871094 L 189.320312 203.457031 L 189.320312 236.140625 L 185.246094 237.304688 Z M 190.660156 128.710938 L 191.480469 128.945312 C 191.207031 129.558594 190.933594 130.175781 190.660156 130.785156 Z M 196.238281 234.164062 L 190.660156 235.757812 L 190.660156 203.84375 L 196.238281 205.457031 Z M 192.03125 127.710938 L 190.660156 127.316406 L 189.988281 127.121094 L 189.320312 126.925781 L 188.160156 126.589844 L 188.160156 124.203125 L 189.320312 124.539062 L 189.988281 124.734375 L 190.660156 124.925781 L 192.960938 125.59375 C 192.652344 126.300781 192.34375 127.007812 192.03125 127.710938 Z M 111.269531 259.835938 L 122.257812 256.695312 L 122.257812 271.050781 L 111.269531 274.1875 Z M 171.578125 256.960938 L 160.589844 260.097656 L 160.589844 245.742188 L 171.578125 242.605469 Z M 159.246094 260.480469 L 148.257812 263.621094 L 148.257812 249.265625 L 159.246094 246.125 Z M 146.917969 264.003906 L 135.929688 267.144531 L 135.929688 252.789062 L 146.917969 249.648438 Z M 134.589844 267.527344 L 123.597656 270.667969 L 123.597656 256.3125 L 134.589844 253.171875 Z M 183.90625 253.4375 L 183.785156 253.472656 L 183.117188 253.664062 L 178.25 255.054688 L 177.582031 255.246094 L 176.910156 255.4375 L 172.917969 256.578125 L 172.917969 242.222656 L 176.910156 241.078125 L 177.582031 240.886719 L 178.25 240.695312 L 183.117188 239.308594 L 183.785156 239.117188 L 183.90625 239.082031 Z M 98.9375 263.359375 L 109.929688 260.21875 L 109.929688 274.335938 C 109.929688 274.414062 109.945312 274.488281 109.96875 274.558594 L 98.9375 277.710938 Z M 202.945312 232.246094 L 197.578125 233.78125 L 197.578125 205.84375 L 202.945312 207.394531 Z M 196.238281 204.058594 L 190.660156 202.449219 L 189.988281 202.253906 L 189.320312 202.058594 L 188.160156 201.722656 L 188.160156 199.335938 L 189.320312 199.671875 L 189.988281 199.867188 L 190.660156 200.058594 L 196.238281 201.671875 Z M 202.945312 202.214844 L 197.578125 200.664062 L 197.578125 168.277344 L 202.945312 169.828125 Z M 196.238281 166.492188 L 190.660156 164.882812 L 189.988281 164.6875 L 189.320312 164.492188 L 188.160156 164.15625 L 188.160156 161.769531 L 189.320312 162.105469 L 189.988281 162.300781 L 190.660156 162.492188 L 196.238281 164.105469 Z M 202.945312 164.648438 L 197.578125 163.097656 L 197.578125 130.710938 L 202.945312 132.261719 Z M 196.238281 128.925781 L 193.292969 128.078125 C 193.605469 127.371094 193.917969 126.667969 194.230469 125.957031 L 196.238281 126.539062 Z M 197.578125 125.53125 L 197.578125 118.171875 C 199.390625 113.867188 201.179688 109.476562 202.945312 105.003906 L 202.945312 127.082031 Z M 203.515625 99.855469 C 202.855469 99.070312 202.207031 98.292969 201.558594 97.519531 L 204.125 98.261719 C 203.921875 98.792969 203.71875 99.328125 203.515625 99.855469 Z M 204.65625 96.871094 C 204.640625 96.917969 204.625 96.960938 204.605469 97.007812 L 202.195312 96.308594 L 202.195312 95.515625 C 202.195312 91.40625 199.488281 87.738281 195.585938 86.503906 C 195.570312 86.496094 195.554688 86.488281 195.539062 86.484375 C 195.472656 86.460938 195.410156 86.4375 195.367188 86.429688 C 195.125 86.359375 194.875 86.304688 194.621094 86.261719 C 193.828125 86.125 193.03125 86.140625 192.257812 86.292969 C 191.785156 86.386719 191.320312 86.527344 190.875 86.722656 C 190.800781 86.757812 190.734375 86.796875 190.660156 86.835938 C 190.429688 86.945312 190.207031 87.070312 189.988281 87.210938 C 189.84375 87.300781 189.695312 87.394531 189.554688 87.5 C 189.472656 87.558594 189.398438 87.628906 189.320312 87.695312 C 189.210938 87.785156 189.101562 87.875 188.996094 87.96875 C 188.980469 87.988281 188.964844 88.007812 188.945312 88.023438 C 188.789062 88.171875 188.644531 88.324219 188.507812 88.484375 C 188.453125 88.546875 188.40625 88.609375 188.355469 88.671875 C 188.257812 88.792969 188.164062 88.917969 188.078125 89.042969 C 188.019531 89.125 187.96875 89.207031 187.914062 89.292969 C 187.84375 89.40625 187.777344 89.523438 187.710938 89.640625 C 187.660156 89.738281 187.609375 89.832031 187.566406 89.925781 C 187.507812 90.042969 187.460938 90.160156 187.410156 90.28125 C 187.371094 90.382812 187.324219 90.484375 187.289062 90.585938 C 187.246094 90.714844 187.210938 90.847656 187.171875 90.976562 C 187.128906 91.136719 187.089844 91.296875 187.054688 91.457031 C 187.027344 91.605469 186.992188 91.757812 186.972656 91.910156 L 184.457031 91.179688 L 184.457031 79.699219 L 189.320312 81.078125 L 189.988281 81.265625 L 190.660156 81.457031 L 204.65625 85.421875 Z M 180.914062 80.207031 C 180.566406 80.082031 180.179688 80.257812 180.054688 80.605469 C 179.457031 82.246094 178.855469 83.867188 178.25 85.480469 L 178.25 77.945312 L 183.113281 79.351562 L 183.113281 91.683594 C 183.113281 91.6875 183.117188 91.6875 183.117188 91.6875 L 183.117188 146.808594 C 181.507812 150.070312 179.886719 153.265625 178.25 156.394531 L 178.25 89.289062 C 179.28125 86.574219 180.300781 83.835938 181.3125 81.066406 C 181.441406 80.71875 181.261719 80.335938 180.914062 80.207031 Z M 176.910156 239.683594 L 175.332031 240.136719 L 175.332031 164.484375 C 175.859375 163.527344 176.386719 162.5625 176.910156 161.589844 Z M 171.578125 241.207031 L 163 243.660156 L 163 185.28125 C 165.898438 180.753906 168.757812 176.042969 171.578125 171.152344 Z M 159.246094 244.730469 L 150.671875 247.179688 L 150.671875 203.117188 C 152.792969 200.289062 154.894531 197.371094 156.972656 194.359375 C 157.734375 193.257812 158.492188 192.136719 159.246094 191.011719 Z M 146.917969 248.253906 L 138.339844 250.703125 L 138.339844 218.300781 C 141.230469 215.03125 144.09375 211.601562 146.917969 208.011719 Z M 134.589844 251.777344 L 126.011719 254.226562 L 126.011719 231.09375 C 128.898438 228.359375 131.757812 225.476562 134.589844 222.4375 Z M 124.671875 254.609375 L 123.597656 254.917969 L 123.597656 233.335938 C 123.957031 233.007812 124.3125 232.679688 124.671875 232.351562 Z M 122.257812 255.300781 L 113.683594 257.75 L 113.683594 241.695312 C 116.566406 239.457031 119.425781 237.074219 122.257812 234.542969 Z M 109.929688 258.820312 L 101.351562 261.273438 L 101.351562 250.277344 C 104.234375 248.496094 107.09375 246.578125 109.929688 244.515625 Z M 97.597656 262.34375 L 94.332031 263.277344 L 94.332031 254.300781 C 95.425781 253.722656 96.515625 253.128906 97.597656 252.507812 Z M 83.667969 250.78125 L 87.460938 249.683594 L 87.683594 249.75 L 89.023438 250.136719 L 91.25 250.78125 L 89.023438 251.425781 L 88.507812 251.574219 L 87.683594 251.8125 L 87.460938 251.875 L 86.410156 251.574219 Z M 65.246094 245.671875 L 65.246094 271.59375 L 60.382812 272.984375 L 60.382812 245.253906 L 64.066406 244.1875 L 65.246094 243.847656 Z M 54.179688 243.847656 L 55.355469 244.1875 L 59.042969 245.253906 L 59.042969 273.367188 L 54.179688 274.753906 Z M 66.589844 292.695312 L 66.585938 288.359375 L 80.585938 284.359375 L 80.585938 288.703125 Z M 81.925781 289.71875 L 81.925781 251.671875 L 83.105469 252.011719 L 86.789062 253.078125 L 86.789062 298.855469 L 81.925781 297.449219 Z M 206 254.359375 L 206 248.519531 L 208.40625 247.832031 C 208.40625 247.832031 208.410156 247.832031 208.410156 247.832031 C 208.410156 247.832031 208.410156 247.832031 208.414062 247.832031 C 208.765625 247.726562 208.96875 247.359375 208.867188 247.003906 C 208.765625 246.648438 208.394531 246.441406 208.039062 246.542969 L 206 247.125 L 206 97.113281 C 207.027344 94.402344 208.046875 91.664062 209.058594 88.890625 C 209.1875 88.542969 209.007812 88.160156 208.660156 88.03125 C 208.3125 87.90625 207.925781 88.085938 207.800781 88.433594 C 207.203125 90.070312 206.601562 91.691406 206 93.308594 L 206 85.800781 L 210.863281 87.179688 L 210.863281 266.542969 L 206 265.136719 Z M 324.910156 220.46875 L 324.910156 214.546875 L 326.742188 214.023438 L 326.925781 213.96875 C 326.9375 213.964844 326.949219 213.960938 326.960938 213.957031 C 326.960938 213.957031 326.964844 213.953125 326.964844 213.953125 C 326.988281 213.945312 327.007812 213.9375 327.027344 213.929688 C 327.042969 213.921875 327.0625 213.914062 327.078125 213.902344 C 327.078125 213.902344 327.082031 213.898438 327.082031 213.898438 C 327.101562 213.886719 327.121094 213.875 327.136719 213.863281 C 327.140625 213.863281 327.140625 213.863281 327.140625 213.859375 C 327.160156 213.847656 327.175781 213.835938 327.1875 213.820312 C 327.203125 213.808594 327.21875 213.792969 327.230469 213.78125 C 327.230469 213.78125 327.230469 213.777344 327.234375 213.777344 C 327.246094 213.761719 327.261719 213.746094 327.273438 213.726562 C 327.277344 213.722656 327.28125 213.722656 327.28125 213.71875 C 327.292969 213.703125 327.300781 213.691406 327.3125 213.675781 C 327.320312 213.65625 327.332031 213.640625 327.339844 213.621094 C 327.339844 213.621094 327.339844 213.621094 327.339844 213.617188 C 327.351562 213.597656 327.359375 213.578125 327.367188 213.558594 C 327.367188 213.554688 327.371094 213.550781 327.371094 213.546875 C 327.378906 213.53125 327.382812 213.511719 327.386719 213.496094 C 327.390625 213.476562 327.398438 213.457031 327.402344 213.433594 C 327.402344 213.425781 327.40625 213.414062 327.40625 213.402344 C 327.410156 213.390625 327.40625 213.375 327.40625 213.363281 C 327.40625 213.355469 327.410156 213.351562 327.410156 213.347656 C 327.410156 213.339844 327.410156 213.332031 327.410156 213.324219 L 327.410156 185.957031 C 327.410156 185.957031 327.410156 185.953125 327.410156 185.953125 C 327.410156 185.9375 327.40625 185.921875 327.40625 185.90625 C 327.40625 185.878906 327.402344 185.851562 327.398438 185.828125 C 327.394531 185.804688 327.386719 185.785156 327.378906 185.761719 C 327.375 185.742188 327.371094 185.722656 327.363281 185.703125 C 327.351562 185.679688 327.339844 185.660156 327.328125 185.640625 C 327.320312 185.625 327.3125 185.605469 327.300781 185.589844 C 327.289062 185.570312 327.273438 185.554688 327.261719 185.539062 C 327.246094 185.519531 327.234375 185.503906 327.21875 185.488281 C 327.207031 185.472656 327.1875 185.460938 327.171875 185.449219 C 327.15625 185.433594 327.140625 185.417969 327.121094 185.40625 C 327.101562 185.390625 327.082031 185.382812 327.058594 185.371094 C 327.042969 185.359375 327.027344 185.351562 327.007812 185.34375 C 326.980469 185.332031 326.949219 185.324219 326.921875 185.3125 C 326.910156 185.3125 326.894531 185.304688 326.882812 185.300781 C 326.835938 185.292969 326.789062 185.277344 326.742188 185.269531 C 326.519531 185.21875 326.292969 185.164062 326.070312 185.113281 C 325.683594 185.023438 325.296875 184.933594 324.910156 184.835938 L 324.910156 182.3125 L 326.089844 182.652344 L 327.328125 183.011719 L 329.773438 183.71875 L 329.773438 233.5625 L 324.910156 232.15625 Z M 296.308594 172.953125 C 296.296875 172.953125 296.289062 172.960938 296.28125 172.964844 C 296.230469 172.980469 296.183594 173.003906 296.140625 173.03125 C 296.128906 173.039062 296.113281 173.042969 296.105469 173.054688 C 296.101562 173.054688 296.09375 173.058594 296.089844 173.058594 C 296.042969 173.09375 296.003906 173.136719 295.96875 173.183594 C 295.960938 173.195312 295.953125 173.207031 295.945312 173.222656 C 295.914062 173.261719 295.890625 173.304688 295.875 173.351562 C 295.867188 173.371094 295.859375 173.386719 295.855469 173.402344 C 295.835938 173.464844 295.824219 173.527344 295.824219 173.59375 L 295.824219 176.652344 C 292.746094 175.800781 289.648438 174.683594 286.535156 173.335938 L 286.535156 165.601562 C 289.867188 168.195312 293.222656 170.632812 296.585938 172.871094 Z M 285.195312 172.738281 C 281.109375 170.882812 277.007812 168.644531 272.910156 166.085938 L 272.910156 154.074219 C 276.949219 157.753906 281.054688 161.265625 285.195312 164.546875 Z M 271.570312 152.84375 L 271.570312 165.242188 C 267.457031 162.605469 263.355469 159.65625 259.285156 156.472656 L 259.285156 140.890625 C 263.289062 144.984375 267.394531 148.996094 271.570312 152.84375 Z M 257.945312 155.414062 C 253.804688 152.121094 249.699219 148.585938 245.65625 144.894531 L 245.65625 126.332031 C 249.617188 130.738281 253.722656 135.167969 257.945312 139.515625 Z M 244.316406 143.660156 C 240.144531 139.796875 236.039062 135.769531 232.03125 131.660156 L 232.03125 110.671875 C 235.917969 115.265625 240.027344 120.03125 244.316406 124.835938 Z M 218.507812 94.414062 C 222.230469 98.929688 226.3125 103.886719 230.691406 109.082031 L 230.691406 130.28125 C 226.472656 125.914062 222.363281 121.472656 218.40625 117.054688 L 218.40625 94.289062 Z M 176.910156 158.941406 C 176.386719 159.929688 175.859375 160.914062 175.332031 161.890625 L 175.332031 96.84375 C 175.859375 95.5 176.386719 94.148438 176.910156 92.792969 Z M 173.992188 164.34375 C 173.300781 165.59375 172.609375 166.835938 171.917969 168.0625 C 171.714844 168.179688 171.578125 168.394531 171.578125 168.644531 L 171.578125 168.660156 C 168.757812 173.628906 165.898438 178.414062 163 183.007812 L 163 125.910156 C 166.757812 117.695312 170.425781 109.128906 173.992188 100.21875 Z M 161.660156 185.113281 C 161 186.144531 160.335938 187.167969 159.671875 188.179688 C 159.421875 188.277344 159.246094 188.519531 159.246094 188.800781 L 159.246094 188.816406 C 156.425781 193.082031 153.566406 197.175781 150.671875 201.089844 L 150.671875 150.949219 C 154.414062 143.894531 158.078125 136.515625 161.660156 128.8125 Z M 149.332031 153.453125 L 149.332031 202.882812 C 148.683594 203.742188 148.035156 204.59375 147.386719 205.433594 C 147.125 205.519531 146.933594 205.753906 146.921875 206.039062 C 144.09375 209.675781 141.234375 213.148438 138.339844 216.457031 L 138.339844 172.742188 C 138.339844 172.683594 138.332031 172.632812 138.320312 172.578125 C 142.058594 166.511719 145.730469 160.132812 149.332031 153.453125 Z M 137 174.699219 L 137 217.980469 C 136.363281 218.695312 135.726562 219.402344 135.085938 220.101562 C 134.835938 220.167969 134.648438 220.371094 134.601562 220.625 C 131.769531 223.699219 128.90625 226.617188 126.011719 229.378906 L 126.011719 191.085938 C 127.089844 189.589844 128.160156 188.078125 129.226562 186.53125 C 131.847656 182.734375 134.441406 178.785156 137 174.699219 Z M 124.671875 230.644531 C 121.054688 234.027344 117.394531 237.171875 113.683594 240.074219 L 113.683594 206.914062 C 117.402344 202.523438 121.066406 197.859375 124.671875 192.933594 Z M 112.34375 208.476562 L 112.34375 241.105469 C 111.6875 241.605469 111.035156 242.097656 110.375 242.582031 C 110.25 242.625 110.140625 242.707031 110.0625 242.8125 C 107.1875 244.925781 104.28125 246.894531 101.351562 248.71875 L 101.351562 220.28125 C 105.0625 216.601562 108.726562 212.664062 112.34375 208.476562 Z M 100.011719 249.539062 C 99.371094 249.925781 98.734375 250.308594 98.089844 250.683594 C 97.976562 250.714844 97.875 250.773438 97.792969 250.855469 C 96.644531 251.519531 95.492188 252.167969 94.332031 252.789062 L 94.332031 250.78125 C 94.332031 250.714844 94.320312 250.648438 94.300781 250.589844 C 94.296875 250.570312 94.289062 250.554688 94.285156 250.535156 C 94.265625 250.492188 94.242188 250.445312 94.214844 250.40625 C 94.207031 250.394531 94.199219 250.378906 94.191406 250.367188 C 94.152344 250.320312 94.113281 250.28125 94.066406 250.246094 C 94.0625 250.242188 94.058594 250.238281 94.054688 250.238281 C 94.042969 250.230469 94.03125 250.222656 94.019531 250.214844 C 93.976562 250.1875 93.925781 250.167969 93.878906 250.148438 C 93.867188 250.144531 93.859375 250.140625 93.851562 250.136719 L 89.023438 248.742188 L 89.023438 231.417969 C 92.730469 228.390625 96.390625 225.109375 100.011719 221.59375 Z M 87.683594 248.351562 L 87.644531 248.34375 C 87.523438 248.308594 87.394531 248.308594 87.273438 248.34375 L 81.070312 250.136719 C 81.058594 250.140625 81.050781 250.144531 81.042969 250.148438 C 80.992188 250.167969 80.945312 250.1875 80.898438 250.214844 C 80.886719 250.222656 80.875 250.230469 80.863281 250.238281 C 80.859375 250.238281 80.855469 250.242188 80.851562 250.246094 C 80.804688 250.28125 80.765625 250.320312 80.730469 250.367188 C 80.71875 250.378906 80.710938 250.394531 80.703125 250.40625 C 80.675781 250.445312 80.652344 250.492188 80.636719 250.535156 C 80.628906 250.554688 80.621094 250.570312 80.617188 250.589844 C 80.597656 250.648438 80.585938 250.714844 80.585938 250.78125 L 80.585938 267.207031 L 76.691406 268.316406 L 76.691406 240.484375 C 80.394531 238.058594 84.058594 235.390625 87.683594 232.496094 Z M 75.351562 241.351562 L 75.351562 268.703125 L 66.585938 271.207031 L 66.585938 246.476562 C 69.53125 244.914062 72.453125 243.203125 75.351562 241.351562 Z M 75.351562 241.351562 " fill-opacity="1" fill-rule="nonzero"/></g></svg>