<svg width="47" height="47" viewBox="0 0 47 47" fill="none" xmlns="http://www.w3.org/2000/svg">
<path d="M23.5026 43.0827C18.2477 38.6111 14.3229 34.4578 11.7281 30.6228C9.13333 26.7877 7.83594 23.2382 7.83594 19.9743C7.83594 15.0785 9.41076 11.1782 12.5604 8.27331C15.7101 5.36845 19.3575 3.91602 23.5026 3.91602C27.6477 3.91602 31.2951 5.36845 34.4448 8.27331C37.5944 11.1782 39.1693 15.0785 39.1693 19.9743L43.2818 15.8618L46.0234 18.6035L37.2109 27.416L28.3984 18.6035L31.1401 15.8618L35.2526 19.9743C35.2526 16.4167 34.1184 13.5037 31.85 11.2353C29.5816 8.96688 26.7991 7.83268 23.5026 7.83268C20.2061 7.83268 17.4236 8.96688 15.1552 11.2353C12.8868 13.5037 11.7526 16.4167 11.7526 19.9743C11.7526 22.2917 12.7155 24.9436 14.6411 27.9301C16.5668 30.9165 19.5207 34.2375 23.5026 37.8931C24.1554 37.3056 24.7592 36.7344 25.3141 36.1795L26.9786 34.515C26.8155 34.1886 26.6849 33.8377 26.587 33.4624C26.4891 33.087 26.4401 32.7035 26.4401 32.3118C26.4401 30.941 26.9134 29.7823 27.8599 28.8358C28.8064 27.8893 29.9651 27.416 31.3359 27.416C32.7068 27.416 33.8655 27.8893 34.812 28.8358C35.7585 29.7823 36.2318 30.941 36.2318 32.3118C36.2318 33.6827 35.7585 34.8414 34.812 35.7879C33.8655 36.7344 32.7068 37.2077 31.3359 37.2077C31.0748 37.2077 30.8382 37.1914 30.626 37.1587C30.4139 37.1261 30.1936 37.0771 29.9651 37.0118C29.0186 37.991 28.0149 38.9865 26.9542 39.9983C25.8934 41.0101 24.7429 42.0382 23.5026 43.0827Z" fill="#FE6100"/>
</svg>
