<svg xmlns="http://www.w3.org/2000/svg" xmlns:xlink="http://www.w3.org/1999/xlink" width="500" zoomAndPan="magnify" viewBox="0 0 375 374.999991" height="500" preserveAspectRatio="xMidYMid meet" version="1.0"><defs><clipPath id="82d37cedc0"><path d="M 144.027344 219 L 231.027344 219 L 231.027344 274.375 L 144.027344 274.375 Z M 144.027344 219 " clip-rule="nonzero"/></clipPath><clipPath id="852128210d"><path d="M 152 219 L 227 219 L 227 274.375 L 152 274.375 Z M 152 219 " clip-rule="nonzero"/></clipPath><clipPath id="f290706fa5"><path d="M 161 219 L 218 219 L 218 274.375 L 161 274.375 Z M 161 219 " clip-rule="nonzero"/></clipPath><clipPath id="3c38e7fe10"><path d="M 157 242 L 223 242 L 223 274.375 L 157 274.375 Z M 157 242 " clip-rule="nonzero"/></clipPath><clipPath id="c4f2995b91"><path d="M 186 161.125 L 193 161.125 L 193 171 L 186 171 Z M 186 161.125 " clip-rule="nonzero"/></clipPath><clipPath id="a1be6743a8"><path d="M 218 225 L 231.027344 225 L 231.027344 274.375 L 218 274.375 Z M 218 225 " clip-rule="nonzero"/></clipPath><clipPath id="0f520c8944"><path d="M 218 225 L 231.027344 225 L 231.027344 259 L 218 259 Z M 218 225 " clip-rule="nonzero"/></clipPath><clipPath id="e036bb4ef1"><path d="M 50.3125 100.417969 L 324.8125 100.417969 L 324.8125 221.917969 L 50.3125 221.917969 Z M 50.3125 100.417969 " clip-rule="nonzero"/></clipPath></defs><g clip-path="url(#82d37cedc0)"><path fill="#a7a9ac" d="M 144.109375 274.375 L 234.984375 274.375 L 203.746094 219.367188 L 175.347656 219.367188 Z M 144.109375 274.375 " fill-opacity="1" fill-rule="nonzero"/></g><g clip-path="url(#852128210d)"><path fill="#58595b" d="M 152.628906 274.375 L 226.464844 274.375 L 198.066406 219.367188 L 181.027344 219.367188 Z M 152.628906 274.375 " fill-opacity="1" fill-rule="nonzero"/></g><g clip-path="url(#f290706fa5)"><path fill="#808285" d="M 161.148438 274.375 L 217.945312 274.375 L 192.386719 219.367188 L 186.707031 219.367188 Z M 161.148438 274.375 " fill-opacity="1" fill-rule="nonzero"/></g><g clip-path="url(#3c38e7fe10)"><path fill="#a7a9ac" d="M 222.003906 271.136719 C 222.003906 272.925781 220.550781 274.375 218.757812 274.375 L 160.335938 274.375 C 158.542969 274.375 157.089844 272.925781 157.089844 271.136719 C 157.089844 269.347656 158.542969 267.902344 160.335938 267.902344 L 218.757812 267.902344 C 220.550781 267.902344 222.003906 269.347656 222.003906 271.136719 Z M 215.511719 258.195312 C 215.511719 259.984375 214.0625 261.429688 212.265625 261.429688 L 166.828125 261.429688 C 165.035156 261.429688 163.582031 259.984375 163.582031 258.195312 C 163.582031 256.40625 165.035156 254.960938 166.828125 254.960938 L 212.265625 254.960938 C 214.0625 254.960938 215.511719 256.40625 215.511719 258.195312 Z M 209.019531 245.253906 C 209.019531 247.042969 207.570312 248.488281 205.773438 248.488281 L 173.320312 248.488281 C 171.527344 248.488281 170.074219 247.042969 170.074219 245.253906 C 170.074219 243.460938 171.527344 242.015625 173.320312 242.015625 L 205.773438 242.015625 C 207.570312 242.015625 209.019531 243.460938 209.019531 245.253906 Z M 209.019531 245.253906 " fill-opacity="1" fill-rule="nonzero"/></g><path fill="#58595b" d="M 166.488281 234.960938 C 169.683594 238.929688 173.921875 242.015625 178.1875 242.015625 L 200.90625 242.015625 C 205.167969 242.015625 209.410156 238.925781 212.605469 234.960938 L 205.367188 222.21875 C 201.507812 222.535156 196.425781 222.601562 189.546875 222.601562 C 182.546875 222.601562 177.40625 222.675781 173.523438 222.578125 Z M 166.488281 234.960938 " fill-opacity="1" fill-rule="nonzero"/><g clip-path="url(#c4f2995b91)"><path fill="#414042" d="M 192.792969 167.59375 C 192.792969 169.382812 191.339844 170.832031 189.546875 170.832031 C 187.753906 170.832031 186.300781 169.382812 186.300781 167.59375 L 186.300781 164.359375 C 186.300781 162.574219 187.753906 161.125 189.546875 161.125 C 191.339844 161.125 192.792969 162.574219 192.792969 164.359375 Z M 192.792969 167.59375 " fill-opacity="1" fill-rule="nonzero"/></g><path fill="#6d6e71" d="M 202.527344 174.066406 C 202.527344 177.636719 199.621094 180.539062 196.039062 180.539062 L 183.054688 180.539062 C 179.472656 180.539062 176.5625 177.636719 176.5625 174.066406 C 176.5625 170.492188 179.472656 167.59375 183.054688 167.59375 L 196.039062 167.59375 C 199.621094 167.59375 202.527344 170.492188 202.527344 174.066406 Z M 202.527344 174.066406 " fill-opacity="1" fill-rule="nonzero"/><path fill="#d1d3d4" d="M 218.757812 216.128906 C 218.757812 223.277344 207.683594 232.308594 201.230469 232.308594 L 177.863281 232.308594 C 171.410156 232.308594 160.335938 223.277344 160.335938 216.128906 L 160.335938 183.773438 C 160.335938 176.625 165.566406 170.832031 172.019531 170.832031 L 207.074219 170.832031 C 213.527344 170.832031 218.757812 176.625 218.757812 183.773438 Z M 218.757812 216.128906 " fill-opacity="1" fill-rule="nonzero"/><path fill="#808285" d="M 212.265625 209.660156 C 212.265625 216.808594 206.453125 222.601562 199.285156 222.601562 L 179.808594 222.601562 C 172.640625 222.601562 166.828125 216.808594 166.828125 209.660156 L 166.828125 193.480469 C 166.828125 186.332031 172.640625 183.773438 179.808594 183.773438 L 199.285156 183.773438 C 206.453125 183.773438 212.265625 186.332031 212.265625 193.480469 Z M 212.265625 209.660156 " fill-opacity="1" fill-rule="nonzero"/><path fill="#55acee" d="M 179.808594 206.421875 L 199.285156 206.421875 C 206.453125 206.421875 212.265625 200.628906 212.265625 193.480469 L 212.265625 190.246094 L 166.828125 190.246094 L 166.828125 193.480469 C 166.828125 200.628906 172.640625 206.421875 179.808594 206.421875 Z M 179.808594 206.421875 " fill-opacity="1" fill-rule="nonzero"/><path fill="#5c913b" d="M 189.546875 222.601562 C 169.097656 222.601562 163.976562 216.773438 160.335938 212.113281 L 160.335938 216.128906 C 160.335938 223.277344 169.097656 235.546875 177.863281 235.546875 L 201.230469 235.546875 C 209.996094 235.546875 218.757812 223.277344 218.757812 216.128906 L 218.757812 210.011719 C 215.117188 215.609375 209.996094 222.601562 189.546875 222.601562 Z M 189.546875 222.601562 " fill-opacity="1" fill-rule="nonzero"/><path fill="#ffd983" d="M 179.808594 214.511719 C 179.808594 217.191406 177.628906 219.367188 174.941406 219.367188 C 172.25 219.367188 170.074219 217.191406 170.074219 214.511719 C 170.074219 211.832031 172.25 209.660156 174.941406 209.660156 C 177.628906 209.660156 179.808594 211.832031 179.808594 214.511719 Z M 209.019531 214.511719 C 209.019531 217.191406 206.839844 219.367188 204.152344 219.367188 C 201.464844 219.367188 199.285156 217.191406 199.285156 214.511719 C 199.285156 211.832031 201.464844 209.660156 204.152344 209.660156 C 206.839844 209.660156 209.019531 211.832031 209.019531 214.511719 Z M 209.019531 214.511719 " fill-opacity="1" fill-rule="nonzero"/><path fill="#292f33" d="M 212.265625 190.246094 L 212.265625 183.773438 C 212.265625 180.203125 209.359375 177.300781 205.773438 177.300781 L 173.320312 177.300781 C 169.734375 177.300781 166.828125 180.203125 166.828125 183.773438 L 166.828125 190.246094 Z M 212.265625 190.246094 " fill-opacity="1" fill-rule="nonzero"/><path fill="#6d6e71" d="M 199.285156 183.773438 C 199.285156 185.558594 197.832031 187.007812 196.039062 187.007812 L 183.054688 187.007812 C 181.265625 187.007812 179.808594 185.558594 179.808594 183.773438 C 179.808594 181.988281 181.265625 180.539062 183.054688 180.539062 L 196.039062 180.539062 C 197.832031 180.539062 199.285156 181.988281 199.285156 183.773438 Z M 199.285156 183.773438 " fill-opacity="1" fill-rule="nonzero"/><g clip-path="url(#a1be6743a8)"><path fill="#58595b" d="M 218.757812 232.113281 L 247.96875 274.375 L 260.949219 274.375 L 260.949219 258.195312 L 247.96875 258.195312 L 218.757812 225.835938 Z M 218.757812 232.113281 " fill-opacity="1" fill-rule="nonzero"/></g><g clip-path="url(#0f520c8944)"><path fill="#a7a9ac" d="M 260.949219 258.195312 L 260.949219 225.835938 L 218.757812 225.835938 L 247.96875 258.195312 Z M 260.949219 258.195312 " fill-opacity="1" fill-rule="nonzero"/></g><path fill="#000000" d="M 167.621094 162.199219 C 168.070312 162.199219 168.503906 162.113281 168.914062 161.9375 C 170.3125 161.347656 171.746094 160.796875 173.175781 160.300781 C 173.59375 160.15625 173.96875 159.9375 174.300781 159.644531 C 174.632812 159.347656 174.894531 159.003906 175.089844 158.601562 C 175.28125 158.203125 175.390625 157.785156 175.417969 157.339844 C 175.445312 156.898438 175.382812 156.46875 175.238281 156.046875 C 175.09375 155.628906 174.871094 155.253906 174.578125 154.925781 C 174.28125 154.59375 173.9375 154.332031 173.535156 154.136719 C 173.136719 153.945312 172.714844 153.835938 172.273438 153.8125 C 171.832031 153.789062 171.402344 153.847656 170.984375 153.996094 C 169.417969 154.539062 167.855469 155.140625 166.328125 155.785156 C 165.972656 155.933594 165.652344 156.136719 165.367188 156.398438 C 165.082031 156.65625 164.851562 156.957031 164.671875 157.300781 C 164.488281 157.640625 164.371094 158 164.316406 158.382812 C 164.261719 158.765625 164.273438 159.144531 164.347656 159.523438 C 164.425781 159.898438 164.5625 160.253906 164.761719 160.585938 C 164.960938 160.914062 165.210938 161.203125 165.507812 161.445312 C 165.804688 161.691406 166.136719 161.875 166.5 162.003906 C 166.863281 162.136719 167.238281 162.199219 167.621094 162.199219 Z M 167.621094 162.199219 " fill-opacity="1" fill-rule="nonzero"/><path fill="#000000" d="M 129.15625 198.523438 C 129.792969 198.523438 130.382812 198.355469 130.925781 198.019531 C 131.464844 197.683594 131.875 197.226562 132.15625 196.652344 C 134.949219 190.957031 138.433594 185.722656 142.609375 180.945312 C 146.785156 176.167969 151.507812 172.011719 156.777344 168.484375 C 157.148438 168.234375 157.453125 167.929688 157.699219 167.558594 C 157.945312 167.191406 158.109375 166.789062 158.195312 166.355469 C 158.28125 165.921875 158.28125 165.488281 158.195312 165.054688 C 158.105469 164.621094 157.941406 164.21875 157.695312 163.851562 C 157.449219 163.484375 157.140625 163.175781 156.773438 162.933594 C 156.402344 162.6875 156.003906 162.519531 155.566406 162.433594 C 155.132812 162.347656 154.699219 162.351562 154.265625 162.4375 C 153.832031 162.523438 153.429688 162.691406 153.0625 162.9375 C 147.304688 166.792969 142.144531 171.332031 137.585938 176.554688 C 133.023438 181.773438 129.214844 187.496094 126.164062 193.71875 C 126.039062 193.972656 125.949219 194.238281 125.890625 194.515625 C 125.835938 194.792969 125.8125 195.074219 125.828125 195.355469 C 125.84375 195.640625 125.890625 195.917969 125.976562 196.1875 C 126.0625 196.457031 126.179688 196.710938 126.328125 196.953125 C 126.476562 197.191406 126.65625 197.410156 126.859375 197.605469 C 127.066406 197.800781 127.292969 197.96875 127.539062 198.105469 C 127.789062 198.242188 128.046875 198.347656 128.324219 198.417969 C 128.597656 198.488281 128.875 198.523438 129.160156 198.523438 Z M 129.15625 198.523438 " fill-opacity="1" fill-rule="nonzero"/><g clip-path="url(#e036bb4ef1)"><path fill="#000000" d="M 321.039062 100.417969 L 54.085938 100.417969 C 53.644531 100.417969 53.21875 100.503906 52.808594 100.671875 C 52.402344 100.839844 52.039062 101.082031 51.726562 101.394531 C 51.414062 101.707031 51.171875 102.070312 51.003906 102.480469 C 50.835938 102.886719 50.75 103.3125 50.75 103.757812 L 50.75 122.332031 C 50.75 122.773438 50.835938 123.199219 51.003906 123.609375 C 51.171875 124.019531 51.414062 124.378906 51.726562 124.691406 C 52.039062 125.003906 52.402344 125.246094 52.808594 125.414062 C 53.21875 125.585938 53.644531 125.667969 54.085938 125.667969 C 54.527344 125.667969 54.953125 125.585938 55.363281 125.414062 C 55.773438 125.246094 56.132812 125.003906 56.445312 124.691406 C 56.757812 124.378906 57 124.019531 57.167969 123.609375 C 57.339844 123.199219 57.421875 122.773438 57.421875 122.332031 L 57.421875 107.09375 L 64.730469 107.09375 L 64.730469 215.132812 L 57.421875 215.132812 L 57.421875 151.261719 C 57.421875 150.816406 57.339844 150.390625 57.167969 149.984375 C 57 149.574219 56.757812 149.210938 56.445312 148.898438 C 56.132812 148.585938 55.773438 148.34375 55.363281 148.175781 C 54.953125 148.007812 54.527344 147.921875 54.085938 147.921875 C 53.644531 147.921875 53.21875 148.007812 52.808594 148.175781 C 52.402344 148.34375 52.039062 148.585938 51.726562 148.898438 C 51.414062 149.210938 51.171875 149.574219 51.003906 149.984375 C 50.835938 150.390625 50.75 150.816406 50.75 151.261719 L 50.75 218.46875 C 50.75 218.910156 50.835938 219.335938 51.003906 219.746094 C 51.171875 220.15625 51.414062 220.515625 51.726562 220.828125 C 52.039062 221.140625 52.402344 221.382812 52.808594 221.554688 C 53.21875 221.722656 53.644531 221.808594 54.085938 221.808594 L 111.730469 221.914062 C 112.164062 221.882812 112.578125 221.773438 112.96875 221.585938 C 113.359375 221.394531 113.703125 221.140625 114 220.824219 C 114.292969 220.503906 114.519531 220.140625 114.675781 219.734375 C 114.832031 219.332031 114.910156 218.910156 114.90625 218.476562 C 114.960938 178.96875 147.246094 146.847656 186.921875 146.847656 C 226.597656 146.847656 258.878906 178.96875 258.9375 218.46875 C 258.933594 218.902344 259.011719 219.324219 259.167969 219.730469 C 259.324219 220.136719 259.550781 220.496094 259.84375 220.816406 C 260.136719 221.136719 260.480469 221.390625 260.871094 221.582031 C 261.261719 221.769531 261.675781 221.882812 262.109375 221.914062 L 321.039062 221.808594 C 321.480469 221.808594 321.90625 221.722656 322.316406 221.554688 C 322.722656 221.382812 323.085938 221.140625 323.398438 220.828125 C 323.710938 220.515625 323.953125 220.15625 324.121094 219.746094 C 324.289062 219.335938 324.375 218.910156 324.375 218.46875 L 324.375 103.757812 C 324.375 103.3125 324.289062 102.886719 324.121094 102.480469 C 323.953125 102.070312 323.710938 101.707031 323.398438 101.394531 C 323.085938 101.082031 322.722656 100.839844 322.316406 100.671875 C 321.90625 100.503906 321.480469 100.417969 321.039062 100.417969 Z M 246.527344 107.09375 L 261.746094 107.09375 L 261.746094 168.988281 C 257.425781 162.492188 252.351562 156.648438 246.527344 151.460938 Z M 224.636719 107.09375 L 239.855469 107.09375 L 239.855469 146.054688 C 235.078125 142.542969 230.003906 139.53125 224.636719 137.015625 Z M 202.746094 107.09375 L 217.964844 107.09375 L 217.964844 134.21875 C 213.015625 132.371094 207.941406 130.972656 202.746094 130.019531 Z M 180.855469 107.09375 L 196.070312 107.09375 L 196.070312 129.050781 C 192.839844 128.703125 189.597656 128.53125 186.347656 128.527344 C 184.503906 128.527344 182.671875 128.589844 180.855469 128.699219 Z M 158.964844 107.09375 L 174.183594 107.09375 L 174.183594 129.347656 C 169.011719 130.042969 163.9375 131.179688 158.964844 132.757812 Z M 137.074219 107.09375 L 152.292969 107.09375 L 152.292969 135.171875 C 146.964844 137.335938 141.894531 139.988281 137.074219 143.125 Z M 115.183594 107.09375 L 130.402344 107.09375 L 130.402344 147.914062 C 124.722656 152.382812 119.652344 157.457031 115.183594 163.136719 Z M 86.621094 215.132812 L 71.402344 215.132812 L 71.402344 107.09375 L 86.621094 107.09375 Z M 93.296875 215.132812 L 93.296875 107.09375 L 108.511719 107.09375 L 108.511719 172.878906 C 104.699219 179.289062 101.738281 186.070312 99.628906 193.222656 C 97.519531 200.375 96.324219 207.679688 96.042969 215.132812 Z M 265.539062 215.132812 C 263.71875 173.492188 229.152344 140.171875 186.921875 140.171875 C 144.691406 140.171875 110.125 173.492188 108.308594 215.132812 L 102.722656 215.132812 C 104.542969 170.75 141.355469 135.203125 186.351562 135.203125 C 231.347656 135.203125 268.15625 170.753906 269.976562 215.132812 Z M 283.636719 215.132812 L 276.65625 215.132812 C 276.4375 209.207031 275.632812 203.363281 274.246094 197.601562 C 272.859375 191.839844 270.917969 186.269531 268.417969 180.894531 L 268.417969 107.09375 L 283.636719 107.09375 Z M 305.527344 215.132812 L 290.308594 215.132812 L 290.308594 107.09375 L 305.527344 107.09375 Z M 317.703125 215.132812 L 312.199219 215.132812 L 312.199219 107.09375 L 317.703125 107.09375 Z M 317.703125 215.132812 " fill-opacity="1" fill-rule="nonzero"/></g></svg>