<svg xmlns="http://www.w3.org/2000/svg" xmlns:xlink="http://www.w3.org/1999/xlink" width="500" zoomAndPan="magnify" viewBox="0 0 375 374.999991" height="500" preserveAspectRatio="xMidYMid meet" version="1.0"><defs><clipPath id="29e884dfad"><path d="M 197.359375 178.269531 L 326 178.269531 L 326 207 L 197.359375 207 Z M 197.359375 178.269531 " clip-rule="nonzero"/></clipPath><clipPath id="b1b5e7f9ca"><path d="M 197.359375 197 L 326 197 L 326 207 L 197.359375 207 Z M 197.359375 197 " clip-rule="nonzero"/></clipPath><clipPath id="a38f3a8cfc"><path d="M 206 204 L 315 204 L 315 209.019531 L 206 209.019531 Z M 206 204 " clip-rule="nonzero"/></clipPath><clipPath id="82b4016768"><path d="M 69 178.269531 L 197.4375 178.269531 L 197.4375 207 L 69 207 Z M 69 178.269531 " clip-rule="nonzero"/></clipPath><clipPath id="dabddf38c8"><path d="M 69 197 L 197.4375 197 L 197.4375 207 L 69 207 Z M 69 197 " clip-rule="nonzero"/></clipPath><clipPath id="7055124026"><path d="M 80 204 L 189 204 L 189 209.019531 L 80 209.019531 Z M 80 204 " clip-rule="nonzero"/></clipPath><clipPath id="871feca58f"><path d="M 48 150.964844 L 338 150.964844 L 338 223.714844 L 48 223.714844 Z M 48 150.964844 " clip-rule="nonzero"/></clipPath><clipPath id="19519df663"><path d="M 241 211 L 350.980469 211 L 350.980469 223.714844 L 241 223.714844 Z M 241 211 " clip-rule="nonzero"/></clipPath></defs><g clip-path="url(#29e884dfad)"><path fill="#17b2df" d="M 321.570312 206.578125 L 200.878906 206.578125 C 197.347656 206.699219 197.523438 204.363281 197.523438 202.890625 L 197.523438 183.160156 C 197.363281 178.386719 202.316406 178.632812 204.285156 178.632812 L 296.582031 178.632812 C 300.113281 178.699219 302.351562 179.152344 304.222656 179.941406 C 309.453125 182.164062 320.992188 188.410156 325.21875 202.867188 C 326.257812 206.640625 323.234375 206.523438 321.570312 206.578125 Z M 321.570312 206.578125 " fill-opacity="1" fill-rule="nonzero"/></g><g clip-path="url(#b1b5e7f9ca)"><path fill="#c54b47" d="M 197.523438 197.691406 C 201.792969 197.625 207.207031 199.175781 211.484375 200.734375 C 218.441406 203.261719 227.453125 202.628906 235.199219 199.78125 C 242.945312 196.9375 249.113281 200.574219 254.648438 201.523438 C 260.183594 202.472656 259.707031 202.472656 265.714844 199.625 C 271.722656 196.777344 279.628906 202.15625 285.480469 202.3125 C 291.332031 202.46875 293.542969 199.625 299.867188 200.574219 C 306.191406 201.523438 309.195312 203.578125 313.78125 200.890625 C 316.613281 199.230469 321.675781 201.007812 325.132812 202.609375 C 325.160156 202.695312 325.1875 202.777344 325.214844 202.863281 C 326.257812 206.636719 323.230469 206.523438 321.570312 206.578125 L 200.878906 206.578125 C 197.347656 206.699219 197.523438 204.363281 197.523438 202.890625 Z M 197.523438 197.691406 " fill-opacity="1" fill-rule="nonzero"/></g><path fill="#bfd7d6" d="M 309.125 182.429688 C 313.027344 184.761719 317.707031 188.460938 321.269531 194.097656 L 308.898438 188.351562 C 308.515625 188.171875 308.136719 188.011719 308.136719 187.59375 L 308.136719 183.1875 C 308.136719 182.765625 308.472656 182.429688 308.898438 182.429688 Z M 305.210938 182.429688 C 305.636719 182.429688 305.972656 182.769531 305.972656 183.1875 L 305.972656 187.59375 C 305.972656 188.015625 305.632812 188.351562 305.210938 188.351562 L 278.226562 188.351562 C 277.800781 188.351562 277.460938 188.011719 277.460938 187.59375 L 277.460938 183.1875 C 277.460938 182.765625 277.800781 182.429688 278.226562 182.429688 Z M 273.605469 182.429688 C 274.628906 182.429688 275.457031 183.257812 275.457031 184.285156 L 275.457031 206.578125 L 261.8125 206.578125 L 261.8125 184.285156 C 261.8125 183.257812 262.640625 182.429688 263.667969 182.429688 Z M 259.359375 182.429688 C 259.78125 182.429688 260.117188 182.769531 260.117188 183.1875 L 260.117188 187.59375 C 260.117188 188.015625 259.777344 188.351562 259.359375 188.351562 L 232.371094 188.351562 C 231.949219 188.351562 231.609375 188.011719 231.609375 187.59375 L 231.609375 183.1875 C 231.609375 182.765625 231.949219 182.429688 232.371094 182.429688 Z M 228.050781 182.429688 C 228.476562 182.429688 228.8125 182.769531 228.8125 183.1875 L 228.8125 187.59375 C 228.8125 188.015625 228.472656 188.351562 228.050781 188.351562 L 201.066406 188.351562 C 200.640625 188.351562 200.300781 188.011719 200.300781 187.59375 L 200.300781 183.1875 C 200.300781 182.765625 200.640625 182.429688 201.066406 182.429688 Z M 228.050781 182.429688 " fill-opacity="1" fill-rule="nonzero"/><path fill="#03689a" d="M 302.933594 183.351562 C 303.222656 183.351562 303.460938 183.585938 303.460938 183.878906 L 303.460938 186.914062 C 303.460938 187.203125 303.226562 187.4375 302.933594 187.4375 L 299.734375 187.4375 C 299.445312 187.4375 299.207031 187.203125 299.207031 186.914062 L 299.207031 183.878906 C 299.207031 183.589844 299.441406 183.351562 299.734375 183.351562 Z M 297.0625 183.351562 C 297.355469 183.351562 297.585938 183.585938 297.585938 183.878906 L 297.585938 186.914062 C 297.585938 187.203125 297.355469 187.4375 297.0625 187.4375 L 293.867188 187.4375 C 293.574219 187.4375 293.339844 187.203125 293.339844 186.914062 L 293.339844 183.878906 C 293.339844 183.589844 293.570312 183.351562 293.867188 183.351562 Z M 289.652344 183.351562 C 289.941406 183.351562 290.179688 183.585938 290.179688 183.878906 L 290.179688 186.914062 C 290.179688 187.203125 289.945312 187.4375 289.652344 187.4375 L 286.453125 187.4375 C 286.164062 187.4375 285.925781 187.203125 285.925781 186.914062 L 285.925781 183.878906 C 285.925781 183.589844 286.160156 183.351562 286.453125 183.351562 Z M 283.78125 183.351562 C 284.074219 183.351562 284.304688 183.585938 284.304688 183.878906 L 284.304688 186.914062 C 284.304688 187.203125 284.074219 187.4375 283.78125 187.4375 L 280.585938 187.4375 C 280.292969 187.4375 280.058594 187.203125 280.058594 186.914062 L 280.058594 183.878906 C 280.058594 183.589844 280.289062 183.351562 280.585938 183.351562 Z M 256.921875 183.351562 C 257.210938 183.351562 257.449219 183.585938 257.449219 183.878906 L 257.449219 186.914062 C 257.449219 187.203125 257.214844 187.4375 256.921875 187.4375 L 253.722656 187.4375 C 253.433594 187.4375 253.199219 187.203125 253.199219 186.914062 L 253.199219 183.878906 C 253.199219 183.589844 253.429688 183.351562 253.722656 183.351562 Z M 251.054688 183.351562 C 251.34375 183.351562 251.574219 183.585938 251.574219 183.878906 L 251.574219 186.914062 C 251.574219 187.203125 251.34375 187.4375 251.054688 187.4375 L 247.855469 187.4375 C 247.566406 187.4375 247.328125 187.203125 247.328125 186.914062 L 247.328125 183.878906 C 247.328125 183.589844 247.5625 183.351562 247.855469 183.351562 Z M 243.640625 183.351562 C 243.929688 183.351562 244.167969 183.585938 244.167969 183.878906 L 244.167969 186.914062 C 244.167969 187.203125 243.933594 187.4375 243.640625 187.4375 L 240.445312 187.4375 C 240.152344 187.4375 239.917969 187.203125 239.917969 186.914062 L 239.917969 183.878906 C 239.917969 183.589844 240.148438 183.351562 240.445312 183.351562 Z M 237.773438 183.351562 C 238.0625 183.351562 238.292969 183.585938 238.292969 183.878906 L 238.292969 186.914062 C 238.292969 187.203125 238.0625 187.4375 237.773438 187.4375 L 234.574219 187.4375 C 234.285156 187.4375 234.046875 187.203125 234.046875 186.914062 L 234.046875 183.878906 C 234.046875 183.589844 234.28125 183.351562 234.574219 183.351562 Z M 225.617188 183.351562 C 225.90625 183.351562 226.144531 183.585938 226.144531 183.878906 L 226.144531 186.914062 C 226.144531 187.203125 225.910156 187.4375 225.617188 187.4375 L 222.417969 187.4375 C 222.128906 187.4375 221.890625 187.203125 221.890625 186.914062 L 221.890625 183.878906 C 221.890625 183.589844 222.125 183.351562 222.417969 183.351562 Z M 219.746094 183.351562 C 220.039062 183.351562 220.269531 183.585938 220.269531 183.878906 L 220.269531 186.914062 C 220.269531 187.203125 220.039062 187.4375 219.746094 187.4375 L 216.550781 187.4375 C 216.257812 187.4375 216.023438 187.203125 216.023438 186.914062 L 216.023438 183.878906 C 216.023438 183.589844 216.253906 183.351562 216.550781 183.351562 Z M 212.335938 183.351562 C 212.625 183.351562 212.863281 183.585938 212.863281 183.878906 L 212.863281 186.914062 C 212.863281 187.203125 212.628906 187.4375 212.335938 187.4375 L 209.136719 187.4375 C 208.847656 187.4375 208.609375 187.203125 208.609375 186.914062 L 208.609375 183.878906 C 208.609375 183.589844 208.84375 183.351562 209.136719 183.351562 Z M 206.464844 183.351562 C 206.757812 183.351562 206.988281 183.585938 206.988281 183.878906 L 206.988281 186.914062 C 206.988281 187.203125 206.757812 187.4375 206.464844 187.4375 L 203.269531 187.4375 C 202.976562 187.4375 202.742188 187.203125 202.742188 186.914062 L 202.742188 183.878906 C 202.742188 183.589844 202.972656 183.351562 203.269531 183.351562 Z M 273.167969 183.855469 C 273.460938 183.855469 273.695312 184.089844 273.695312 184.382812 L 273.695312 187.417969 C 273.695312 187.707031 273.460938 187.941406 273.167969 187.941406 L 269.972656 187.941406 C 269.679688 187.941406 269.445312 187.707031 269.445312 187.417969 L 269.445312 184.382812 C 269.445312 184.09375 269.675781 183.855469 269.972656 183.855469 Z M 267.300781 183.855469 C 267.589844 183.855469 267.820312 184.089844 267.820312 184.382812 L 267.820312 187.417969 C 267.820312 187.707031 267.589844 187.941406 267.300781 187.941406 L 264.101562 187.941406 C 263.8125 187.941406 263.574219 187.707031 263.574219 187.417969 L 263.574219 184.382812 C 263.574219 184.09375 263.808594 183.855469 264.101562 183.855469 Z M 267.300781 183.855469 " fill-opacity="1" fill-rule="nonzero"/><g clip-path="url(#a38f3a8cfc)"><path fill="#000000" d="M 311.671875 204.054688 C 313.070312 204.054688 314.203125 205.1875 314.203125 206.582031 C 314.203125 207.980469 313.070312 209.113281 311.671875 209.113281 C 310.277344 209.113281 309.140625 207.980469 309.140625 206.582031 C 309.144531 205.1875 310.277344 204.054688 311.671875 204.054688 Z M 296.242188 204.054688 C 297.640625 204.054688 298.773438 205.1875 298.773438 206.582031 C 298.773438 207.980469 297.640625 209.113281 296.242188 209.113281 C 294.847656 209.113281 293.710938 207.980469 293.710938 206.582031 C 293.714844 205.1875 294.847656 204.054688 296.242188 204.054688 Z M 281.488281 204.054688 C 282.886719 204.054688 284.019531 205.1875 284.019531 206.582031 C 284.019531 207.980469 282.886719 209.113281 281.488281 209.113281 C 280.09375 209.113281 278.957031 207.980469 278.957031 206.582031 C 278.957031 205.1875 280.09375 204.054688 281.488281 204.054688 Z M 266.058594 204.054688 C 267.457031 204.054688 268.589844 205.1875 268.589844 206.582031 C 268.589844 207.980469 267.457031 209.113281 266.058594 209.113281 C 264.664062 209.113281 263.527344 207.980469 263.527344 206.582031 C 263.527344 205.1875 264.664062 204.054688 266.058594 204.054688 Z M 252.195312 204.054688 C 253.589844 204.054688 254.722656 205.1875 254.722656 206.582031 C 254.722656 207.980469 253.589844 209.113281 252.195312 209.113281 C 250.796875 209.113281 249.664062 207.980469 249.664062 206.582031 C 249.664062 205.1875 250.796875 204.054688 252.195312 204.054688 Z M 236.765625 204.054688 C 238.160156 204.054688 239.292969 205.1875 239.292969 206.582031 C 239.292969 207.980469 238.160156 209.113281 236.765625 209.113281 C 235.367188 209.113281 234.234375 207.980469 234.234375 206.582031 C 234.238281 205.1875 235.367188 204.054688 236.765625 204.054688 Z M 224.019531 204.054688 C 225.417969 204.054688 226.550781 205.1875 226.550781 206.582031 C 226.550781 207.980469 225.417969 209.113281 224.019531 209.113281 C 222.625 209.113281 221.492188 207.980469 221.492188 206.582031 C 221.492188 205.1875 222.625 204.054688 224.019531 204.054688 Z M 208.589844 204.054688 C 209.988281 204.054688 211.121094 205.1875 211.121094 206.582031 C 211.121094 207.980469 209.988281 209.113281 208.589844 209.113281 C 207.195312 209.113281 206.0625 207.980469 206.0625 206.582031 C 206.0625 205.1875 207.195312 204.054688 208.589844 204.054688 Z M 208.589844 204.054688 " fill-opacity="1" fill-rule="nonzero"/></g><g clip-path="url(#82b4016768)"><path fill="#17b2df" d="M 73.144531 206.578125 L 193.832031 206.578125 C 197.363281 206.699219 197.1875 204.363281 197.1875 202.890625 L 197.1875 183.160156 C 197.347656 178.386719 192.394531 178.632812 190.425781 178.632812 L 98.128906 178.632812 C 94.601562 178.699219 92.359375 179.152344 90.488281 179.941406 C 85.261719 182.164062 73.71875 188.410156 69.496094 202.867188 C 68.453125 206.640625 71.480469 206.523438 73.144531 206.578125 Z M 73.144531 206.578125 " fill-opacity="1" fill-rule="nonzero"/></g><g clip-path="url(#dabddf38c8)"><path fill="#c54b47" d="M 197.1875 197.691406 C 192.917969 197.625 187.507812 199.175781 183.226562 200.734375 C 176.269531 203.261719 167.261719 202.628906 159.511719 199.78125 C 151.765625 196.9375 145.597656 200.574219 140.066406 201.523438 C 134.53125 202.472656 135.003906 202.472656 128.996094 199.625 C 122.988281 196.777344 115.082031 202.15625 109.230469 202.3125 C 103.382812 202.46875 101.167969 199.625 94.84375 200.574219 C 88.519531 201.523438 85.515625 203.578125 80.929688 200.890625 C 78.097656 199.230469 73.039062 201.007812 69.578125 202.609375 C 69.554688 202.695312 69.527344 202.777344 69.5 202.863281 C 68.453125 206.636719 71.484375 206.523438 73.144531 206.578125 L 193.832031 206.578125 C 197.363281 206.699219 197.1875 204.363281 197.1875 202.890625 Z M 197.1875 197.691406 " fill-opacity="1" fill-rule="nonzero"/></g><path fill="#bfd7d6" d="M 85.589844 182.429688 C 81.683594 184.761719 77.007812 188.460938 73.441406 194.097656 L 85.816406 188.351562 C 86.195312 188.171875 86.578125 188.011719 86.578125 187.59375 L 86.578125 183.1875 C 86.578125 182.765625 86.238281 182.429688 85.816406 182.429688 Z M 89.5 182.429688 C 89.078125 182.429688 88.742188 182.769531 88.742188 183.1875 L 88.742188 187.59375 C 88.742188 188.015625 89.082031 188.351562 89.5 188.351562 L 116.488281 188.351562 C 116.910156 188.351562 117.25 188.011719 117.25 187.59375 L 117.25 183.1875 C 117.25 182.765625 116.910156 182.429688 116.488281 182.429688 Z M 121.109375 182.429688 C 120.082031 182.429688 119.253906 183.257812 119.253906 184.285156 L 119.253906 206.578125 L 132.902344 206.578125 L 132.902344 184.285156 C 132.902344 183.257812 132.074219 182.429688 131.046875 182.429688 Z M 135.355469 182.429688 C 134.933594 182.429688 134.597656 182.769531 134.597656 183.1875 L 134.597656 187.59375 C 134.597656 188.015625 134.933594 188.351562 135.355469 188.351562 L 162.339844 188.351562 C 162.765625 188.351562 163.105469 188.011719 163.105469 187.59375 L 163.105469 183.1875 C 163.105469 182.765625 162.765625 182.429688 162.339844 182.429688 Z M 166.660156 182.429688 C 166.238281 182.429688 165.902344 182.769531 165.902344 183.1875 L 165.902344 187.59375 C 165.902344 188.015625 166.242188 188.351562 166.660156 188.351562 L 193.648438 188.351562 C 194.070312 188.351562 194.410156 188.011719 194.410156 187.59375 L 194.410156 183.1875 C 194.410156 182.765625 194.070312 182.429688 193.648438 182.429688 Z M 166.660156 182.429688 " fill-opacity="1" fill-rule="nonzero"/><path fill="#03689a" d="M 91.78125 183.351562 C 91.488281 183.351562 91.253906 183.585938 91.253906 183.878906 L 91.253906 186.914062 C 91.253906 187.203125 91.484375 187.4375 91.78125 187.4375 L 94.976562 187.4375 C 95.269531 187.4375 95.503906 187.203125 95.503906 186.914062 L 95.503906 183.878906 C 95.503906 183.589844 95.273438 183.351562 94.976562 183.351562 Z M 97.648438 183.351562 C 97.359375 183.351562 97.125 183.585938 97.125 183.878906 L 97.125 186.914062 C 97.125 187.203125 97.359375 187.4375 97.648438 187.4375 L 100.847656 187.4375 C 101.136719 187.4375 101.375 187.203125 101.375 186.914062 L 101.375 183.878906 C 101.375 183.589844 101.140625 183.351562 100.847656 183.351562 Z M 105.0625 183.351562 C 104.769531 183.351562 104.535156 183.585938 104.535156 183.878906 L 104.535156 186.914062 C 104.535156 187.203125 104.765625 187.4375 105.0625 187.4375 L 108.257812 187.4375 C 108.550781 187.4375 108.785156 187.203125 108.785156 186.914062 L 108.785156 183.878906 C 108.785156 183.589844 108.550781 183.351562 108.257812 183.351562 Z M 110.929688 183.351562 C 110.640625 183.351562 110.40625 183.585938 110.40625 183.878906 L 110.40625 186.914062 C 110.40625 187.203125 110.640625 187.4375 110.929688 187.4375 L 114.128906 187.4375 C 114.417969 187.4375 114.65625 187.203125 114.65625 186.914062 L 114.65625 183.878906 C 114.65625 183.589844 114.421875 183.351562 114.128906 183.351562 Z M 137.789062 183.351562 C 137.5 183.351562 137.261719 183.585938 137.261719 183.878906 L 137.261719 186.914062 C 137.261719 187.203125 137.496094 187.4375 137.789062 187.4375 L 140.988281 187.4375 C 141.277344 187.4375 141.515625 187.203125 141.515625 186.914062 L 141.515625 183.878906 C 141.515625 183.589844 141.28125 183.351562 140.988281 183.351562 Z M 143.660156 183.351562 C 143.371094 183.351562 143.136719 183.585938 143.136719 183.878906 L 143.136719 186.914062 C 143.136719 187.203125 143.371094 187.4375 143.660156 187.4375 L 146.859375 187.4375 C 147.148438 187.4375 147.382812 187.203125 147.382812 186.914062 L 147.382812 183.878906 C 147.382812 183.589844 147.152344 183.351562 146.859375 183.351562 Z M 151.070312 183.351562 C 150.78125 183.351562 150.542969 183.585938 150.542969 183.878906 L 150.542969 186.914062 C 150.542969 187.203125 150.777344 187.4375 151.070312 187.4375 L 154.269531 187.4375 C 154.558594 187.4375 154.796875 187.203125 154.796875 186.914062 L 154.796875 183.878906 C 154.796875 183.589844 154.5625 183.351562 154.269531 183.351562 Z M 156.941406 183.351562 C 156.652344 183.351562 156.417969 183.585938 156.417969 183.878906 L 156.417969 186.914062 C 156.417969 187.203125 156.652344 187.4375 156.941406 187.4375 L 160.140625 187.4375 C 160.429688 187.4375 160.664062 187.203125 160.664062 186.914062 L 160.664062 183.878906 C 160.664062 183.589844 160.433594 183.351562 160.140625 183.351562 Z M 169.097656 183.351562 C 168.804688 183.351562 168.570312 183.585938 168.570312 183.878906 L 168.570312 186.914062 C 168.570312 187.203125 168.800781 187.4375 169.097656 187.4375 L 172.292969 187.4375 C 172.585938 187.4375 172.820312 187.203125 172.820312 186.914062 L 172.820312 183.878906 C 172.820312 183.589844 172.589844 183.351562 172.292969 183.351562 Z M 174.964844 183.351562 C 174.675781 183.351562 174.441406 183.585938 174.441406 183.878906 L 174.441406 186.914062 C 174.441406 187.203125 174.675781 187.4375 174.964844 187.4375 L 178.164062 187.4375 C 178.453125 187.4375 178.691406 187.203125 178.691406 186.914062 L 178.691406 183.878906 C 178.691406 183.589844 178.457031 183.351562 178.164062 183.351562 Z M 182.378906 183.351562 C 182.085938 183.351562 181.851562 183.585938 181.851562 183.878906 L 181.851562 186.914062 C 181.851562 187.203125 182.082031 187.4375 182.378906 187.4375 L 185.574219 187.4375 C 185.867188 187.4375 186.101562 187.203125 186.101562 186.914062 L 186.101562 183.878906 C 186.101562 183.589844 185.871094 183.351562 185.574219 183.351562 Z M 188.246094 183.351562 C 187.957031 183.351562 187.722656 183.585938 187.722656 183.878906 L 187.722656 186.914062 C 187.722656 187.203125 187.957031 187.4375 188.246094 187.4375 L 191.445312 187.4375 C 191.734375 187.4375 191.972656 187.203125 191.972656 186.914062 L 191.972656 183.878906 C 191.972656 183.589844 191.738281 183.351562 191.445312 183.351562 Z M 121.542969 183.855469 C 121.253906 183.855469 121.015625 184.089844 121.015625 184.382812 L 121.015625 187.417969 C 121.015625 187.707031 121.25 187.941406 121.542969 187.941406 L 124.742188 187.941406 C 125.03125 187.941406 125.269531 187.707031 125.269531 187.417969 L 125.269531 184.382812 C 125.269531 184.09375 125.035156 183.855469 124.742188 183.855469 Z M 127.414062 183.855469 C 127.125 183.855469 126.890625 184.089844 126.890625 184.382812 L 126.890625 187.417969 C 126.890625 187.707031 127.125 187.941406 127.414062 187.941406 L 130.613281 187.941406 C 130.902344 187.941406 131.136719 187.707031 131.136719 187.417969 L 131.136719 184.382812 C 131.136719 184.09375 130.90625 183.855469 130.613281 183.855469 Z M 127.414062 183.855469 " fill-opacity="1" fill-rule="nonzero"/><g clip-path="url(#7055124026)"><path fill="#000000" d="M 83.039062 204.054688 C 81.644531 204.054688 80.511719 205.1875 80.511719 206.582031 C 80.511719 207.980469 81.644531 209.113281 83.039062 209.113281 C 84.4375 209.113281 85.570312 207.980469 85.570312 206.582031 C 85.566406 205.1875 84.4375 204.054688 83.039062 204.054688 Z M 98.46875 204.054688 C 97.074219 204.054688 95.941406 205.1875 95.941406 206.582031 C 95.941406 207.980469 97.074219 209.113281 98.46875 209.113281 C 99.867188 209.113281 101 207.980469 101 206.582031 C 100.996094 205.1875 99.867188 204.054688 98.46875 204.054688 Z M 113.222656 204.054688 C 111.828125 204.054688 110.695312 205.1875 110.695312 206.582031 C 110.695312 207.980469 111.828125 209.113281 113.222656 209.113281 C 114.621094 209.113281 115.753906 207.980469 115.753906 206.582031 C 115.753906 205.1875 114.621094 204.054688 113.222656 204.054688 Z M 128.652344 204.054688 C 127.257812 204.054688 126.125 205.1875 126.125 206.582031 C 126.125 207.980469 127.257812 209.113281 128.652344 209.113281 C 130.050781 209.113281 131.183594 207.980469 131.183594 206.582031 C 131.183594 205.1875 130.050781 204.054688 128.652344 204.054688 Z M 142.519531 204.054688 C 141.121094 204.054688 139.988281 205.1875 139.988281 206.582031 C 139.988281 207.980469 141.121094 209.113281 142.519531 209.113281 C 143.914062 209.113281 145.050781 207.980469 145.050781 206.582031 C 145.050781 205.1875 143.914062 204.054688 142.519531 204.054688 Z M 157.949219 204.054688 C 156.550781 204.054688 155.417969 205.1875 155.417969 206.582031 C 155.417969 207.980469 156.550781 209.113281 157.949219 209.113281 C 159.34375 209.113281 160.480469 207.980469 160.480469 206.582031 C 160.476562 205.1875 159.34375 204.054688 157.949219 204.054688 Z M 170.691406 204.054688 C 169.292969 204.054688 168.160156 205.1875 168.160156 206.582031 C 168.160156 207.980469 169.292969 209.113281 170.691406 209.113281 C 172.089844 209.113281 173.222656 207.980469 173.222656 206.582031 C 173.222656 205.1875 172.089844 204.054688 170.691406 204.054688 Z M 186.121094 204.054688 C 184.722656 204.054688 183.589844 205.1875 183.589844 206.582031 C 183.589844 207.980469 184.722656 209.113281 186.121094 209.113281 C 187.519531 209.113281 188.652344 207.980469 188.652344 206.582031 C 188.652344 205.1875 187.519531 204.054688 186.121094 204.054688 Z M 186.121094 204.054688 " fill-opacity="1" fill-rule="nonzero"/></g><g clip-path="url(#871feca58f)"><path fill="#4e565a" d="M 72.851562 212.429688 L 313.609375 212.429688 C 288.984375 223.445312 263.875 230.617188 238.429688 235.097656 C 253.925781 230.367188 268.675781 224.515625 282.535156 217.332031 L 103.925781 217.332031 C 117.792969 224.515625 132.539062 230.367188 148.035156 235.097656 C 122.589844 230.617188 97.480469 223.445312 72.851562 212.429688 Z M 170.089844 155.882812 L 170.089844 204.484375 L 192.0625 204.484375 L 192.0625 154.039062 C 184.527344 154.097656 177.179688 154.734375 170.089844 155.882812 Z M 167.75 204.484375 L 167.75 156.28125 C 159.644531 157.734375 151.894531 159.871094 144.621094 162.601562 L 144.621094 204.484375 Z M 216.371094 155.882812 L 216.371094 204.484375 L 194.402344 204.484375 L 194.402344 154.039062 C 201.9375 154.097656 209.285156 154.734375 216.371094 155.882812 Z M 218.714844 204.484375 L 218.714844 156.28125 C 226.820312 157.734375 234.566406 159.871094 241.839844 162.601562 L 241.839844 204.484375 Z M 267.308594 175.882812 L 267.308594 204.484375 L 244.183594 204.484375 L 244.183594 163.503906 C 252.628906 166.871094 260.402344 171.039062 267.308594 175.882812 Z M 269.652344 204.484375 L 269.652344 177.578125 C 279.878906 185.191406 288.046875 194.328125 293.484375 204.484375 Z M 119.152344 175.882812 L 119.152344 204.484375 L 142.277344 204.484375 L 142.277344 163.503906 C 133.832031 166.871094 126.058594 171.039062 119.152344 175.882812 Z M 116.808594 204.484375 L 116.808594 177.578125 C 106.582031 185.191406 98.417969 194.328125 92.980469 204.484375 Z M 193.230469 150.964844 C 244.65625 150.964844 288.34375 173.347656 304.183594 204.484375 L 337.65625 204.484375 L 319.261719 208.773438 L 65.941406 208.773438 L 48.804688 204.484375 L 82.28125 204.484375 C 98.121094 173.347656 141.808594 150.964844 193.230469 150.964844 " fill-opacity="1" fill-rule="evenodd"/></g><g clip-path="url(#19519df663)"><path fill="#809324" d="M 241.628906 238.398438 C 277.824219 238.003906 377.621094 175.859375 460.550781 240.152344 C 369.335938 203.75 277.125 242.445312 241.628906 238.398438 " fill-opacity="1" fill-rule="evenodd"/></g></svg>