<svg xmlns="http://www.w3.org/2000/svg" xmlns:xlink="http://www.w3.org/1999/xlink" width="500" zoomAndPan="magnify" viewBox="0 0 375 374.999991" height="500" preserveAspectRatio="xMidYMid meet" version="1.0"><defs><clipPath id="b56d27d89c"><path d="M 227 346 L 246.757812 346 L 246.757812 346.5 L 227 346.5 Z M 227 346 " clip-rule="nonzero"/></clipPath><clipPath id="e6a1273115"><path d="M 227 344 L 246.757812 344 L 246.757812 346.5 L 227 346.5 Z M 227 344 " clip-rule="nonzero"/></clipPath><clipPath id="9a7fbcd685"><path d="M 128.4375 37.5 L 245 37.5 L 245 346 L 128.4375 346 Z M 128.4375 37.5 " clip-rule="nonzero"/></clipPath><clipPath id="00c978ee7e"><path d="M 135.074219 37.5 L 231.910156 37.5 L 231.910156 53 L 135.074219 53 Z M 135.074219 37.5 " clip-rule="nonzero"/></clipPath><clipPath id="ad0bc5c5de"><path d="M 231.277344 52.765625 L 167.21875 38.828125 L 165.886719 42.976562 L 135.105469 40.984375 L 137.015625 37.609375 L 167.554688 38.828125 L 230.613281 51.273438 L 231.277344 52.765625 " clip-rule="nonzero"/></clipPath><clipPath id="ef093c72a9"><path d="M 231.277344 52.765625 L 167.21875 38.828125 L 165.886719 42.976562 L 135.105469 40.984375 L 137.015625 37.609375 L 167.554688 38.828125 L 230.613281 51.273438 L 231.277344 52.765625 " clip-rule="nonzero"/></clipPath><clipPath id="00d6e0bbc6"><path d="M 227 344.425781 L 233.34375 344.425781 L 233.34375 346.5 L 227 346.5 Z M 227 344.425781 " clip-rule="nonzero"/></clipPath><clipPath id="5a795d272a"><path d="M 128.4375 37.5 L 167 37.5 L 167 46 L 128.4375 46 Z M 128.4375 37.5 " clip-rule="nonzero"/></clipPath></defs><g clip-path="url(#b56d27d89c)"><path fill="#c99bb1" d="M 236.4375 346.515625 L 227.121094 346.015625 L 246.753906 346.015625 L 236.4375 346.515625 " fill-opacity="1" fill-rule="nonzero"/></g><g clip-path="url(#e6a1273115)"><path fill="#ffffff" d="M 227.121094 346.015625 L 246.753906 346.015625 L 244.316406 344.574219 L 233.070312 344.417969 L 230.988281 344.390625 L 228.785156 344.359375 L 227.121094 346.015625 " fill-opacity="1" fill-rule="nonzero"/></g><g clip-path="url(#9a7fbcd685)"><path fill="#ffffff" d="M 230.621094 51.273438 L 167.554688 38.824219 L 137.019531 37.601562 L 134.367188 37.5 L 134.273438 37.5 L 128.621094 45.960938 L 166.382812 45.128906 L 166.578125 44.132812 L 167.214844 40.8125 L 229.445312 55.917969 L 229.148438 158.90625 L 228.613281 344.519531 L 228.613281 345.023438 L 231.925781 345.011719 L 233.078125 345.011719 L 244.335938 344.992188 L 244.3125 344.574219 L 243.019531 305.644531 L 242.0625 276.851562 L 241.949219 273.507812 L 241.546875 261.367188 L 238.09375 157.40625 L 234.578125 51.605469 L 230.621094 51.273438 " fill-opacity="1" fill-rule="nonzero"/></g><g clip-path="url(#00c978ee7e)"><g clip-path="url(#ad0bc5c5de)"><g clip-path="url(#ef093c72a9)"><path fill="#ffffff" d="M 150.574219 2.363281 L 236.863281 40.046875 L 215.808594 88.007812 L 129.523438 50.328125 Z M 150.574219 2.363281 " fill-opacity="1" fill-rule="nonzero"/></g></g></g><path fill="#a8a8a8" d="M 229.445312 55.917969 L 167.21875 40.816406 L 167.617188 40.910156 L 229.445312 55.917969 " fill-opacity="1" fill-rule="nonzero"/><g clip-path="url(#00d6e0bbc6)"><path fill="#a8a8a8" d="M 230.800781 346.015625 L 227.121094 346.015625 L 228.613281 344.527344 L 228.613281 345.023438 L 231.925781 345.011719 L 233.074219 345.011719 L 231.929688 345.015625 L 231.03125 345.8125 L 230.800781 346.015625 " fill-opacity="1" fill-rule="nonzero"/></g><path fill="#a8a8a8" d="M 228.613281 345.023438 L 228.613281 344.527344 L 228.621094 344.523438 L 228.621094 344.519531 L 229.15625 158.90625 L 229.449219 55.917969 L 229.445312 55.917969 L 167.617188 40.910156 L 230.449219 55.585938 L 231.382812 158.53125 L 233.070312 344.417969 L 233.074219 345.011719 L 231.925781 345.011719 L 228.613281 345.023438 " fill-opacity="1" fill-rule="nonzero"/><g clip-path="url(#5a795d272a)"><path fill="#a8a8a8" d="M 128.617188 45.960938 L 134.273438 37.496094 L 134.324219 37.5 L 134.273438 37.5 L 128.621094 45.960938 L 166.382812 45.128906 L 166.578125 44.136719 L 166.386719 45.132812 L 128.617188 45.960938 " fill-opacity="1" fill-rule="nonzero"/><path fill="#a8a8a8" d="M 128.621094 45.960938 L 134.273438 37.5 L 134.324219 37.5 L 134.363281 37.503906 L 132.277344 44.136719 L 166.578125 44.136719 L 166.382812 45.128906 L 128.621094 45.960938 " fill-opacity="1" fill-rule="nonzero"/></g></svg>