<svg xmlns="http://www.w3.org/2000/svg" xmlns:xlink="http://www.w3.org/1999/xlink" width="500" zoomAndPan="magnify" viewBox="0 0 375 374.999991" height="500" preserveAspectRatio="xMidYMid meet" version="1.0"><defs><clipPath id="0297bb9a00"><path d="M 57.59375 57.59375 L 317.09375 57.59375 L 317.09375 317.09375 L 57.59375 317.09375 Z M 57.59375 57.59375 " clip-rule="nonzero"/></clipPath></defs><g clip-path="url(#0297bb9a00)"><path fill="#000000" d="M 66.242188 70.566406 C 66.242188 68.183594 68.183594 66.242188 70.566406 66.242188 L 131.117188 66.242188 C 133.5 66.242188 135.441406 68.183594 135.441406 70.566406 L 135.441406 79.21875 C 135.441406 81.597656 133.5 83.542969 131.117188 83.542969 L 70.566406 83.542969 C 68.183594 83.542969 66.242188 81.597656 66.242188 79.21875 Z M 193.964844 170.042969 C 197.917969 174.976562 202.5625 179.335938 207.699219 183.015625 L 135.441406 183.015625 L 135.441406 170.042969 Z M 247.890625 66.242188 C 281.277344 66.242188 308.441406 93.410156 308.441406 126.792969 C 308.441406 160.175781 281.277344 187.34375 247.890625 187.34375 C 214.507812 187.34375 187.34375 160.175781 187.34375 126.792969 C 187.34375 93.410156 214.507812 66.242188 247.890625 66.242188 Z M 260.867188 200.316406 C 260.867188 202.699219 258.925781 204.640625 256.542969 204.640625 L 79.21875 204.640625 C 76.835938 204.640625 74.890625 202.699219 74.890625 200.316406 L 74.890625 191.667969 L 224.039062 191.667969 C 231.488281 194.421875 239.496094 195.992188 247.890625 195.992188 C 252.335938 195.992188 256.660156 195.535156 260.867188 194.726562 Z M 226.265625 265.191406 C 226.265625 279.90625 227.769531 292.644531 230.726562 303.054688 C 231.21875 304.777344 230.507812 306.078125 230.035156 306.703125 C 229.191406 307.816406 227.921875 308.441406 226.539062 308.441406 L 124.023438 308.441406 C 122.738281 308.441406 121.554688 307.902344 120.726562 306.90625 C 119.898438 305.925781 119.542969 304.675781 119.765625 303.40625 L 122.957031 284.199219 C 125.375 269.769531 119.714844 255.375 108.207031 246.640625 C 98.003906 238.886719 86.058594 227.09375 83.914062 213.292969 L 246.304688 213.292969 C 238.144531 222.835938 226.265625 240.882812 226.265625 265.191406 Z M 70.566406 118.140625 L 84.152344 118.140625 C 83.796875 119.527344 83.542969 120.964844 83.542969 122.46875 C 83.542969 123.972656 83.796875 125.40625 84.152344 126.792969 C 84.152344 126.792969 70.617188 126.792969 70.566406 126.792969 C 68.253906 126.792969 66.242188 124.765625 66.242188 122.46875 C 66.242188 120.085938 68.183594 118.140625 70.566406 118.140625 Z M 92.191406 122.46875 C 92.191406 117.703125 96.078125 113.816406 100.84375 113.816406 C 105.605469 113.816406 109.492188 117.703125 109.492188 122.46875 C 109.492188 127.230469 105.605469 131.117188 100.84375 131.117188 C 96.078125 131.117188 92.191406 127.230469 92.191406 122.46875 Z M 126.792969 92.191406 L 126.792969 183.015625 L 74.890625 183.015625 L 74.890625 135.441406 L 89.523438 135.441406 C 92.5625 138.09375 96.484375 139.765625 100.84375 139.765625 C 110.386719 139.765625 118.140625 132.011719 118.140625 122.46875 C 118.140625 112.921875 110.386719 105.167969 100.84375 105.167969 C 96.484375 105.167969 92.5625 106.839844 89.523438 109.492188 L 74.890625 109.492188 L 74.890625 92.191406 Z M 57.59375 122.46875 C 57.59375 125.980469 58.960938 129.242188 61.375 131.574219 C 62.746094 132.992188 64.433594 134.007812 66.242188 134.664062 L 66.242188 200.316406 C 66.242188 206.011719 69.960938 210.808594 75.078125 212.550781 C 76.800781 230.101562 90.976562 244.410156 102.972656 253.519531 C 111.910156 260.328125 116.300781 271.527344 114.425781 282.78125 L 111.234375 301.988281 C 110.605469 305.757812 111.65625 309.589844 114.121094 312.496094 C 116.605469 315.417969 120.203125 317.09375 124.023438 317.09375 L 226.539062 317.09375 C 230.660156 317.09375 234.460938 315.199219 236.945312 311.90625 C 239.394531 308.660156 240.15625 304.574219 239.054688 300.6875 C 237.164062 294.066406 234.917969 282.527344 234.917969 265.191406 C 234.917969 236.589844 254.09375 217.128906 258.417969 213.105469 C 264.683594 212.175781 269.515625 206.839844 269.515625 200.316406 L 269.515625 192.476562 C 297.105469 183.371094 317.09375 157.386719 317.09375 126.792969 C 317.09375 88.628906 286.058594 57.59375 247.890625 57.59375 C 209.726562 57.59375 178.691406 88.628906 178.691406 126.792969 C 178.691406 139.394531 182.140625 151.203125 188.050781 161.390625 L 135.441406 161.390625 L 135.441406 91.398438 C 140.460938 89.609375 144.09375 84.84375 144.09375 79.21875 L 144.09375 70.566406 C 144.09375 63.402344 138.28125 57.59375 131.117188 57.59375 L 70.566406 57.59375 C 63.402344 57.59375 57.59375 63.402344 57.59375 70.566406 L 57.59375 79.21875 C 57.59375 84.84375 61.226562 89.609375 66.242188 91.398438 L 66.242188 110.285156 C 61.226562 112.078125 57.59375 116.839844 57.59375 122.46875 " fill-opacity="1" fill-rule="nonzero"/></g><path fill="#000000" d="M 247.890625 161.390625 C 245.511719 161.390625 243.566406 159.449219 243.566406 157.066406 C 243.566406 154.683594 245.511719 152.742188 247.890625 152.742188 C 250.273438 152.742188 252.21875 154.683594 252.21875 157.066406 C 252.21875 159.449219 250.273438 161.390625 247.890625 161.390625 Z M 247.890625 144.09375 C 240.730469 144.09375 234.917969 149.902344 234.917969 157.066406 C 234.917969 164.230469 240.730469 170.042969 247.890625 170.042969 C 255.054688 170.042969 260.867188 164.230469 260.867188 157.066406 C 260.867188 149.902344 255.054688 144.09375 247.890625 144.09375 " fill-opacity="1" fill-rule="nonzero"/><path fill="#000000" d="M 247.890625 126.792969 C 240.207031 126.792969 232.6875 129.359375 226.707031 134.039062 C 224.832031 135.511719 224.511719 138.230469 225.964844 140.105469 C 227.449219 141.980469 230.152344 142.320312 232.046875 140.847656 C 240.964844 133.871094 254.820312 133.871094 263.738281 140.847656 C 264.535156 141.472656 265.480469 141.777344 266.410156 141.777344 C 267.691406 141.777344 268.960938 141.203125 269.820312 140.105469 C 271.273438 138.230469 270.953125 135.511719 269.078125 134.039062 C 263.097656 129.359375 255.578125 126.792969 247.890625 126.792969 " fill-opacity="1" fill-rule="nonzero"/><path fill="#000000" d="M 247.890625 109.492188 C 235.675781 109.492188 224.089844 113.429688 214.390625 120.914062 C 212.5 122.367188 212.144531 125.070312 213.597656 126.960938 C 215.066406 128.871094 217.769531 129.226562 219.660156 127.753906 C 227.839844 121.46875 237.605469 118.140625 247.890625 118.140625 C 258.179688 118.140625 267.945312 121.46875 276.125 127.753906 C 276.898438 128.363281 277.828125 128.652344 278.757812 128.652344 C 280.042969 128.652344 281.328125 128.078125 282.1875 126.960938 C 283.640625 125.070312 283.285156 122.367188 281.394531 120.914062 C 271.695312 113.429688 260.105469 109.492188 247.890625 109.492188 " fill-opacity="1" fill-rule="nonzero"/><path fill="#000000" d="M 247.890625 100.84375 C 262.726562 100.84375 276.765625 105.625 288.507812 114.660156 C 289.300781 115.269531 290.214844 115.558594 291.140625 115.558594 C 292.425781 115.558594 293.710938 114.984375 294.570312 113.867188 C 296.023438 111.976562 295.671875 109.253906 293.777344 107.804688 C 280.515625 97.582031 264.652344 92.191406 247.890625 92.191406 C 231.132812 92.191406 215.269531 97.582031 202.007812 107.804688 C 200.113281 109.253906 199.761719 111.976562 201.210938 113.867188 C 202.664062 115.761719 205.386719 116.113281 207.277344 114.660156 C 219.019531 105.625 233.058594 100.84375 247.890625 100.84375 " fill-opacity="1" fill-rule="nonzero"/></svg>