<svg xmlns="http://www.w3.org/2000/svg" xmlns:xlink="http://www.w3.org/1999/xlink" width="500" zoomAndPan="magnify" viewBox="0 0 375 374.999991" height="500" preserveAspectRatio="xMidYMid meet" version="1.0"><defs><clipPath id="2b3c75a6b7"><path d="M 170 254 L 205 254 L 205 296.53125 L 170 296.53125 Z M 170 254 " clip-rule="nonzero"/></clipPath><clipPath id="601b3ffde0"><path d="M 61 78.28125 L 313.746094 78.28125 L 313.746094 263 L 61 263 Z M 61 78.28125 " clip-rule="nonzero"/></clipPath></defs><g clip-path="url(#2b3c75a6b7)"><path fill="#e6e6e6" d="M 200.125 344.6875 L 174.953125 344.6875 C 172.601562 344.6875 170.925781 342.839844 170.925781 340.65625 L 170.925781 258.128906 C 170.925781 255.941406 172.601562 254.09375 174.953125 254.09375 L 200.125 254.09375 C 202.308594 254.09375 204.152344 255.941406 204.152344 258.128906 L 204.152344 340.65625 C 204.152344 342.839844 202.308594 344.6875 200.125 344.6875 Z M 200.125 344.6875 " fill-opacity="1" fill-rule="evenodd"/></g><g clip-path="url(#601b3ffde0)"><path fill="#ff3131" d="M 309.710938 262.160156 L 65.367188 262.160156 C 63.855469 262.160156 62.511719 261.320312 61.839844 260.144531 C 61.003906 258.800781 61.171875 257.117188 62.007812 255.941406 L 184.183594 80.296875 C 185.691406 78.28125 189.386719 78.28125 190.894531 80.296875 L 312.734375 255.4375 C 313.402344 256.109375 313.738281 257.117188 313.738281 258.128906 C 313.738281 260.480469 311.894531 262.160156 309.710938 262.160156 Z M 309.710938 262.160156 " fill-opacity="1" fill-rule="evenodd"/></g><path fill="#e8f6ff" d="M 275.644531 244.34375 C 275.476562 244.34375 275.476562 244.34375 275.476562 244.34375 L 99.433594 244.34375 C 97.921875 244.34375 96.582031 243.503906 95.910156 242.160156 C 95.238281 240.816406 95.40625 239.300781 96.246094 237.957031 L 184.183594 111.5625 C 185.691406 109.375 189.386719 109.375 190.894531 111.5625 L 278.496094 237.621094 C 279.167969 238.292969 279.671875 239.300781 279.671875 240.3125 C 279.671875 242.496094 277.828125 244.34375 275.644531 244.34375 Z M 275.644531 244.34375 " fill-opacity="1" fill-rule="evenodd"/><path fill="#252525" d="M 217.746094 211.570312 L 157.332031 211.570312 C 155.988281 211.570312 154.644531 210.898438 153.976562 209.71875 C 153.136719 208.542969 153.136719 207.199219 153.640625 205.855469 C 158.839844 194.929688 172.433594 187.535156 187.539062 187.535156 C 202.644531 187.535156 216.234375 194.929688 221.269531 205.855469 C 221.941406 207.199219 221.773438 208.542969 221.101562 209.71875 C 220.265625 210.898438 219.089844 211.570312 217.746094 211.570312 Z M 217.746094 211.570312 " fill-opacity="1" fill-rule="evenodd"/><path fill="#333333" d="M 233.1875 231.066406 L 141.722656 231.066406 C 139.542969 231.066406 137.695312 229.21875 137.695312 227.03125 L 137.695312 207.535156 C 137.695312 205.351562 139.542969 203.5 141.722656 203.5 L 233.1875 203.5 C 235.535156 203.5 237.214844 205.351562 237.214844 207.535156 L 237.214844 227.03125 C 237.214844 229.21875 235.535156 231.066406 233.1875 231.066406 Z M 233.1875 231.066406 " fill-opacity="1" fill-rule="evenodd"/></svg>