<svg xmlns="http://www.w3.org/2000/svg" xmlns:xlink="http://www.w3.org/1999/xlink" width="500" zoomAndPan="magnify" viewBox="0 0 375 374.999991" height="500" preserveAspectRatio="xMidYMid meet" version="1.0"><defs><clipPath id="dc803ae521"><path d="M 61.601562 61.601562 L 313.601562 61.601562 L 313.601562 313.601562 L 61.601562 313.601562 Z M 61.601562 61.601562 " clip-rule="nonzero"/></clipPath></defs><path fill="#fafafa" d="M 265.707031 202.058594 C 265.707031 206.304688 262.257812 209.753906 258.011719 209.753906 L 116.980469 209.753906 C 112.730469 209.753906 109.28125 206.304688 109.28125 202.058594 L 109.28125 186.222656 C 109.28125 181.976562 112.730469 178.519531 116.980469 178.519531 L 118.578125 178.519531 C 122.28125 178.519531 125.804688 177.132812 128.515625 174.613281 C 128.515625 174.613281 128.515625 174.613281 128.523438 174.613281 C 135.019531 168.566406 143.496094 165.234375 152.378906 165.234375 L 153.644531 165.234375 C 162.53125 165.234375 171.007812 168.566406 177.507812 174.613281 C 180.214844 177.132812 183.746094 178.519531 187.441406 178.519531 C 191.140625 178.519531 194.667969 177.132812 197.378906 174.613281 C 203.878906 168.566406 212.355469 165.234375 221.242188 165.234375 L 222.480469 165.234375 C 231.367188 165.234375 239.839844 168.566406 246.34375 174.613281 C 249.046875 177.132812 252.578125 178.519531 256.28125 178.519531 L 258.011719 178.519531 C 262.257812 178.519531 265.707031 181.976562 265.707031 186.222656 Z M 187.496094 79.605469 C 128.003906 79.605469 79.605469 128.003906 79.605469 187.496094 C 79.605469 211.96875 87.589844 235.027344 102.691406 254.183594 C 112.667969 266.855469 125.566406 277.292969 139.964844 284.367188 C 154.8125 291.683594 170.800781 295.386719 187.496094 295.386719 C 204.1875 295.386719 220.175781 291.683594 235.019531 284.367188 C 252.28125 275.882812 267.019531 262.886719 277.648438 246.789062 C 289.25 229.191406 295.386719 208.695312 295.386719 187.496094 C 295.386719 128.003906 246.984375 79.605469 187.496094 79.605469 " fill-opacity="1" fill-rule="nonzero"/><path fill="#a8a8a8" d="M 112.730469 202.058594 L 112.730469 186.222656 C 112.730469 183.882812 114.636719 181.976562 116.980469 181.976562 L 118.578125 181.976562 C 123.152344 181.976562 127.519531 180.253906 130.867188 177.140625 C 136.734375 171.691406 144.367188 168.683594 152.378906 168.683594 L 153.644531 168.683594 C 161.65625 168.683594 169.292969 171.691406 175.160156 177.140625 C 178.507812 180.253906 182.871094 181.976562 187.441406 181.976562 C 192.015625 181.976562 196.375 180.253906 199.726562 177.140625 C 205.589844 171.691406 213.230469 168.683594 221.242188 168.683594 L 222.480469 168.683594 C 230.492188 168.683594 238.132812 171.691406 243.996094 177.140625 C 247.339844 180.253906 251.707031 181.976562 256.28125 181.976562 L 258.011719 181.976562 C 260.351562 181.976562 262.257812 183.882812 262.257812 186.222656 L 262.257812 202.058594 C 262.257812 204.398438 260.351562 206.3125 258.011719 206.3125 L 116.980469 206.3125 C 114.636719 206.3125 112.730469 204.398438 112.730469 202.058594 Z M 236.542969 287.460938 C 221.222656 295.007812 204.714844 298.835938 187.496094 298.835938 C 170.277344 298.835938 153.765625 295.007812 138.445312 287.460938 C 123.585938 280.160156 110.28125 269.394531 99.980469 256.324219 C 84.394531 236.550781 76.15625 212.746094 76.15625 187.496094 C 76.15625 126.105469 126.105469 76.15625 187.496094 76.15625 C 248.886719 76.15625 298.835938 126.105469 298.835938 187.496094 C 298.835938 209.371094 292.503906 230.523438 280.527344 248.6875 C 269.558594 265.296875 254.347656 278.710938 236.542969 287.460938 Z M 285.378906 261.050781 C 301.449219 239.738281 309.941406 214.308594 309.941406 187.496094 C 309.941406 119.976562 255.011719 65.050781 187.496094 65.050781 C 119.976562 65.050781 65.050781 119.976562 65.050781 187.496094 C 65.050781 215.335938 74.644531 242.582031 92.070312 264.210938 C 98.175781 271.820312 105.171875 278.65625 112.855469 284.546875 C 134.417969 301.164062 160.230469 309.941406 187.496094 309.941406 C 214.769531 309.941406 240.574219 301.164062 262.136719 284.550781 C 270.886719 277.832031 278.707031 269.929688 285.378906 261.050781 " fill-opacity="1" fill-rule="nonzero"/><g clip-path="url(#dc803ae521)"><path fill="#100f0d" d="M 262.257812 202.058594 C 262.257812 204.398438 260.351562 206.3125 258.011719 206.3125 L 116.980469 206.3125 C 114.636719 206.3125 112.730469 204.398438 112.730469 202.058594 L 112.730469 186.222656 C 112.730469 183.882812 114.636719 181.976562 116.980469 181.976562 L 118.578125 181.976562 C 123.152344 181.976562 127.519531 180.253906 130.867188 177.140625 C 136.734375 171.691406 144.367188 168.683594 152.378906 168.683594 L 153.644531 168.683594 C 161.65625 168.683594 169.292969 171.691406 175.160156 177.140625 C 178.507812 180.253906 182.871094 181.976562 187.441406 181.976562 C 192.015625 181.976562 196.375 180.253906 199.726562 177.140625 C 205.589844 171.691406 213.230469 168.683594 221.242188 168.683594 L 222.480469 168.683594 C 230.492188 168.683594 238.132812 171.691406 243.996094 177.140625 C 247.339844 180.253906 251.707031 181.976562 256.28125 181.976562 L 258.011719 181.976562 C 260.351562 181.976562 262.257812 183.882812 262.257812 186.222656 Z M 258.011719 178.519531 L 256.28125 178.519531 C 252.578125 178.519531 249.046875 177.132812 246.34375 174.613281 C 239.839844 168.566406 231.367188 165.234375 222.480469 165.234375 L 221.242188 165.234375 C 212.355469 165.234375 203.878906 168.566406 197.378906 174.613281 C 194.667969 177.132812 191.140625 178.519531 187.441406 178.519531 C 183.746094 178.519531 180.214844 177.132812 177.507812 174.613281 C 171.007812 168.566406 162.53125 165.234375 153.644531 165.234375 L 152.378906 165.234375 C 143.496094 165.234375 135.019531 168.566406 128.523438 174.613281 C 128.515625 174.613281 128.515625 174.613281 128.515625 174.613281 C 125.804688 177.132812 122.28125 178.519531 118.578125 178.519531 L 116.980469 178.519531 C 112.730469 178.519531 109.28125 181.976562 109.28125 186.222656 L 109.28125 202.058594 C 109.28125 206.304688 112.730469 209.753906 116.980469 209.753906 L 258.011719 209.753906 C 262.257812 209.753906 265.707031 206.304688 265.707031 202.058594 L 265.707031 186.222656 C 265.707031 181.976562 262.257812 178.519531 258.011719 178.519531 Z M 277.648438 246.789062 C 267.019531 262.886719 252.28125 275.882812 235.019531 284.367188 C 220.175781 291.683594 204.1875 295.386719 187.496094 295.386719 C 170.800781 295.386719 154.8125 291.683594 139.964844 284.367188 C 125.566406 277.292969 112.667969 266.855469 102.691406 254.183594 C 87.589844 235.027344 79.605469 211.96875 79.605469 187.496094 C 79.605469 128.003906 128.003906 79.605469 187.496094 79.605469 C 246.984375 79.605469 295.386719 128.003906 295.386719 187.496094 C 295.386719 208.695312 289.25 229.191406 277.648438 246.789062 Z M 187.496094 76.15625 C 126.105469 76.15625 76.15625 126.105469 76.15625 187.496094 C 76.15625 212.746094 84.394531 236.550781 99.980469 256.324219 C 110.28125 269.394531 123.585938 280.160156 138.445312 287.460938 C 153.765625 295.007812 170.277344 298.835938 187.496094 298.835938 C 204.714844 298.835938 221.222656 295.007812 236.542969 287.460938 C 254.347656 278.710938 269.558594 265.296875 280.527344 248.6875 C 292.503906 230.523438 298.835938 209.371094 298.835938 187.496094 C 298.835938 126.105469 248.886719 76.15625 187.496094 76.15625 Z M 285.378906 261.050781 C 278.707031 269.929688 270.886719 277.832031 262.136719 284.550781 C 240.574219 301.164062 214.769531 309.941406 187.496094 309.941406 C 160.230469 309.941406 134.417969 301.164062 112.855469 284.546875 C 105.171875 278.65625 98.175781 271.820312 92.070312 264.210938 C 74.644531 242.582031 65.050781 215.335938 65.050781 187.496094 C 65.050781 119.976562 119.976562 65.050781 187.496094 65.050781 C 255.011719 65.050781 309.941406 119.976562 309.941406 187.496094 C 309.941406 214.308594 301.449219 239.738281 285.378906 261.050781 Z M 187.496094 61.601562 C 118.078125 61.601562 61.601562 118.078125 61.601562 187.496094 C 61.601562 216.113281 71.46875 244.132812 89.386719 266.371094 C 95.664062 274.199219 102.855469 281.234375 110.75 287.285156 C 132.914062 304.359375 159.457031 313.390625 187.496094 313.390625 C 215.53125 313.390625 242.074219 304.359375 264.230469 287.285156 C 273.234375 280.378906 281.273438 272.25 288.136719 263.125 C 304.660156 241.214844 313.390625 215.0625 313.390625 187.496094 C 313.390625 118.078125 256.910156 61.601562 187.496094 61.601562 " fill-opacity="1" fill-rule="nonzero"/></g></svg>