<svg xmlns="http://www.w3.org/2000/svg" xmlns:xlink="http://www.w3.org/1999/xlink" width="500" zoomAndPan="magnify" viewBox="0 0 375 374.999991" height="500" preserveAspectRatio="xMidYMid meet" version="1.0"><defs><clipPath id="25ec9fb3fe"><path d="M 124.808594 47.015625 L 250 47.015625 L 250 328.265625 L 124.808594 328.265625 Z M 124.808594 47.015625 " clip-rule="nonzero"/></clipPath></defs><g clip-path="url(#25ec9fb3fe)"><path fill="#000000" d="M 242.28125 312.691406 L 236.277344 312.691406 L 236.277344 216.429688 C 236.277344 213.113281 234.148438 210.300781 231.171875 209.230469 L 231.171875 58.316406 C 231.171875 56.742188 229.9375 55.507812 228.367188 55.507812 C 226.796875 55.507812 225.5625 56.742188 225.5625 58.316406 L 225.5625 75.859375 C 215.628906 65.964844 192.792969 47.972656 162.605469 47.859375 C 158.621094 47.128906 153.121094 47.128906 147.230469 47.128906 C 136.121094 47.128906 124.84375 47.015625 124.84375 52.414062 C 124.84375 57.753906 136.175781 69.226562 147.285156 69.226562 C 157.273438 69.226562 166.308594 60.0625 168.046875 54.269531 C 199.527344 56.96875 221.632812 80.808594 225.503906 85.25 L 225.503906 209.402344 C 222.8125 210.582031 220.902344 213.28125 220.902344 216.429688 L 220.902344 312.691406 L 213.890625 312.691406 C 209.570312 312.691406 206.089844 316.175781 206.089844 320.507812 C 206.089844 324.78125 209.570312 328.265625 213.890625 328.265625 L 242.171875 328.265625 C 246.433594 328.265625 249.914062 324.78125 249.914062 320.507812 C 250.027344 316.175781 246.546875 312.691406 242.28125 312.691406 Z M 242.28125 312.691406 " fill-opacity="1" fill-rule="nonzero"/></g><path fill="#f3b129" d="M 147.230469 52.019531 C 139.148438 52.019531 131.742188 53.257812 125.964844 55.335938 C 127.757812 61.972656 138.140625 69.730469 147.34375 69.730469 C 156.65625 69.730469 166.757812 61.972656 167.65625 55.054688 C 161.988281 53.144531 154.917969 52.019531 147.230469 52.019531 Z M 147.230469 52.019531 " fill-opacity="1" fill-rule="nonzero"/></svg>