<svg xmlns="http://www.w3.org/2000/svg" xmlns:xlink="http://www.w3.org/1999/xlink" width="500" zoomAndPan="magnify" viewBox="0 0 375 374.999991" height="500" preserveAspectRatio="xMidYMid meet" version="1.0"><defs><clipPath id="2d745d1eee"><path d="M 78 91 L 297.316406 91 L 297.316406 233 L 78 233 Z M 78 91 " clip-rule="nonzero"/></clipPath><clipPath id="620859337f"><path d="M 77.566406 43.085938 L 286 43.085938 L 286 191 L 77.566406 191 Z M 77.566406 43.085938 " clip-rule="nonzero"/></clipPath><clipPath id="5938ad7fe5"><path d="M 162 153 L 225 153 L 225 331.835938 L 162 331.835938 Z M 162 153 " clip-rule="nonzero"/></clipPath></defs><g clip-path="url(#2d745d1eee)"><path fill="#55b948" d="M 297.292969 149.300781 C 297.292969 133.398438 284.410156 120.480469 268.503906 120.480469 L 268.097656 120.515625 C 263.226562 111.507812 253.703125 105.398438 242.75 105.398438 C 235.796875 105.398438 229.417969 107.855469 224.449219 111.949219 C 220.804688 100.226562 209.871094 91.695312 196.9375 91.695312 C 186.824219 91.695312 177.929688 96.925781 172.789062 104.824219 C 167.511719 98.527344 159.601562 94.558594 150.753906 94.558594 C 134.855469 94.558594 121.960938 107.441406 121.960938 123.351562 L 121.960938 123.414062 C 117.449219 119.980469 111.820312 117.929688 105.703125 117.929688 C 90.90625 117.929688 78.90625 129.929688 78.90625 144.738281 C 78.90625 158.25 88.882812 169.398438 101.859375 171.253906 C 98.191406 176.105469 96.011719 182.128906 96.011719 188.644531 C 96.011719 204.550781 108.902344 217.46875 124.808594 217.46875 C 130.734375 217.46875 136.238281 215.671875 140.820312 212.589844 C 144.617188 224.054688 155.410156 232.332031 168.144531 232.332031 C 176.816406 232.332031 184.582031 228.492188 189.859375 222.441406 C 194.859375 226.632812 201.308594 229.152344 208.34375 229.152344 C 220.789062 229.152344 231.390625 221.246094 235.417969 210.191406 C 240.5 214.695312 247.195312 217.46875 254.527344 217.46875 C 270.433594 217.46875 283.328125 204.550781 283.328125 188.644531 C 283.328125 183.953125 282.199219 179.542969 280.203125 175.605469 C 290.277344 171.132812 297.292969 161.050781 297.292969 149.300781 " fill-opacity="1" fill-rule="nonzero"/></g><g clip-path="url(#620859337f)"><path fill="#41a03a" d="M 77.765625 130.074219 C 77.765625 146.761719 90.03125 160.277344 105.160156 160.277344 L 105.546875 160.246094 C 110.175781 169.695312 119.238281 176.113281 129.652344 176.113281 C 136.265625 176.113281 142.332031 173.507812 147.066406 169.210938 C 150.527344 181.515625 160.929688 190.457031 173.222656 190.457031 C 182.855469 190.457031 191.308594 184.984375 196.195312 176.683594 C 201.222656 183.269531 208.742188 187.46875 217.15625 187.46875 C 232.285156 187.46875 244.546875 173.953125 244.546875 157.292969 L 244.546875 157.195312 C 248.839844 160.824219 254.191406 162.949219 260.003906 162.949219 C 274.089844 162.949219 285.496094 150.390625 285.496094 134.871094 C 285.496094 120.722656 276.007812 109.023438 263.664062 107.046875 C 267.152344 101.996094 269.222656 95.699219 269.222656 88.832031 C 269.222656 72.171875 256.964844 58.65625 241.835938 58.65625 C 236.203125 58.65625 230.964844 60.535156 226.609375 63.742188 C 222.992188 51.761719 212.726562 43.074219 200.617188 43.074219 C 192.371094 43.074219 184.980469 47.082031 179.957031 53.4375 C 175.203125 49.054688 169.074219 46.414062 162.378906 46.414062 C 150.539062 46.414062 140.453125 54.683594 136.628906 66.289062 C 131.792969 61.550781 125.429688 58.65625 118.445312 58.65625 C 103.324219 58.65625 91.058594 72.171875 91.058594 88.832031 C 91.058594 93.757812 92.132812 98.40625 94.03125 102.507812 C 84.445312 107.214844 77.765625 117.769531 77.765625 130.074219 " fill-opacity="1" fill-rule="nonzero"/></g><g clip-path="url(#5938ad7fe5)"><path fill="#7e5236" d="M 199.648438 241.574219 C 200.902344 228.1875 204.394531 214.996094 208.398438 202.175781 C 211.902344 190.945312 215.960938 179.898438 220.398438 169.003906 C 221.320312 166.734375 222.257812 164.492188 223.238281 162.253906 C 223.921875 160.699219 224.910156 159.207031 224.273438 157.519531 C 223.695312 155.9375 222.46875 154.59375 220.960938 153.878906 C 220.695312 153.753906 220.382812 153.664062 220.125 153.789062 C 219.867188 153.914062 219.75 154.222656 219.664062 154.472656 C 219.058594 156.371094 218.292969 158.082031 217.570312 159.921875 C 216.730469 162.035156 215.890625 164.121094 215.023438 166.203125 C 213.292969 170.375 211.460938 174.511719 209.4375 178.558594 C 205.160156 187.304688 200.316406 196.953125 192.941406 203.546875 C 190.53125 205.691406 187.800781 207.371094 184.5 207.371094 C 180.957031 207.15625 178.472656 203.234375 176.875 200.496094 C 174.332031 196.140625 172.535156 191.351562 170.945312 186.554688 C 170.167969 184.222656 169.453125 181.855469 168.785156 179.492188 C 168.167969 177.285156 167.878906 174.953125 167.128906 172.804688 C 166.703125 171.621094 165.984375 170.464844 164.917969 169.75 C 164.367188 169.378906 163.648438 169.128906 163.046875 169.410156 C 162.511719 169.6875 162.230469 170.3125 162.214844 170.90625 C 162.160156 173.519531 163.507812 176.472656 164.492188 178.839844 C 166.183594 182.914062 167.816406 187.023438 169.378906 191.128906 C 173.554688 202.113281 177.449219 213.28125 180.007812 224.769531 C 180.785156 228.25 181.429688 231.765625 181.746094 235.347656 C 183.136719 251.347656 183.035156 267.496094 181.65625 283.492188 C 180.679688 294.847656 179.070312 306.171875 176.746094 317.34375 C 176.257812 319.683594 175.742188 321.980469 175.175781 324.3125 C 174.855469 325.621094 173.429688 327.433594 174.082031 328.828125 C 174.738281 330.234375 177.035156 330.542969 178.34375 330.695312 C 187.511719 331.753906 196.8125 331.726562 205.964844 330.542969 C 206.878906 330.417969 208.277344 330.199219 208.875 329.386719 C 209.699219 328.269531 208.566406 327.175781 208.199219 326.0625 C 207.726562 324.570312 207.25 323.070312 206.789062 321.546875 C 205.839844 318.464844 204.960938 315.355469 204.21875 312.210938 C 201.472656 300.570312 199.808594 288.652344 199.070312 276.734375 C 198.355469 265.035156 198.546875 253.273438 199.648438 241.574219 " fill-opacity="1" fill-rule="nonzero"/></g><path fill="#66c64d" d="M 261.183594 142.351562 C 261.214844 141.789062 261.25 141.222656 261.25 140.632812 C 261.25 127.714844 250.808594 117.28125 237.914062 117.28125 C 232.769531 117.28125 228.015625 118.941406 224.15625 121.796875 C 220.789062 119.910156 216.917969 118.816406 212.789062 118.816406 C 199.902344 118.816406 189.453125 129.285156 189.453125 142.167969 C 189.453125 142.386719 189.464844 142.605469 189.472656 142.792969 C 181.511719 146.523438 175.996094 154.574219 175.996094 163.945312 C 175.996094 176.859375 186.441406 187.296875 199.324219 187.296875 C 202.523438 187.296875 205.574219 186.636719 208.351562 185.480469 C 212.625 190.808594 219.1875 194.21875 226.550781 194.21875 C 234.164062 194.21875 240.925781 190.585938 245.1875 184.945312 C 248.878906 187.394531 253.324219 188.832031 258.105469 188.832031 C 270.992188 188.832031 281.4375 178.398438 281.4375 165.515625 C 281.4375 153.636719 272.609375 143.859375 261.183594 142.351562 " fill-opacity="1" fill-rule="nonzero"/><path fill="#66c64d" d="M 173.988281 169.460938 C 174.015625 169.054688 174.042969 168.621094 174.042969 168.179688 C 174.042969 158.875 166.480469 151.304688 157.160156 151.304688 C 153.4375 151.304688 149.996094 152.523438 147.203125 154.574219 C 144.769531 153.203125 141.96875 152.425781 138.984375 152.425781 C 129.660156 152.425781 122.105469 159.996094 122.105469 169.300781 L 122.121094 169.769531 C 116.363281 172.445312 112.371094 178.300781 112.371094 185.089844 C 112.371094 194.398438 119.925781 201.960938 129.246094 201.960938 C 131.558594 201.960938 133.769531 201.496094 135.769531 200.65625 C 138.867188 204.515625 143.613281 206.972656 148.9375 206.972656 C 154.449219 206.972656 159.332031 204.328125 162.414062 200.25 C 165.089844 202.023438 168.3125 203.085938 171.765625 203.085938 C 181.085938 203.085938 188.648438 195.515625 188.648438 186.175781 C 188.648438 177.613281 182.257812 170.546875 173.988281 169.460938 " fill-opacity="1" fill-rule="nonzero"/></svg>