<svg xmlns="http://www.w3.org/2000/svg" xmlns:xlink="http://www.w3.org/1999/xlink" width="500" zoomAndPan="magnify" viewBox="0 0 375 374.999991" height="500" preserveAspectRatio="xMidYMid meet" version="1.0"><defs><clipPath id="3d90c4a699"><path d="M 79.5625 79.5625 L 295.5625 79.5625 L 295.5625 295.5625 L 79.5625 295.5625 Z M 79.5625 79.5625 " clip-rule="nonzero"/></clipPath></defs><g clip-path="url(#3d90c4a699)"><path fill="#000000" d="M 106.6875 79.699219 C 106.394531 79.753906 106.125 79.855469 105.871094 80.007812 C 105.617188 80.160156 105.394531 80.351562 105.210938 80.578125 C 105.023438 80.808594 104.882812 81.0625 104.785156 81.34375 C 104.6875 81.625 104.644531 81.910156 104.648438 82.207031 L 104.648438 99.765625 L 82.070312 99.765625 C 81.738281 99.765625 81.417969 99.828125 81.109375 99.957031 C 80.800781 100.085938 80.53125 100.265625 80.296875 100.5 C 80.058594 100.738281 79.878906 101.007812 79.75 101.316406 C 79.625 101.621094 79.5625 101.941406 79.5625 102.273438 L 79.5625 197.601562 C 79.5625 197.933594 79.625 198.253906 79.75 198.5625 C 79.878906 198.867188 80.058594 199.140625 80.296875 199.375 C 80.53125 199.609375 80.800781 199.792969 81.109375 199.917969 C 81.417969 200.046875 81.738281 200.109375 82.070312 200.109375 L 112.175781 200.109375 C 112.507812 200.109375 112.828125 200.046875 113.132812 199.917969 C 113.441406 199.792969 113.710938 199.609375 113.949219 199.375 C 114.183594 199.140625 114.363281 198.867188 114.492188 198.5625 C 114.617188 198.253906 114.683594 197.933594 114.683594 197.601562 C 114.683594 163.144531 147.042969 134.886719 187.433594 134.886719 C 227.824219 134.886719 260.054688 163.132812 260.1875 197.601562 C 260.1875 197.933594 260.25 198.253906 260.378906 198.5625 C 260.507812 198.867188 260.6875 199.140625 260.921875 199.375 C 261.15625 199.609375 261.429688 199.792969 261.738281 199.917969 C 262.042969 200.046875 262.363281 200.109375 262.695312 200.109375 L 292.800781 200.109375 C 293.132812 200.109375 293.453125 200.046875 293.761719 199.917969 C 294.070312 199.792969 294.339844 199.609375 294.574219 199.375 C 294.808594 199.140625 294.992188 198.867188 295.117188 198.5625 C 295.246094 198.253906 295.308594 197.933594 295.308594 197.601562 L 295.308594 102.273438 C 295.308594 101.941406 295.246094 101.621094 295.117188 101.316406 C 294.992188 101.007812 294.808594 100.738281 294.574219 100.5 C 294.339844 100.265625 294.070312 100.085938 293.761719 99.957031 C 293.453125 99.828125 293.132812 99.765625 292.800781 99.765625 L 270.222656 99.765625 L 270.222656 82.207031 C 270.222656 81.875 270.160156 81.554688 270.03125 81.246094 C 269.90625 80.9375 269.722656 80.667969 269.488281 80.433594 C 269.253906 80.199219 268.980469 80.015625 268.675781 79.890625 C 268.367188 79.761719 268.046875 79.699219 267.714844 79.699219 L 237.609375 79.699219 C 237.277344 79.699219 236.957031 79.761719 236.648438 79.886719 C 236.34375 80.015625 236.070312 80.195312 235.835938 80.433594 C 235.601562 80.667969 235.417969 80.9375 235.292969 81.246094 C 235.164062 81.554688 235.101562 81.875 235.101562 82.207031 L 235.101562 99.765625 L 204.996094 99.765625 L 204.996094 82.207031 C 204.996094 81.875 204.933594 81.554688 204.804688 81.246094 C 204.679688 80.9375 204.496094 80.667969 204.261719 80.433594 C 204.027344 80.199219 203.753906 80.015625 203.449219 79.890625 C 203.140625 79.761719 202.820312 79.699219 202.488281 79.699219 L 172.382812 79.699219 C 172.050781 79.699219 171.730469 79.761719 171.421875 79.886719 C 171.117188 80.015625 170.84375 80.195312 170.609375 80.433594 C 170.375 80.667969 170.191406 80.9375 170.066406 81.246094 C 169.9375 81.554688 169.875 81.875 169.875 82.207031 L 169.875 99.765625 L 139.769531 99.765625 L 139.769531 82.207031 C 139.769531 81.875 139.707031 81.554688 139.578125 81.246094 C 139.453125 80.9375 139.269531 80.667969 139.035156 80.433594 C 138.800781 80.195312 138.527344 80.015625 138.222656 79.886719 C 137.914062 79.761719 137.59375 79.699219 137.261719 79.699219 L 107.15625 79.699219 C 107 79.683594 106.84375 79.683594 106.6875 79.699219 Z M 109.664062 84.714844 L 134.753906 84.714844 L 134.753906 102.273438 C 134.753906 102.609375 134.816406 102.925781 134.945312 103.234375 C 135.070312 103.542969 135.253906 103.8125 135.488281 104.046875 C 135.722656 104.285156 135.992188 104.464844 136.300781 104.59375 C 136.609375 104.71875 136.929688 104.785156 137.261719 104.785156 L 172.382812 104.785156 C 172.714844 104.785156 173.035156 104.71875 173.34375 104.59375 C 173.652344 104.464844 173.921875 104.285156 174.15625 104.046875 C 174.390625 103.8125 174.574219 103.542969 174.699219 103.234375 C 174.828125 102.925781 174.890625 102.609375 174.890625 102.273438 L 174.890625 84.714844 L 199.980469 84.714844 L 199.980469 102.273438 C 199.980469 102.609375 200.042969 102.925781 200.167969 103.234375 C 200.296875 103.542969 200.476562 103.8125 200.714844 104.046875 C 200.949219 104.285156 201.21875 104.464844 201.527344 104.59375 C 201.835938 104.71875 202.15625 104.785156 202.488281 104.785156 L 237.609375 104.785156 C 237.941406 104.785156 238.261719 104.71875 238.570312 104.59375 C 238.878906 104.464844 239.148438 104.285156 239.382812 104.046875 C 239.617188 103.8125 239.800781 103.542969 239.925781 103.234375 C 240.054688 102.925781 240.117188 102.609375 240.117188 102.273438 L 240.117188 84.714844 L 265.207031 84.714844 L 265.207031 102.273438 C 265.207031 102.609375 265.269531 102.925781 265.394531 103.234375 C 265.523438 103.542969 265.703125 103.8125 265.941406 104.046875 C 266.175781 104.285156 266.445312 104.464844 266.753906 104.59375 C 267.0625 104.71875 267.382812 104.785156 267.714844 104.785156 L 290.292969 104.785156 L 290.292969 195.09375 L 264.890625 195.09375 C 263.246094 158.691406 229.222656 129.871094 187.433594 129.871094 C 145.671875 129.871094 111.53125 158.710938 109.980469 195.09375 L 84.578125 195.09375 L 84.578125 104.785156 L 107.15625 104.785156 C 107.488281 104.785156 107.808594 104.71875 108.117188 104.59375 C 108.425781 104.464844 108.695312 104.285156 108.929688 104.046875 C 109.164062 103.8125 109.347656 103.542969 109.472656 103.234375 C 109.601562 102.925781 109.664062 102.609375 109.664062 102.273438 Z M 159.371094 159.972656 C 158.648438 160.121094 158.097656 160.515625 157.722656 161.148438 L 79.953125 291.59375 C 79.710938 291.980469 79.582031 292.402344 79.570312 292.855469 C 79.558594 293.3125 79.660156 293.738281 79.882812 294.136719 C 80.101562 294.535156 80.40625 294.851562 80.796875 295.085938 C 81.191406 295.316406 81.613281 295.433594 82.070312 295.4375 L 292.800781 295.4375 C 293.257812 295.433594 293.679688 295.316406 294.070312 295.085938 C 294.464844 294.851562 294.769531 294.535156 294.988281 294.136719 C 295.210938 293.738281 295.3125 293.3125 295.300781 292.855469 C 295.289062 292.402344 295.160156 291.980469 294.917969 291.59375 L 217.148438 161.148438 C 216.917969 160.785156 216.617188 160.496094 216.242188 160.289062 C 215.863281 160.078125 215.460938 159.972656 215.03125 159.972656 L 159.839844 159.972656 C 159.683594 159.957031 159.527344 159.957031 159.371094 159.972656 Z M 161.171875 164.988281 L 184.925781 164.988281 L 184.925781 180.039062 C 184.921875 180.375 184.980469 180.699219 185.105469 181.011719 C 185.234375 181.324219 185.414062 181.597656 185.648438 181.835938 C 185.882812 182.078125 186.15625 182.261719 186.46875 182.390625 C 186.777344 182.519531 187.097656 182.585938 187.433594 182.585938 C 187.769531 182.585938 188.09375 182.519531 188.402344 182.390625 C 188.714844 182.261719 188.984375 182.078125 189.222656 181.835938 C 189.457031 181.597656 189.636719 181.324219 189.761719 181.011719 C 189.886719 180.699219 189.949219 180.375 189.945312 180.039062 L 189.945312 164.988281 L 213.699219 164.988281 L 288.410156 290.417969 L 189.945312 290.417969 L 189.945312 270.351562 C 189.949219 270.167969 189.9375 269.988281 189.90625 269.808594 C 189.875 269.628906 189.824219 269.453125 189.753906 269.285156 C 189.683594 269.117188 189.59375 268.960938 189.492188 268.8125 C 189.386719 268.660156 189.265625 268.523438 189.132812 268.402344 C 188.996094 268.28125 188.851562 268.171875 188.695312 268.082031 C 188.535156 267.988281 188.371094 267.917969 188.199219 267.859375 C 188.023438 267.804688 187.847656 267.769531 187.664062 267.753906 C 187.484375 267.738281 187.300781 267.738281 187.121094 267.761719 C 186.808594 267.800781 186.515625 267.894531 186.238281 268.046875 C 185.964844 268.195312 185.722656 268.390625 185.519531 268.628906 C 185.316406 268.867188 185.164062 269.136719 185.0625 269.433594 C 184.960938 269.730469 184.914062 270.035156 184.925781 270.351562 L 184.925781 290.417969 L 86.460938 290.417969 Z M 187.121094 207.558594 C 186.808594 207.597656 186.515625 207.691406 186.238281 207.839844 C 185.964844 207.988281 185.722656 208.183594 185.519531 208.421875 C 185.316406 208.664062 185.164062 208.929688 185.0625 209.226562 C 184.960938 209.523438 184.914062 209.832031 184.925781 210.144531 L 184.925781 235.230469 C 184.921875 235.566406 184.980469 235.890625 185.105469 236.199219 C 185.234375 236.511719 185.414062 236.789062 185.648438 237.027344 C 185.882812 237.265625 186.15625 237.449219 186.46875 237.578125 C 186.777344 237.710938 187.097656 237.773438 187.433594 237.773438 C 187.769531 237.773438 188.09375 237.710938 188.402344 237.578125 C 188.714844 237.449219 188.984375 237.265625 189.222656 237.027344 C 189.457031 236.789062 189.636719 236.511719 189.761719 236.199219 C 189.886719 235.890625 189.949219 235.566406 189.945312 235.230469 L 189.945312 210.144531 C 189.953125 209.960938 189.9375 209.78125 189.90625 209.601562 C 189.875 209.421875 189.824219 209.25 189.753906 209.082031 C 189.683594 208.914062 189.59375 208.753906 189.492188 208.605469 C 189.386719 208.457031 189.265625 208.320312 189.132812 208.195312 C 189 208.074219 188.851562 207.964844 188.695312 207.875 C 188.535156 207.785156 188.371094 207.710938 188.199219 207.65625 C 188.023438 207.601562 187.847656 207.5625 187.664062 207.546875 C 187.484375 207.53125 187.300781 207.535156 187.121094 207.558594 Z M 187.121094 207.558594 " fill-opacity="1" fill-rule="nonzero"/></g></svg>