<svg width="40" height="40" viewBox="0 0 40 40" fill="none" xmlns="http://www.w3.org/2000/svg">
<rect width="40" height="40" fill="white"/>
<path d="M6.66927 38.3327C5.7526 38.3327 4.96788 38.0063 4.3151 37.3535C3.66233 36.7007 3.33594 35.916 3.33594 34.9994V11.666H6.66927V34.9994H25.0026V38.3327H6.66927ZM13.3359 31.666C12.4193 31.666 11.6345 31.3396 10.9818 30.6869C10.329 30.0341 10.0026 29.2494 10.0026 28.3327V4.99935C10.0026 4.08268 10.329 3.29796 10.9818 2.64518C11.6345 1.9924 12.4193 1.66602 13.3359 1.66602H25.0026L35.0026 11.666V28.3327C35.0026 29.2494 34.6762 30.0341 34.0234 30.6869C33.3707 31.3396 32.5859 31.666 31.6693 31.666H13.3359ZM23.3359 13.3327H31.6693L23.3359 4.99935V13.3327Z" fill="#FE6100"/>
</svg>
