<svg width="52" height="52" viewBox="0 0 52 52" fill="none" xmlns="http://www.w3.org/2000/svg">
<path d="M26 51C30.9445 51 35.778 49.5338 39.8892 46.7867C44.0005 44.0397 47.2048 40.1352 49.097 35.5671C50.9892 30.9989 51.4842 25.9723 50.5196 21.1227C49.555 16.2732 47.174 11.8187 43.6777 8.32234C40.1813 4.82603 35.7268 2.44501 30.8772 1.48038C26.0277 0.515749 21.0011 1.01083 16.4329 2.90302C11.8648 4.79521 7.96029 7.99952 5.21326 12.1108C2.46622 16.222 1 21.0555 1 26C1 30.1333 2 34.0306 3.77778 37.4639L1 51L14.5361 48.2222C17.9694 50 21.8694 51 26 51Z" stroke="#75767A" stroke-width="2" stroke-linecap="round" stroke-linejoin="round"/>
</svg>
