<svg width="708" height="470" viewBox="0 0 708 470" fill="none" xmlns="http://www.w3.org/2000/svg">
<g clip-path="url(#clip0_2181_7715)">
<path d="M358.665 132.098C352.352 121.659 344.872 110.515 333.157 107.106C319.59 103.159 305.653 111 293.832 118.738C258.479 141.878 224.434 166.955 191.852 193.855L191.887 194.26C217.254 192.511 242.62 190.762 267.986 189.014C286.314 187.75 305.271 186.312 321.467 177.645C327.613 174.356 333.604 169.962 340.568 169.656C349.221 169.276 356.765 175.317 362.694 181.629C397.765 218.965 407.914 276.06 447.261 308.863C422.45 247.692 392.825 188.585 358.665 132.098Z" fill="#F2F2F2"/>
<path d="M574.248 448.775C570.37 443.879 568.785 442.732 564.96 437.791C533.81 397.515 504.532 355.878 477.125 312.881C458.51 283.678 440.817 253.916 424.047 223.592C416.064 209.176 408.299 194.646 400.753 180.004C394.898 168.65 389.173 157.229 383.579 145.74C381.979 142.458 380.425 139.161 378.878 135.857C375.233 128.087 371.656 120.279 367.815 112.615C363.439 103.879 358.112 94.7209 350.075 88.8518C346.418 86.0712 342.044 84.3887 337.466 84.0011C330.923 83.5787 324.887 86.2794 319.212 89.229C277.695 110.872 238.826 138.007 203.67 168.884C168.423 199.83 136.919 234.792 109.799 273.057C108.969 274.241 107.007 273.11 107.844 271.918C111.142 267.256 114.505 262.644 117.933 258.082C160.562 201.403 212.832 152.661 272.352 114.086C282.366 107.598 292.568 101.415 302.958 95.5356C308.195 92.5708 313.455 89.6438 318.805 86.8979C324.049 84.2048 329.618 81.7832 335.609 81.6927C355.999 81.3759 366.555 104.46 373.807 119.993C376.086 124.881 378.392 129.754 380.726 134.613C389.548 153.057 398.708 171.333 408.208 189.441C414.072 200.621 420.063 211.736 426.183 222.785C445.229 257.192 465.472 290.903 486.912 323.917C515.315 367.649 543.491 406.281 575.848 447.176C576.739 448.307 575.147 449.922 574.248 448.775Z" fill="#E4E4E4"/>
<path d="M201.655 157.486C200.47 156.166 199.293 154.846 198.101 153.525C188.698 143.13 178.61 132.855 165.699 126.896C159.542 123.964 152.822 122.407 146.004 122.332C138.956 122.354 132.067 124.203 125.555 126.79C122.476 128.02 119.465 129.415 116.5 130.901C113.111 132.606 109.783 134.424 106.471 136.258C100.253 139.698 94.1157 143.288 88.0591 147.03C76.0082 154.476 64.3346 162.49 53.0385 171.072C47.1827 175.523 41.4478 180.12 35.8337 184.862C30.612 189.268 25.4959 193.792 20.4854 198.434C19.414 199.422 17.8141 197.823 18.8856 196.834C20.2061 195.605 21.5418 194.383 22.8774 193.176C26.6504 189.766 30.4837 186.421 34.3775 183.142C41.478 177.153 48.7623 171.394 56.2304 165.867C67.8436 157.267 79.8567 149.251 92.2694 141.817C98.4723 138.106 104.761 134.55 111.134 131.15C113.059 130.124 115.005 129.121 116.975 128.171C121.444 125.917 126.087 124.028 130.859 122.52C137.62 120.334 144.772 119.631 151.829 120.461C158.643 121.452 165.208 123.722 171.177 127.152C183.854 134.236 193.686 145.189 203.254 155.879C204.221 156.965 202.628 158.572 201.655 157.486Z" fill="#E4E4E4"/>
<path d="M461.403 265.209L491.78 254.102L506.863 248.587C511.775 246.791 516.675 244.746 521.753 243.46C526.166 242.2 530.851 242.259 535.23 243.632C539.136 245.077 542.711 247.292 545.743 250.146C548.84 252.998 551.722 256.075 554.365 259.352C557.649 263.297 560.884 267.283 564.134 271.257C577.546 287.655 590.87 304.124 604.107 320.665C617.344 337.205 630.492 353.816 643.552 370.497C656.643 387.218 669.644 404.01 682.556 420.871C684.138 422.937 685.718 425.004 687.297 427.071C688.169 428.213 690.136 427.087 689.252 425.929C676.245 408.898 663.148 391.937 649.96 375.045C636.739 358.113 623.427 341.253 610.024 324.464C596.621 307.676 583.128 290.961 569.544 274.319C566.16 270.173 562.77 266.031 559.375 261.894C556.51 258.404 553.679 254.877 550.537 251.629C544.771 245.667 537.567 240.398 528.943 240.255C523.873 240.171 518.966 241.78 514.255 243.483C509.176 245.32 504.11 247.191 499.038 249.046L468.449 260.231L460.801 263.027C459.444 263.523 460.03 265.711 461.403 265.209Z" fill="#E4E4E4"/>
<path d="M161.697 139.976C146.26 132.045 126.49 133.598 112.305 143.508C139.363 148.174 166.124 154.419 192.453 162.209C181.52 155.803 172.968 145.767 161.697 139.976Z" fill="#F2F2F2"/>
<path d="M112.152 143.48L109.18 145.895C110.185 145.05 111.23 144.258 112.303 143.508C112.253 143.499 112.202 143.489 112.152 143.48Z" fill="#F2F2F2"/>
<path d="M544.598 265.32C541.608 261.681 538.375 257.871 533.902 256.393L529.727 256.557C561.514 312.711 604.445 361.778 655.885 400.747C618.79 355.605 581.694 310.462 544.598 265.32Z" fill="#F2F2F2"/>
<path d="M284.924 235.301C286.857 242.32 291.21 248.429 297.214 252.548C299.536 254.128 302.282 255.644 303.076 258.337C303.494 260.053 303.237 261.865 302.357 263.397C301.479 264.91 300.411 266.304 299.179 267.546L299.067 267.967C293.306 264.554 287.826 260.237 284.643 254.347C281.461 248.457 281.017 240.737 284.924 235.301Z" fill="#F2F2F2"/>
<path d="M476.713 402.352C478.646 409.37 482.999 415.48 489.004 419.599C491.325 421.179 494.071 422.694 494.866 425.387C495.283 427.104 495.026 428.916 494.146 430.448C493.269 431.961 492.2 433.355 490.968 434.597L490.856 435.018C485.095 431.605 479.615 427.288 476.432 421.398C473.25 415.508 472.806 407.788 476.713 402.352Z" fill="#F2F2F2"/>
<path d="M93.9633 390.83C95.8957 397.849 100.249 403.958 106.254 408.077C108.575 409.657 111.321 411.173 112.115 413.866C112.533 415.583 112.276 417.394 111.396 418.927C110.519 420.44 109.45 421.834 108.218 423.075L108.106 423.497C102.345 420.084 96.8646 415.767 93.6825 409.877C90.5004 403.986 90.0561 396.267 93.9633 390.83Z" fill="#F2F2F2"/>
<path d="M534.417 83.9362C557.602 83.9362 576.397 65.1465 576.397 41.9681C576.397 18.7898 557.602 0 534.417 0C511.232 0 492.438 18.7898 492.438 41.9681C492.438 65.1465 511.232 83.9362 534.417 83.9362Z" fill="#FE6100"/>
<path d="M610.171 9.7691C589.826 7.01982 566.598 18.0135 561.325 37.8495C559.996 34.3226 557.58 31.3095 554.426 29.2452C551.272 27.181 547.544 26.1726 543.779 26.3658C540.014 26.5589 536.408 27.9436 533.482 30.3197C530.556 32.6958 528.461 35.9404 527.5 39.5848L529.829 41.2525C573.428 50.6783 618.56 50.4743 662.072 40.6548C647.92 25.7858 630.516 12.5183 610.171 9.7691Z" fill="#F0F0F0"/>
<path d="M522.921 65.7261C502.576 62.9769 479.348 73.9705 474.075 93.8065C472.746 90.2797 470.33 87.2665 467.176 85.2023C464.022 83.138 460.294 82.1296 456.529 82.3228C452.764 82.5159 449.158 83.9006 446.232 86.2767C443.306 88.6529 441.211 91.8975 440.25 95.5418L442.579 97.2095C486.178 106.635 531.31 106.431 574.822 96.6118C560.67 81.7428 543.266 68.4754 522.921 65.7261Z" fill="#F0F0F0"/>
<path d="M700.496 76.3058C700.412 76.3059 700.328 76.2929 700.248 76.2672C482.607 7.45747 290.786 16.4556 168.193 36.1209C151.509 38.7961 134.781 41.886 118.473 45.3054C114.309 46.1773 109.99 47.1119 105.635 48.0851C100.434 49.2431 95.3014 50.4357 90.3803 51.6283C88.255 52.1314 86.1712 52.6384 84.1289 53.1495C81.0353 53.913 77.8963 54.7085 74.5314 55.5828C70.7715 56.552 66.9512 57.5686 63.1744 58.6045C63.1606 58.6093 63.1465 58.6133 63.1322 58.6165L63.1326 58.6173C58.8666 59.7817 54.6232 60.98 50.5196 62.1766C48.2986 62.8178 46.1539 63.4503 44.0997 64.0747C43.8702 64.1382 43.6669 64.1993 43.4607 64.262L43.0194 64.3961C42.7638 64.4741 42.5114 64.5504 42.259 64.6228L42.2429 64.6276L42.2433 64.6284L41.5753 64.8358C40.7787 65.0769 40.0014 65.3123 39.2369 65.547C19.0333 71.7734 7.92662 76.203 7.8169 76.2463C7.71656 76.2866 7.60929 76.3066 7.5012 76.3054C7.39311 76.3041 7.28633 76.2816 7.18694 76.2391C7.08755 76.1966 6.9975 76.135 6.92195 76.0577C6.84639 75.9804 6.7868 75.889 6.74659 75.7887C6.70637 75.6884 6.68631 75.5811 6.68755 75.4731C6.68879 75.365 6.71131 75.2583 6.75382 75.1589C6.79633 75.0595 6.85799 74.9695 6.9353 74.894C7.01261 74.8184 7.10404 74.7589 7.20437 74.7187C7.3149 74.6753 18.4758 70.2232 38.753 63.9735C39.5203 63.738 40.2996 63.5026 41.0986 63.2607L41.7192 63.0678C41.7405 63.0598 41.7618 63.0534 41.7835 63.0469C42.0347 62.9754 42.2855 62.8991 42.5403 62.8219L42.9824 62.6877C43.2027 62.621 43.4197 62.5551 43.6419 62.494C45.6821 61.8736 47.834 61.2396 50.0606 60.5959C54.1658 59.3985 58.4133 58.2003 62.6825 57.0343C62.6957 57.0294 62.7094 57.0262 62.7227 57.0222C66.5128 55.9831 70.3471 54.9617 74.1191 53.9894C77.4892 53.1142 80.6342 52.317 83.733 51.552C85.784 51.0417 87.8718 50.5335 89.9965 50.0275C94.9232 48.8333 100.066 47.6392 105.276 46.4787C109.638 45.5048 113.965 44.5677 118.135 43.695C134.469 40.27 151.223 37.1753 167.932 34.496C290.701 14.8025 482.796 5.78994 700.744 74.6985C700.931 74.7576 701.091 74.8819 701.195 75.0488C701.299 75.2156 701.339 75.4141 701.309 75.6083C701.28 75.8025 701.181 75.9795 701.032 76.1075C700.883 76.2354 700.693 76.3057 700.496 76.3058Z" fill="#CCCCCC"/>
<path d="M216.477 345.489C216.192 344.656 215.712 343.902 215.078 343.292C214.843 343.075 214.59 342.879 214.32 342.707C212.172 341.276 208.962 340.955 206.921 342.707C206.715 342.886 206.525 343.081 206.353 343.292C205.743 344.041 205.118 344.773 204.476 345.489C203.422 346.69 202.344 347.851 201.216 348.978C200.895 349.291 200.574 349.612 200.245 349.924C200.056 350.114 199.866 350.295 199.677 350.476C198.953 351.167 198.212 351.833 197.463 352.492C197.068 352.846 196.673 353.191 196.269 353.529C195.668 354.031 195.067 354.533 194.458 355.018C194.401 355.059 194.343 355.1 194.285 355.15C194.269 355.158 194.261 355.174 194.244 355.183C194.236 355.183 194.228 355.183 194.22 355.199C194.197 355.208 194.178 355.222 194.162 355.24C193.981 355.364 193.857 355.446 193.767 355.52C193.8 355.504 193.833 355.479 193.866 355.462C193.718 355.578 193.561 355.693 193.413 355.808C191.972 356.87 190.499 357.89 188.993 358.845C185.266 361.229 181.351 363.307 177.288 365.058C177.016 365.164 176.736 365.28 176.456 365.387C165.817 369.744 154.276 371.445 142.832 370.341C141.663 370.25 140.494 370.127 139.325 369.97C137.975 369.773 136.633 369.534 135.3 369.263C130.223 368.25 125.256 366.751 120.467 364.786C114.477 362.043 108.779 358.702 103.461 354.812C102.638 354.228 101.807 353.644 100.975 353.076C101.922 350.755 102.852 348.435 103.758 346.098C104.21 344.97 104.647 343.843 105.075 342.707C108.441 333.96 111.602 325.13 114.631 316.268C117.693 307.29 120.582 298.26 123.299 289.178C123.579 288.256 123.85 287.334 124.114 286.413C125.538 281.615 126.904 276.807 128.213 271.987C128.336 271.518 128.468 271.057 128.583 270.588C128.962 269.206 129.332 267.823 129.694 266.441C130.518 263.322 128.657 259.594 125.381 258.845C123.804 258.441 122.131 258.665 120.715 259.469C119.3 260.273 118.252 261.596 117.792 263.157C117.438 264.49 117.084 265.815 116.722 267.148C114.985 273.592 113.158 280.013 111.24 286.413C110.96 287.334 110.68 288.256 110.4 289.178C106.169 303.118 101.524 316.918 96.4647 330.578C95.8556 332.232 95.2382 333.88 94.6126 335.523C94.3081 336.33 94.0035 337.136 93.6907 337.943C93.0898 339.531 92.4725 341.119 91.8552 342.707C91.5012 343.637 91.139 344.567 90.7769 345.489C90.5382 346.073 90.3077 346.657 90.0772 347.233C87.7303 346.391 85.2988 345.806 82.8254 345.489L82.4303 345.439C80.5128 345.209 78.5735 345.225 76.6602 345.489C73.7966 345.823 71.0413 346.782 68.5892 348.298C66.137 349.813 64.0479 351.849 62.4694 354.261C58.5431 360.441 58.5925 369.279 64.0992 374.529C69.7706 379.936 78.3558 379.894 85.0314 376.512C88.569 374.599 91.5519 371.804 93.6907 368.399C94.5101 367.164 95.263 365.887 95.9461 364.572C96.119 364.687 96.2918 364.802 96.4647 364.926C97.1232 365.387 97.7817 365.856 98.432 366.317C102.221 369.061 106.214 371.512 110.376 373.649C119.325 378.096 128.958 381.009 138.872 382.264C139.095 382.289 139.309 382.322 139.531 382.347C140.626 382.487 141.729 382.594 142.832 382.684C158.654 383.876 174.496 380.639 188.581 373.336C189.775 372.719 190.957 372.071 192.129 371.394C193.948 370.341 195.726 369.221 197.463 368.036C198.409 367.395 199.331 366.744 200.245 366.061C204.238 363.122 207.959 359.83 211.365 356.228C212.658 354.87 213.895 353.468 215.078 352.023C216.196 350.84 216.841 349.288 216.889 347.661C216.882 346.918 216.743 346.183 216.477 345.489ZM80.1749 365.09C80.3478 364.967 80.5207 364.835 80.6853 364.704C80.6359 364.827 80.3972 364.967 80.1749 365.09ZM82.8172 362.432C82.6279 362.646 82.455 362.86 82.2657 363.074C81.6897 363.719 81.071 364.324 80.4136 364.885C80.3231 364.967 80.2243 365.049 80.1256 365.123C80.1245 365.123 80.1234 365.124 80.1224 365.124C80.1214 365.124 80.1205 365.125 80.1197 365.126C80.1189 365.126 80.1183 365.127 80.1179 365.128C80.1175 365.129 80.1173 365.13 80.1173 365.132C79.9984 365.185 79.8829 365.245 79.7716 365.313C79.4176 365.527 79.0555 365.724 78.6851 365.905C77.9598 366.172 77.2137 366.378 76.4544 366.522C75.8709 366.565 75.2853 366.57 74.7011 366.539H74.6847C74.2815 366.449 73.8832 366.339 73.4911 366.21C73.2936 366.111 73.1043 365.996 72.9149 365.88C72.8409 365.815 72.775 365.749 72.7338 365.708C72.6534 365.634 72.5791 365.554 72.5117 365.469C72.5117 365.468 72.5115 365.467 72.5111 365.466C72.5106 365.465 72.5101 365.464 72.5093 365.463C72.5085 365.462 72.5076 365.462 72.5066 365.461C72.5056 365.461 72.5045 365.461 72.5034 365.461C72.4128 365.296 72.3141 365.132 72.2236 364.967C72.2189 364.963 72.2159 364.957 72.2153 364.951C72.1495 364.745 72.0919 364.531 72.0425 364.317C72.0246 363.941 72.0273 363.565 72.0507 363.19C72.1611 362.664 72.3097 362.147 72.4952 361.642C72.6618 361.285 72.8516 360.939 73.0631 360.606C73.0796 360.573 73.1619 360.441 73.2525 360.293C73.2607 360.285 73.2607 360.285 73.2607 360.276C73.3842 360.137 73.5076 359.988 73.6393 359.857C73.8616 359.61 74.1003 359.396 74.339 359.174C74.8032 358.87 75.2842 358.592 75.7795 358.343C76.5653 358.064 77.3716 357.846 78.1912 357.693C79.3999 357.597 80.6146 357.608 81.8213 357.725C82.9642 357.924 84.0918 358.201 85.1961 358.557C84.5268 359.855 83.7648 361.104 82.916 362.293C82.883 362.342 82.8501 362.391 82.8172 362.432ZM73.664 359.725C73.5915 359.841 73.5059 359.949 73.4088 360.046C73.4741 359.925 73.5605 359.816 73.664 359.725Z" fill="#3F3D56"/>
<path d="M191.73 261.445C191.656 264.029 191.582 266.613 191.507 269.197C191.351 274.933 191.189 280.671 191.022 286.412C190.849 292.872 190.668 299.329 190.478 305.783C190.388 309.116 190.295 312.449 190.199 315.782C189.943 324.759 189.691 333.735 189.441 342.707C189.417 343.637 189.384 344.559 189.359 345.488C189.236 349.94 189.112 354.392 188.989 358.844C188.849 363.675 188.712 368.505 188.577 373.336C188.478 376.956 188.377 380.58 188.273 384.206C187.532 410.481 186.791 436.757 186.05 463.032C186.019 464.659 185.358 466.211 184.207 467.362C183.056 468.512 181.504 469.173 179.877 469.204C178.243 469.191 176.681 468.536 175.526 467.382C174.371 466.227 173.716 464.665 173.703 463.032C174.115 448.253 174.532 433.473 174.954 418.694C175.325 405.33 175.701 391.966 176.082 378.602C176.205 374.2 176.329 369.794 176.452 365.386C176.642 358.754 176.828 352.121 177.012 345.488C177.037 344.559 177.07 343.637 177.094 342.707C177.111 341.892 177.136 341.086 177.16 340.271C177.522 327.393 177.885 314.512 178.247 301.628C178.395 296.559 178.538 291.487 178.675 286.412C178.839 280.627 179.004 274.845 179.169 269.065C179.243 266.523 179.309 263.988 179.383 261.445C179.414 259.818 180.074 258.266 181.226 257.116C182.377 255.965 183.929 255.305 185.556 255.273C187.189 255.287 188.752 255.941 189.907 257.096C191.062 258.25 191.717 259.812 191.73 261.445Z" fill="#3F3D56"/>
<path d="M530.393 263.157C523.92 287.663 516.183 311.818 507.213 335.525C504.738 342.064 502.206 348.59 499.499 355.037L500.121 353.563C498.913 356.634 497.37 359.562 495.52 362.295C495.395 362.472 495.266 362.646 495.136 362.819C495.776 362.001 495.897 361.84 495.501 362.334C495.292 362.582 495.085 362.83 494.869 363.071C494.293 363.716 493.674 364.322 493.018 364.884C492.852 365.026 492.684 365.164 492.514 365.299L493.286 364.699C493.196 364.911 492.568 365.191 492.372 365.311C491.738 365.693 491.076 366.028 490.392 366.313L491.867 365.691C490.747 366.142 489.578 366.463 488.384 366.646L490.025 366.426C488.852 366.588 487.664 366.601 486.488 366.464L488.129 366.684C487.166 366.552 486.225 366.298 485.326 365.93L486.801 366.552C486.321 366.343 485.859 366.096 485.419 365.814C485.196 365.669 484.509 365.149 485.407 365.835C486.34 366.547 485.526 365.896 485.335 365.706C485.175 365.549 485.03 365.377 484.874 365.217C484.148 364.472 485.694 366.498 485.2 365.627C484.937 365.191 484.695 364.741 484.478 364.28L485.1 365.754C484.817 365.053 484.616 364.321 484.501 363.573L484.721 365.213C484.603 364.283 484.602 363.342 484.719 362.411L484.498 364.052C484.649 363.014 484.924 361.997 485.317 361.024L484.695 362.498C484.969 361.843 485.293 361.211 485.664 360.607C485.835 360.294 486.036 359.999 486.264 359.725C486.304 359.738 485.22 360.97 485.795 360.348C485.946 360.185 486.087 360.014 486.239 359.852C486.483 359.594 486.744 359.358 487.001 359.114C487.861 358.295 485.797 359.908 486.79 359.261C487.509 358.788 488.266 358.376 489.053 358.027L487.578 358.649C488.896 358.108 490.278 357.738 491.69 357.547L490.048 357.767C491.817 357.564 493.604 357.585 495.366 357.83L493.725 357.61C495.958 357.948 498.14 358.562 500.221 359.436L498.746 358.814C503.183 360.718 507.112 363.545 511.034 366.318C514.822 369.06 518.814 371.51 522.975 373.647C531.924 378.095 541.558 381.009 551.473 382.266C565.693 384.007 580.123 382.151 593.439 376.866C606.754 371.582 618.529 363.04 627.683 352.022C628.8 350.838 629.443 349.285 629.491 347.658C629.48 346.024 628.831 344.458 627.683 343.294C625.418 341.216 621.14 340.629 618.953 343.294C616.88 345.824 614.651 348.223 612.28 350.476C611.173 351.526 610.036 352.543 608.87 353.528C608.204 354.091 607.529 354.643 606.845 355.183C606.521 355.439 605.512 356.12 607.061 355.021C606.706 355.273 606.366 355.548 606.015 355.807C600.831 359.627 595.214 362.822 589.279 365.323L590.754 364.701C584.386 367.372 577.698 369.204 570.858 370.151L572.499 369.93C565.462 370.856 558.334 370.845 551.3 369.899L552.942 370.119C545.909 369.154 539.032 367.281 532.481 364.548L533.956 365.17C527.634 362.374 521.635 358.9 516.064 354.809C513.164 352.663 510.106 350.739 506.916 349.054C503.2 347.156 499.176 345.933 495.032 345.442C487.263 344.528 479.346 347.553 475.074 354.264C471.144 360.44 471.194 369.277 476.699 374.528C482.368 379.937 490.954 379.891 497.636 376.508C504.071 373.25 507.936 366.48 510.654 360.098C516.77 345.734 522.186 331.038 527.231 316.267C532.223 301.654 536.75 286.893 540.812 271.984C541.315 270.138 541.811 268.289 542.299 266.439C543.123 263.321 541.261 259.592 537.987 258.847C536.409 258.441 534.735 258.663 533.319 259.468C531.902 260.272 530.853 261.595 530.393 263.157Z" fill="#3F3D56"/>
<path d="M591.987 261.445L589.765 340.274L587.555 418.692L586.305 463.033C586.319 464.665 586.973 466.227 588.128 467.382C589.283 468.536 590.845 469.191 592.478 469.205C594.106 469.173 595.658 468.513 596.809 467.362C597.96 466.211 598.62 464.66 598.652 463.033L600.874 384.204L603.084 305.786L604.334 261.445C604.32 259.813 603.665 258.251 602.511 257.096C601.356 255.942 599.794 255.287 598.161 255.273C596.533 255.305 594.981 255.965 593.83 257.116C592.679 258.267 592.019 259.818 591.987 261.445Z" fill="#3F3D56"/>
<path opacity="0.2" d="M378.3 441.023H380.217V353.761H424.936V351.849H380.217V315.029H414.752C414.245 314.385 413.724 313.75 413.189 313.122H380.217V288.803C379.583 288.533 378.944 288.272 378.3 288.027V313.122H340.722V281.963C340.078 281.992 339.444 282.037 338.805 282.091V313.122H308.827V289.874C308.183 290.159 307.549 290.459 306.92 290.774V313.122H281.719V315.029H306.92V351.849H281.719V353.761H306.92V441.023H308.827V353.761C312.764 353.76 316.662 354.535 320.3 356.041C323.937 357.546 327.243 359.754 330.026 362.537C332.81 365.32 335.018 368.624 336.525 372.261C338.031 375.897 338.806 379.795 338.805 383.731V441.023H340.722V353.761H378.3V441.023ZM308.827 351.849V315.029H338.805V351.849H308.827ZM340.722 351.849V315.029H341.474C346.311 315.029 351.099 315.982 355.567 317.832C360.036 319.683 364.095 322.395 367.515 325.814C370.934 329.233 373.647 333.292 375.497 337.759C377.348 342.227 378.3 347.014 378.3 351.849H340.722Z" fill="black"/>
<path d="M366.594 414.859C364.18 425.621 358.399 435.335 350.09 442.591C349.481 443.117 348.872 443.627 348.238 444.129C346.699 444.269 345.17 444.412 343.653 444.557C342.394 444.673 341.151 444.796 339.916 444.911L339.694 444.936L339.537 443.586L338.912 438.122C336.485 434.161 334.981 429.705 334.511 425.084C334.04 420.463 334.616 415.796 336.196 411.427C338.369 405.568 342.303 400.392 346.172 395.257C351.514 388.164 356.708 381.153 356.897 372.504C359.526 375.867 361.711 379.553 363.4 383.473C361.807 384.223 360.375 385.277 359.186 386.575C358.848 386.946 358.511 387.464 358.741 387.909C358.939 388.287 359.432 388.378 359.861 388.427C360.889 388.534 361.927 388.641 362.955 388.748C363.779 388.838 364.602 388.921 365.425 389.011C366.421 392.279 367.096 395.636 367.441 399.034C367.996 404.321 367.71 409.662 366.594 414.859Z" fill="#3F3D56"/>
<path d="M393.926 393.291C389.069 396.821 386.229 401.898 384.024 407.494C381.763 408.218 379.729 409.516 378.122 411.263C377.784 411.633 377.447 412.152 377.677 412.596C377.875 412.975 378.369 413.065 378.797 413.115C379.826 413.222 380.863 413.329 381.892 413.436C379.686 420.052 377.661 426.898 373.759 432.486C371.164 436.175 367.782 439.241 363.857 441.464C362.787 442.073 361.682 442.62 360.548 443.101C356.366 443.422 352.264 443.765 348.242 444.13C346.703 444.27 345.175 444.412 343.657 444.558C342.398 444.673 341.155 444.796 339.92 444.912C339.912 444.459 339.912 444.006 339.92 443.554C340.181 431.497 344.617 419.904 352.473 410.753C352.843 410.325 353.222 409.905 353.609 409.486C357.589 405.236 362.269 401.701 367.446 399.035C375.603 394.795 384.745 392.812 393.926 393.291Z" fill="#FE6100"/>
<path d="M345.084 440.337L344.137 443.134L343.66 444.558C342.4 444.673 341.157 444.797 339.923 444.912L339.7 444.937C338.334 445.076 336.976 445.216 335.618 445.356C335.264 444.945 334.91 444.525 334.564 444.097C325.972 433.696 321.848 420.318 323.093 406.886C324.338 393.454 330.85 381.06 341.207 372.414C340.12 378.1 341.388 383.548 343.47 388.954C343.248 389.045 343.034 389.135 342.828 389.234C341.235 389.984 339.803 391.038 338.614 392.336C338.276 392.707 337.939 393.225 338.169 393.67C338.367 394.048 338.861 394.139 339.289 394.188C340.318 394.295 341.355 394.402 342.384 394.509C343.207 394.599 344.03 394.682 344.853 394.772C345.24 394.813 345.627 394.855 346.014 394.896C346.071 395.019 346.121 395.134 346.178 395.258C348.524 400.343 351.051 405.454 352.475 410.753C352.832 412.083 353.113 413.432 353.315 414.794C353.949 419.396 353.538 424.082 352.113 428.504C350.688 432.925 348.286 436.97 345.084 440.337Z" fill="#FE6100"/>
<path d="M427.937 320.982C420.85 307.164 409.872 295.537 396.96 286.993C384.007 278.461 369.144 273.265 353.694 271.868C351.669 271.684 349.639 271.577 347.604 271.545C345.199 271.509 309.027 281.94 296.91 290.457C284.799 298.871 274.837 310.013 267.826 322.984C260.828 336.026 257.386 350.68 257.845 365.473C258.445 380.356 262.595 394.879 269.948 407.833C277.2 420.745 287.498 431.69 299.946 439.717C312.571 447.771 325.253 469.124 340.159 469.878C355.178 470.637 372.306 450.494 386.004 444.378C399.702 438.212 411.544 428.563 420.349 416.396C428.906 404.471 434.442 390.65 436.482 376.116C438.6 361.236 437.613 345.889 432.53 331.666C431.225 328.012 429.691 324.443 427.937 320.982C426.472 318.098 422.178 317.036 419.49 318.768C418.105 319.62 417.102 320.974 416.69 322.546C416.277 324.119 416.487 325.79 417.275 327.212C418.136 328.906 418.935 330.628 419.675 332.378L419.053 330.904C421.851 337.631 423.754 344.697 424.713 351.919L424.492 350.278C425.512 358.114 425.494 366.05 424.438 373.881L424.658 372.241C423.591 380.071 421.501 387.728 418.44 395.014L419.062 393.54C417.488 397.257 415.653 400.859 413.571 404.318C412.516 406.066 411.396 407.772 410.212 409.438C409.692 410.169 409.156 410.887 408.616 411.603C407.911 412.538 409.576 410.383 408.848 411.299C408.724 411.455 408.601 411.612 408.476 411.768C408.103 412.235 407.723 412.698 407.339 413.156C404.773 416.217 401.972 419.074 398.962 421.701C398.213 422.355 397.451 422.995 396.676 423.619C396.29 423.931 395.909 424.255 395.506 424.545C395.522 424.534 396.807 423.558 396.046 424.124C395.807 424.303 395.57 424.483 395.33 424.661C393.733 425.844 392.094 426.966 390.412 428.028C386.541 430.467 382.479 432.589 378.267 434.375L379.741 433.753C372.475 436.811 364.837 438.901 357.026 439.967L358.667 439.747C350.859 440.802 342.946 440.816 335.134 439.789L336.776 440.009C329.676 439.056 322.732 437.179 316.119 434.426L317.594 435.048C313.763 433.431 310.07 431.508 306.55 429.295C304.808 428.198 303.112 427.033 301.461 425.8C301.225 425.624 300.991 425.446 300.757 425.269C300.003 424.7 301.298 425.688 301.308 425.695C300.87 425.381 300.449 425.045 300.045 424.687C299.247 424.038 298.462 423.374 297.69 422.694C294.598 419.973 291.711 417.027 289.052 413.882C288.387 413.095 287.735 412.297 287.098 411.486C286.822 411.136 286.319 410.425 287.431 411.922C287.285 411.725 287.133 411.531 286.985 411.336C286.63 410.865 286.28 410.391 285.935 409.914C284.726 408.242 283.577 406.528 282.488 404.774C280.027 400.803 277.878 396.646 276.063 392.341L276.685 393.816C273.715 386.75 271.684 379.325 270.643 371.731L270.864 373.372C269.925 366.372 269.912 359.279 270.824 352.276L270.603 353.917C271.539 347.135 273.364 340.506 276.032 334.201L275.409 335.675C277.088 331.728 279.068 327.916 281.332 324.273C282.465 322.45 283.666 320.671 284.935 318.936C285.224 318.542 285.515 318.151 285.81 317.761C286.077 317.409 286.81 316.533 285.558 318.081C285.681 317.929 285.799 317.773 285.92 317.62C286.616 316.738 287.33 315.87 288.06 315.015C290.824 311.781 293.818 308.75 297.018 305.946C297.827 305.238 298.649 304.544 299.483 303.865C299.862 303.557 300.244 303.252 300.628 302.949C300.782 302.829 300.938 302.71 301.091 302.589C299.446 303.897 300.634 302.945 301.007 302.665C302.727 301.377 304.492 300.153 306.304 298.994C310.331 296.419 314.568 294.187 318.969 292.322L317.494 292.944C323.882 290.263 352.182 283.934 357.329 284.625L355.688 284.404C363.253 285.46 370.647 287.502 377.682 290.479L376.207 289.857C379.772 291.37 383.236 293.11 386.579 295.065C388.249 296.044 389.886 297.076 391.491 298.161C392.25 298.675 393.001 299.2 393.744 299.737C394.116 300.006 394.485 300.277 394.853 300.551C395.057 300.703 395.259 300.858 395.463 301.01C396.318 301.651 394.285 300.082 395.181 300.791C398.182 303.148 401.033 305.691 403.715 308.405C405.033 309.747 406.305 311.131 407.532 312.557C408.161 313.289 408.778 314.032 409.381 314.785C409.681 315.159 410.702 316.514 409.451 314.855C409.757 315.26 410.066 315.663 410.368 316.072C412.969 319.592 415.279 323.317 417.275 327.212C418.751 330.09 423.026 331.164 425.722 329.426C427.107 328.574 428.11 327.221 428.523 325.648C428.935 324.075 428.725 322.404 427.937 320.982Z" fill="#3F3D56"/>
<path d="M355.997 421.702C355.36 421.732 354.729 421.564 354.19 421.223C353.651 420.882 353.23 420.383 352.984 419.795C352.738 419.207 352.679 418.557 352.814 417.934C352.95 417.31 353.274 416.744 353.742 416.311C353.821 415.999 353.877 415.776 353.956 415.464C353.928 415.396 353.899 415.328 353.871 415.26C351.007 408.432 332.729 427.467 331.939 433.884C331.591 436.721 331.737 439.596 332.373 442.383C326.452 429.472 323.378 415.439 323.358 401.235C323.357 397.671 323.555 394.11 323.951 390.568C324.279 387.664 324.734 384.781 325.315 381.919C328.488 366.388 335.301 351.831 345.195 339.443C350.853 339.759 355.812 338.897 356.29 327.935C356.376 325.985 357.822 324.296 358.141 322.375C357.601 322.446 357.052 322.49 356.512 322.526C356.343 322.534 356.166 322.543 355.998 322.552L355.935 322.555C355.341 322.582 354.752 322.436 354.24 322.136C353.727 321.836 353.311 321.394 353.044 320.863C352.776 320.333 352.668 319.737 352.732 319.146C352.795 318.555 353.029 317.996 353.403 317.534C353.636 317.247 353.87 316.961 354.103 316.674C354.457 316.231 354.82 315.797 355.175 315.355C355.216 315.313 355.254 315.268 355.29 315.222C355.697 314.717 356.104 314.222 356.512 313.717C355.768 312.563 354.768 311.597 353.59 310.893C349.507 308.503 343.875 310.158 340.927 313.85C337.969 317.541 337.411 322.72 338.438 327.333C339.448 331.257 341.119 334.981 343.38 338.345C343.158 338.629 342.928 338.903 342.707 339.186C338.66 344.389 335.133 349.975 332.176 355.865C333.012 349.332 322.782 325.74 318.826 320.743C314.074 314.741 304.33 317.36 303.493 324.969C303.485 325.043 303.477 325.117 303.469 325.19C304.057 325.522 304.632 325.873 305.195 326.245C305.902 326.718 306.45 327.392 306.767 328.181C307.083 328.97 307.155 329.836 306.971 330.666C306.787 331.496 306.356 332.251 305.736 332.832C305.115 333.414 304.334 333.794 303.493 333.923L303.407 333.937C295.542 345.164 320.757 374.386 327.068 367.825C324.098 376.241 322.234 385.008 321.525 393.905C321.123 399.154 321.147 404.427 321.596 409.672L321.569 409.486C320.167 398.062 296.109 381.077 289.083 382.492C285.036 383.307 281.05 383.122 281.665 387.203C281.674 387.268 281.684 387.333 281.694 387.398C282.785 387.842 283.847 388.354 284.873 388.93C285.461 389.261 286.036 389.613 286.599 389.985C287.306 390.457 287.854 391.132 288.171 391.921C288.488 392.71 288.559 393.576 288.375 394.406C288.191 395.236 287.76 395.991 287.14 396.572C286.52 397.153 285.738 397.534 284.897 397.663L284.811 397.676C284.749 397.685 284.696 397.694 284.634 397.703C281.054 410.019 307.606 429.895 323.748 423.571H323.756C325.356 430.52 327.674 437.285 330.672 443.755H355.378C355.467 443.48 355.547 443.197 355.626 442.923C353.339 443.066 351.044 442.93 348.79 442.516C350.623 440.267 352.456 438.001 354.289 435.752C354.33 435.71 354.368 435.666 354.404 435.619C355.334 434.468 356.273 433.326 357.202 432.176L357.203 432.174C357.252 428.646 356.848 425.127 355.998 421.703L355.997 421.702ZM327.706 366.063L327.719 366.046L327.706 366.081V366.063ZM322.233 415.382L322.021 414.904C322.03 414.559 322.03 414.213 322.021 413.859C322.021 413.762 322.003 413.664 322.003 413.567C322.083 414.178 322.154 414.789 322.242 415.4L322.233 415.382Z" fill="#3F3D56"/>
<path d="M78.406 370.307C83.4066 370.307 87.4604 366.254 87.4604 361.255C87.4604 356.256 83.4066 352.203 78.406 352.203C73.4054 352.203 69.3516 356.256 69.3516 361.255C69.3516 366.254 73.4054 370.307 78.406 370.307Z" fill="#3F3D56"/>
<path d="M187.054 469.055C192.055 469.055 196.109 465.002 196.109 460.003C196.109 455.004 192.055 450.951 187.054 450.951C182.054 450.951 178 455.004 178 460.003C178 465.002 182.054 469.055 187.054 469.055Z" fill="#3F3D56"/>
<path d="M599.445 469.055C604.446 469.055 608.499 465.002 608.499 460.003C608.499 455.004 604.446 450.951 599.445 450.951C594.444 450.951 590.391 455.004 590.391 460.003C590.391 465.002 594.444 469.055 599.445 469.055Z" fill="#3F3D56"/>
<path d="M621.672 353.848C626.672 353.848 630.726 349.795 630.726 344.796C630.726 339.797 626.672 335.744 621.672 335.744C616.671 335.744 612.617 339.797 612.617 344.796C612.617 349.795 616.671 353.848 621.672 353.848Z" fill="#3F3D56"/>
<path d="M595.328 269.912C600.328 269.912 604.382 265.86 604.382 260.861C604.382 255.861 600.328 251.809 595.328 251.809C590.327 251.809 586.273 255.861 586.273 260.861C586.273 265.86 590.327 269.912 595.328 269.912Z" fill="#3F3D56"/>
<path d="M217.509 344.797C217.504 347.109 216.609 349.331 215.011 351.002C213.413 352.673 211.233 353.666 208.923 353.776C206.613 353.885 204.349 353.102 202.6 351.589C200.851 350.076 199.75 347.949 199.527 345.647C199.303 343.346 199.973 341.047 201.397 339.225C202.822 337.404 204.893 336.2 207.181 335.862C209.469 335.525 211.799 336.079 213.69 337.411C215.58 338.744 216.886 340.751 217.336 343.019C217.453 343.605 217.51 344.2 217.509 344.797Z" fill="#3F3D56"/>
<path d="M398.601 296.245C403.602 296.245 407.656 292.192 407.656 287.193C407.656 282.193 403.602 278.141 398.601 278.141C393.601 278.141 389.547 282.193 389.547 287.193C389.547 292.192 393.601 296.245 398.601 296.245Z" fill="#3F3D56"/>
<path d="M308.876 287.193C308.871 289.506 307.977 291.727 306.378 293.398C304.78 295.07 302.6 296.063 300.29 296.172C297.98 296.281 295.716 295.498 293.967 293.986C292.218 292.473 291.118 290.345 290.894 288.044C290.67 285.743 291.34 283.443 292.765 281.622C294.189 279.8 296.26 278.596 298.548 278.259C300.836 277.921 303.166 278.476 305.057 279.808C306.947 281.14 308.253 283.148 308.704 285.416C308.82 286.001 308.878 286.597 308.876 287.193Z" fill="#3F3D56"/>
<path d="M191.994 260.861C191.988 263.173 191.094 265.395 189.496 267.066C187.897 268.738 185.717 269.731 183.407 269.84C181.097 269.949 178.833 269.166 177.084 267.654C175.335 266.141 174.235 264.013 174.011 261.712C173.787 259.411 174.457 257.111 175.882 255.29C177.306 253.468 179.377 252.264 181.665 251.927C183.953 251.589 186.284 252.144 188.174 253.476C190.064 254.808 191.37 256.816 191.821 259.084C191.937 259.669 191.995 260.265 191.994 260.861Z" fill="#3F3D56"/>
<path d="M493.258 373.598C498.258 373.598 502.312 369.545 502.312 364.546C502.312 359.547 498.258 355.494 493.258 355.494C488.257 355.494 484.203 359.547 484.203 364.546C484.203 369.545 488.257 373.598 493.258 373.598Z" fill="#3F3D56"/>
<path d="M350.858 291.308C358.131 291.308 364.028 285.413 364.028 278.141C364.028 270.869 358.131 264.975 350.858 264.975C343.584 264.975 337.688 270.869 337.688 278.141C337.688 285.413 343.584 291.308 350.858 291.308Z" fill="#3F3D56"/>
<path d="M707.02 469.747L0.98008 470C0.851373 470 0.723923 469.974 0.605014 469.925C0.486104 469.876 0.378067 469.804 0.287058 469.713C0.196049 469.622 0.123848 469.514 0.0745937 469.395C0.0253398 469.276 0 469.148 0 469.02C0 468.891 0.0253398 468.764 0.0745937 468.645C0.123848 468.526 0.196049 468.418 0.287058 468.327C0.378067 468.236 0.486104 468.164 0.605014 468.115C0.723923 468.065 0.851373 468.04 0.98008 468.04L707.02 467.787C707.279 467.788 707.528 467.891 707.711 468.075C707.894 468.259 707.997 468.508 707.997 468.767C707.997 469.026 707.894 469.275 707.711 469.459C707.528 469.642 707.279 469.746 707.02 469.747Z" fill="#CACACA"/>
</g>
<defs>
<clipPath id="clip0_2181_7715">
<rect width="708" height="470" fill="white"/>
</clipPath>
</defs>
</svg>
