<svg xmlns="http://www.w3.org/2000/svg" xmlns:xlink="http://www.w3.org/1999/xlink" width="500" zoomAndPan="magnify" viewBox="0 0 375 374.999991" height="500" preserveAspectRatio="xMidYMid meet" version="1.0"><defs><clipPath id="41fee4e453"><path d="M 83.132812 48.34375 L 291.632812 48.34375 L 291.632812 326.59375 L 83.132812 326.59375 Z M 83.132812 48.34375 " clip-rule="nonzero"/></clipPath></defs><g clip-path="url(#41fee4e453)"><path fill="#1c1c1c" d="M 83.191406 48.34375 L 83.191406 326.589844 L 291.570312 326.589844 L 291.570312 48.34375 Z M 286.851562 321.726562 C 284.878906 322.078125 96.929688 322.253906 87.914062 321.867188 L 87.914062 53.011719 L 286.851562 53.011719 Z M 286.851562 321.726562 " fill-opacity="1" fill-rule="nonzero"/></g><path fill="#ffd212" d="M 286.851562 53.011719 L 286.851562 321.726562 C 284.878906 322.078125 96.929688 322.253906 87.914062 321.867188 L 87.914062 53.011719 Z M 286.851562 53.011719 " fill-opacity="1" fill-rule="nonzero"/><path fill="#000000" d="M 93.589844 186.960938 C 94.5625 185.503906 95.550781 184.058594 96.539062 182.605469 C 97.195312 181.640625 97.839844 180.664062 98.507812 179.710938 C 99.898438 177.726562 101.3125 175.765625 102.695312 173.777344 C 104.535156 171.136719 106.300781 168.445312 108.214844 165.855469 C 108.957031 164.851562 109.730469 163.875 110.320312 162.773438 C 110.910156 161.664062 111.820312 160.796875 112.5 159.738281 C 114.164062 157.160156 115.976562 154.667969 117.757812 152.167969 C 120.394531 148.464844 122.996094 144.738281 125.582031 140.996094 C 127.289062 138.53125 128.945312 136.015625 130.734375 133.632812 C 133.34375 130.15625 135.753906 126.535156 138.300781 123.019531 C 140.742188 119.65625 143.089844 116.203125 145.433594 112.761719 C 146.046875 111.855469 146.617188 110.925781 147.242188 110.027344 C 148.628906 108.042969 150.042969 106.082031 151.425781 104.097656 C 153.269531 101.457031 155.074219 98.792969 156.925781 96.160156 C 158.320312 94.175781 159.785156 92.242188 161.171875 90.25 C 163.003906 87.613281 164.695312 84.867188 166.632812 82.308594 C 168.140625 80.3125 169.464844 78.203125 170.921875 76.175781 C 172.75 73.625 174.515625 71.023438 176.324219 68.457031 C 177.84375 66.296875 179.320312 64.105469 180.871094 61.964844 C 181.914062 60.527344 182.980469 59.097656 183.972656 57.75 C 216.484375 57.75 248.816406 57.75 281.148438 57.757812 C 281.203125 57.757812 281.269531 57.757812 281.339844 57.757812 C 281.410156 57.757812 281.445312 57.761719 281.683594 57.761719 C 281.242188 58.242188 280.390625 59.246094 280.007812 59.871094 C 278.058594 63.066406 275.691406 65.976562 273.636719 69.085938 C 271.0625 72.992188 268.242188 76.71875 265.679688 80.632812 C 263.875 83.394531 261.847656 86.011719 259.96875 88.722656 C 258.34375 91.058594 256.929688 93.554688 255.167969 95.777344 C 252.464844 99.1875 250.164062 102.878906 247.566406 106.363281 C 245.34375 109.347656 243.203125 112.429688 241.148438 115.542969 C 238.574219 119.445312 235.753906 123.175781 233.191406 127.085938 C 231.386719 129.847656 229.359375 132.464844 227.476562 135.175781 C 225.855469 137.515625 224.441406 140.011719 222.679688 142.230469 C 219.972656 145.640625 217.605469 149.289062 215.09375 152.824219 C 212.390625 156.632812 209.703125 160.460938 207.109375 164.351562 C 205.277344 167.097656 203.269531 169.726562 201.390625 172.4375 C 199.765625 174.777344 198.242188 177.183594 196.613281 179.511719 C 194.722656 182.21875 192.761719 184.875 190.910156 187.441406 C 191.597656 189.128906 192.789062 190.347656 193.710938 191.75 C 195.394531 194.316406 197.15625 196.851562 198.984375 199.308594 C 201.578125 202.792969 203.882812 206.484375 206.585938 209.894531 C 208.566406 212.394531 209.949219 215.367188 211.929688 217.867188 C 214.628906 221.285156 216.972656 224.949219 219.519531 228.464844 C 221.957031 231.832031 224.3125 235.277344 226.648438 238.722656 C 227.261719 239.628906 227.835938 240.5625 228.460938 241.457031 C 229.84375 243.441406 231.269531 245.398438 232.648438 247.386719 C 234.4375 249.96875 236.066406 252.675781 238.003906 255.140625 C 240.691406 258.558594 243.058594 262.203125 245.578125 265.734375 C 248.289062 269.539062 250.949219 273.390625 253.570312 277.265625 C 255.378906 279.9375 257.300781 282.527344 259.132812 285.183594 C 260.75 287.523438 262.164062 290.019531 263.933594 292.234375 C 266.644531 295.640625 269.023438 299.289062 271.53125 302.828125 C 274.273438 306.695312 277.011719 310.582031 279.652344 314.53125 C 280.246094 315.417969 280.859375 316.292969 281.585938 317.347656 C 248.925781 317.347656 216.539062 317.347656 183.933594 317.347656 C 183.636719 316.886719 183.285156 316.230469 182.828125 315.65625 C 180 312.089844 177.542969 308.257812 174.957031 304.515625 C 173.253906 302.050781 171.597656 299.535156 169.808594 297.152344 C 167.195312 293.675781 164.789062 290.054688 162.238281 286.539062 C 159.796875 283.175781 157.453125 279.722656 155.109375 276.28125 C 154.492188 275.378906 153.921875 274.445312 153.296875 273.546875 C 151.914062 271.5625 150.496094 269.601562 149.113281 267.617188 C 147.273438 264.976562 145.464844 262.3125 143.617188 259.679688 C 142.222656 257.695312 140.753906 255.761719 139.371094 253.769531 C 137.535156 251.132812 135.84375 248.386719 133.910156 245.828125 C 132.398438 243.832031 131.074219 241.722656 129.621094 239.699219 C 127.785156 237.144531 126.046875 234.515625 124.210938 231.96875 C 121.761719 228.566406 119.472656 225.050781 116.886719 221.746094 C 116.261719 220.949219 115.808594 220.023438 115.230469 219.1875 C 113.851562 217.199219 112.4375 215.238281 111.054688 213.253906 C 109.210938 210.613281 107.398438 207.949219 105.550781 205.316406 C 104.15625 203.332031 102.707031 201.390625 101.308594 199.40625 C 99.28125 196.53125 97.339844 193.59375 95.230469 190.777344 C 94.496094 189.800781 93.753906 188.65625 93.136719 187.6875 C 93.359375 187.265625 93.472656 187.136719 93.589844 186.960938 Z M 93.589844 186.960938 " fill-opacity="1" fill-rule="nonzero"/></svg>