<svg xmlns="http://www.w3.org/2000/svg" xmlns:xlink="http://www.w3.org/1999/xlink" width="500" zoomAndPan="magnify" viewBox="0 0 375 374.999991" height="500" preserveAspectRatio="xMidYMid meet" version="1.0"><defs><clipPath id="ef51e09b87"><path d="M 90.757812 58.4375 L 284.257812 58.4375 L 284.257812 316.4375 L 90.757812 316.4375 Z M 90.757812 58.4375 " clip-rule="nonzero"/></clipPath></defs><g clip-path="url(#ef51e09b87)"><path fill="#1c1c1c" d="M 90.757812 58.4375 L 90.757812 316.4375 L 284.257812 316.4375 L 284.257812 58.4375 Z M 279.875 311.925781 C 278.042969 312.25 103.511719 312.414062 95.140625 312.054688 L 95.140625 62.769531 L 279.875 62.769531 Z M 279.875 311.925781 " fill-opacity="1" fill-rule="nonzero"/></g><path fill="#ffd212" d="M 279.875 62.769531 L 279.875 311.925781 C 278.042969 312.25 103.511719 312.414062 95.140625 312.054688 L 95.140625 62.769531 Z M 279.875 62.769531 " fill-opacity="1" fill-rule="nonzero"/><path fill="#000000" d="M 275.078125 187.640625 C 274.507812 188.542969 273.816406 189.601562 273.136719 190.507812 C 271.171875 193.117188 269.371094 195.839844 267.488281 198.507812 C 266.191406 200.347656 264.847656 202.148438 263.550781 203.988281 C 261.832031 206.429688 260.148438 208.898438 258.441406 211.347656 C 257.15625 213.1875 255.84375 215.007812 254.5625 216.851562 C 254.023438 217.625 253.601562 218.484375 253.023438 219.222656 C 250.621094 222.285156 248.496094 225.546875 246.21875 228.699219 C 244.515625 231.058594 242.902344 233.5 241.199219 235.867188 C 239.847656 237.742188 238.617188 239.703125 237.214844 241.550781 C 235.417969 243.925781 233.851562 246.46875 232.144531 248.914062 C 230.859375 250.761719 229.496094 252.554688 228.203125 254.394531 C 226.484375 256.835938 224.808594 259.304688 223.097656 261.753906 C 221.8125 263.59375 220.496094 265.414062 219.210938 267.253906 C 218.632812 268.085938 218.101562 268.949219 217.53125 269.785156 C 215.351562 272.976562 213.175781 276.183594 210.910156 279.300781 C 208.542969 282.558594 206.308594 285.917969 203.882812 289.140625 C 202.21875 291.347656 200.679688 293.683594 199.097656 295.96875 C 196.695312 299.4375 194.417969 302.988281 191.789062 306.296875 C 191.367188 306.828125 191.039062 307.4375 190.761719 307.867188 C 160.488281 307.867188 130.414062 307.867188 100.082031 307.867188 C 100.757812 306.886719 101.328125 306.078125 101.878906 305.253906 C 104.332031 301.59375 106.875 297.988281 109.421875 294.402344 C 111.75 291.121094 113.957031 287.738281 116.476562 284.582031 C 118.117188 282.523438 119.433594 280.210938 120.933594 278.039062 C 122.636719 275.578125 124.421875 273.175781 126.097656 270.699219 C 128.53125 267.105469 131.003906 263.535156 133.519531 260.011719 C 135.859375 256.734375 138.058594 253.355469 140.554688 250.183594 C 142.351562 247.898438 143.867188 245.390625 145.527344 242.996094 C 146.808594 241.152344 148.128906 239.335938 149.417969 237.496094 C 149.996094 236.667969 150.527344 235.800781 151.097656 234.964844 C 153.269531 231.765625 155.457031 228.570312 157.71875 225.453125 C 160.085938 222.191406 162.257812 218.792969 164.769531 215.625 C 166.605469 213.308594 167.886719 210.550781 169.726562 208.234375 C 172.238281 205.070312 174.378906 201.648438 176.789062 198.414062 C 178.484375 196.136719 180.121094 193.789062 181.6875 191.410156 C 182.542969 190.109375 183.648438 188.976562 184.285156 187.414062 C 182.566406 185.035156 180.746094 182.570312 178.988281 180.0625 C 177.476562 177.902344 176.0625 175.671875 174.554688 173.503906 C 172.808594 170.988281 170.945312 168.550781 169.242188 166.003906 C 166.835938 162.398438 164.335938 158.847656 161.828125 155.316406 C 159.496094 152.039062 157.300781 148.652344 154.785156 145.492188 C 153.148438 143.433594 151.835938 141.121094 150.328125 138.953125 C 148.582031 136.4375 146.699219 134.011719 145.023438 131.453125 C 142.644531 127.824219 140.027344 124.367188 137.632812 120.746094 C 135.726562 117.863281 133.738281 115.003906 131.671875 112.234375 C 129.261719 109.003906 127.128906 105.582031 124.617188 102.421875 C 122.980469 100.359375 121.664062 98.046875 120.160156 95.878906 C 118.410156 93.363281 116.53125 90.9375 114.851562 88.378906 C 112.476562 84.75 109.859375 81.292969 107.464844 77.671875 C 105.558594 74.789062 103.359375 72.089844 101.546875 69.128906 C 101.195312 68.550781 100.402344 67.617188 99.992188 67.171875 C 100.210938 67.171875 100.246094 67.167969 100.3125 67.167969 C 100.378906 67.167969 100.441406 67.167969 100.492188 67.167969 C 130.515625 67.160156 160.539062 67.160156 190.726562 67.160156 C 191.648438 68.410156 192.636719 69.734375 193.609375 71.070312 C 195.046875 73.054688 196.417969 75.085938 197.832031 77.089844 C 199.507812 79.46875 201.148438 81.878906 202.847656 84.246094 C 204.199219 86.125 205.429688 88.082031 206.832031 89.929688 C 208.628906 92.304688 210.199219 94.851562 211.902344 97.296875 C 213.1875 99.140625 214.550781 100.933594 215.84375 102.773438 C 217.5625 105.214844 219.238281 107.6875 220.949219 110.136719 C 222.234375 111.976562 223.550781 113.792969 224.835938 115.632812 C 225.414062 116.464844 225.945312 117.332031 226.515625 118.167969 C 228.691406 121.359375 230.871094 124.5625 233.136719 127.679688 C 235.503906 130.941406 237.742188 134.296875 240.164062 137.519531 C 241.828125 139.730469 243.363281 142.0625 244.949219 144.351562 C 247.351562 147.816406 249.765625 151.273438 252.214844 154.707031 C 253.867188 157.027344 255.550781 159.335938 257.097656 161.726562 C 257.730469 162.707031 258.574219 163.515625 259.121094 164.539062 C 259.671875 165.5625 260.386719 166.46875 261.078125 167.398438 C 262.851562 169.796875 264.492188 172.296875 266.203125 174.746094 C 267.488281 176.585938 268.800781 178.40625 270.089844 180.242188 C 270.710938 181.132812 271.3125 182.035156 271.921875 182.929688 C 272.835938 184.277344 273.753906 185.617188 274.65625 186.96875 C 274.765625 187.128906 274.871094 187.25 275.078125 187.640625 Z M 275.078125 187.640625 " fill-opacity="1" fill-rule="nonzero"/></svg>