<?xml version="1.0" encoding="UTF-8"?>
<svg version="1.1" xmlns="http://www.w3.org/2000/svg" width="512" height="512">
<path d="M0 0 C11.29915283 9.01581734 18.6613106 19.48187849 25.25 32.25 C25.90226774 33.49380216 26.55577174 34.73695671 27.21044922 35.97949219 C28.52572228 38.47665578 29.83693537 40.975882 31.14550781 43.4765625 C33.75274301 48.43017207 36.43200222 53.3426392 39.125 58.25 C40.09667558 60.02586584 41.06802914 61.80190792 42.0390625 63.578125 C42.52149414 64.46048828 43.00392578 65.34285156 43.50097656 66.25195312 C46.17911165 71.16157666 48.83884521 76.08115836 51.5 81 C55.65271849 88.67433223 59.81774315 96.34172492 64 104 C68.73432884 112.66919318 73.4435539 121.35174568 78.14453125 130.0390625 C81.75023924 136.69972594 85.36985996 143.35262403 89 150 C95.91431084 162.6627639 102.77944658 175.3520455 109.64550781 188.04101562 C115.90514077 199.60813298 122.17698405 211.16827451 128.48071289 222.71142578 C132.71991918 230.47762387 136.93366902 238.25746912 141.14453125 246.0390625 C144.75023914 252.69972576 148.36981749 259.35264733 152 266 C156.73432884 274.66919318 161.4435539 283.35174568 166.14453125 292.0390625 C169.75023952 298.69972646 173.36998413 305.35255589 177 312 C182.31185863 321.73196461 187.62214878 331.46469467 192.87890625 341.2265625 C194.85936298 344.90394251 196.86641177 348.56401231 198.90234375 352.2109375 C209.51106274 371.38882262 213.66072513 391.25122983 208.5 413 C201.6618087 434.40233908 188.81068354 450.78080776 168.77685547 461.31738281 C158.2905974 466.5351956 147.00393121 469.11855993 135.29281616 469.13142776 C133.97488917 469.13526891 132.65696218 469.13911005 131.29909801 469.1430676 C129.8483244 469.14228748 128.39755084 469.14140872 126.94677734 469.14044189 C125.39637586 469.14302757 123.84597504 469.14604129 122.29557514 469.1494453 C118.04195311 469.15749491 113.78834797 469.15930373 109.53471923 469.16004276 C104.94418751 469.1618969 100.35366449 469.1694461 95.76313782 469.17617798 C85.72774246 469.18974785 75.6923511 469.19578406 65.65694809 469.20018864 C59.38707139 469.20295362 53.11719622 469.20719147 46.84732056 469.21169281 C29.47760617 469.22388426 12.10789301 469.23418347 -5.26182556 469.2375679 C-6.37309573 469.23778747 -7.48436589 469.23800703 -8.62931091 469.23823325 C-9.74319771 469.23845153 -10.85708451 469.23866981 -12.00472546 469.2388947 C-14.26177661 469.23933816 -16.51882776 469.23978473 -18.77587891 469.24023438 C-19.89544751 469.2404558 -21.01501611 469.24067723 -22.16851103 469.24090537 C-40.29979109 469.24485137 -58.43103091 469.2622999 -76.56229544 469.2855939 C-95.1908455 469.30933296 -113.8193754 469.32177093 -132.44794083 469.32293582 C-142.90169721 469.3238512 -153.35540116 469.32956888 -163.80914307 469.34775543 C-172.71280897 469.36319099 -181.61640626 469.36825657 -190.52008301 469.36001733 C-195.05863885 469.35612291 -199.59705665 469.35698107 -204.13559532 469.37107468 C-208.29963276 469.38388645 -212.46342946 469.38255288 -216.62746692 469.37048396 C-218.12482519 469.36853947 -219.62220095 469.3715469 -221.11953473 469.38032833 C-244.40705666 469.5081316 -264.18301688 462.9929042 -281.36328125 446.79296875 C-295.25372638 432.07938613 -302.5767548 413.80348903 -302.4375 393.6875 C-302.45748047 392.67494141 -302.47746094 391.66238281 -302.49804688 390.61914062 C-302.48911907 376.41500003 -297.73445665 364.33016424 -291.0625 352 C-290.3931365 350.73603697 -289.72477898 349.47154074 -289.05737305 348.20654297 C-284.43554906 339.4889191 -279.61358258 330.88507275 -274.70751953 322.32446289 C-270.42320961 314.83119563 -266.40766538 307.21889575 -262.44628906 299.55102539 C-257.62443609 290.22988588 -252.5945592 281.02907875 -247.54736328 271.82861328 C-244.84833199 266.89472616 -242.17523463 261.94681782 -239.5 257 C-234.85742435 248.42002388 -230.19528456 239.850996 -225.51953125 231.2890625 C-221.83214901 224.53370081 -218.16277201 217.76873308 -214.5 211 C-209.85717945 202.42015585 -205.19528508 193.85099696 -200.51953125 185.2890625 C-196.83214901 178.53370081 -193.16277201 171.76873308 -189.5 165 C-185.34720288 157.32570984 -181.1822081 149.65830225 -177 142 C-170.63804425 130.34881082 -164.317562 118.67530449 -158 107 C-151.1938972 94.42183731 -144.37970063 81.84840185 -137.52368164 69.29736328 C-134.34929068 63.48312772 -131.19067245 57.66058584 -128.04174805 51.83251953 C-125.87327156 47.82209267 -123.69714815 43.81583606 -121.52099609 39.80957031 C-120.0846204 37.15631005 -118.66053103 34.49678783 -117.23828125 31.8359375 C-112.80268774 23.60174612 -108.33168238 15.96350632 -102 9 C-101.48566406 8.39414062 -100.97132813 7.78828125 -100.44140625 7.1640625 C-74.79583784 -21.10362138 -29.5401707 -21.55868552 0 0 Z M-69.82421875 120.078125 C-75.53264456 129.40884094 -76.14967252 137.98612994 -76.14526367 148.72167969 C-76.14862228 149.89642853 -76.1519809 151.07117737 -76.15544128 152.28152466 C-76.16493302 156.16165223 -76.16689358 160.04173655 -76.16796875 163.921875 C-76.169393 165.26327788 -76.17098908 166.60468059 -76.17275429 167.94608307 C-76.18199656 174.97317431 -76.18609071 182.00024663 -76.18530273 189.02734375 C-76.18470273 195.5563245 -76.19524219 202.08522242 -76.2110464 208.61418223 C-76.22416628 214.23649758 -76.22948475 219.85878601 -76.22884732 225.48111653 C-76.22859358 228.83151949 -76.23230988 232.18179045 -76.24202538 235.53218842 C-76.25186198 239.27510882 -76.24893246 243.01781812 -76.24291992 246.76074219 C-76.24853943 247.85615326 -76.25415894 248.95156433 -76.25994873 250.08016968 C-76.21433248 261.29913852 -74.95941832 270.37691918 -67.28125 278.91015625 C-61.45633433 284.53215478 -54.15052053 287.98224152 -46 288.5 C-36.84582592 287.91848484 -29.06222331 283.72355677 -23 277 C-15.61912021 268.11281821 -15.6992323 256.95628427 -15.74121094 245.89428711 C-15.7377063 244.73831528 -15.73420166 243.58234344 -15.73059082 242.39134216 C-15.72185069 238.60328003 -15.72759498 234.81540749 -15.734375 231.02734375 C-15.73302623 228.37658968 -15.73108648 225.72584118 -15.72857666 223.0750885 C-15.72495232 217.53335549 -15.72969618 211.99167603 -15.73925781 206.44995117 C-15.75014481 200.06684263 -15.74660884 193.68386186 -15.735605 187.30075639 C-15.72649466 181.79298186 -15.72526492 176.28524552 -15.73048234 170.77746588 C-15.73358085 167.49981703 -15.73327058 164.22224051 -15.72740936 160.94459343 C-15.72230477 157.28841505 -15.73010948 153.63247881 -15.74121094 149.97631836 C-15.73716248 148.90746399 -15.73311401 147.83860962 -15.72894287 146.73736572 C-15.78991151 135.84504552 -17.06554424 125.64481456 -24.56640625 117.24609375 C-31.88932423 110.46687269 -39.49740854 108.17701335 -49.42578125 108.48828125 C-57.48402889 109.64197572 -64.89414709 113.50469612 -69.82421875 120.078125 Z M-81 335 C-88.75065563 345.46929519 -92.15035469 357.13187948 -90.3125 370.0625 C-88.79708469 377.98537602 -85.7408296 384.4813593 -81 391 C-80.46375 391.804375 -79.9275 392.60875 -79.375 393.4375 C-71.56628711 401.86269022 -60.77797645 407.21256388 -49.34375 408.23828125 C-36.01519998 408.58614176 -25.06989899 404.4271809 -15.25 395.5 C-14.5075 394.675 -13.765 393.85 -13 393 C-12.154375 392.071875 -11.30875 391.14375 -10.4375 390.1875 C-3.52930146 381.71518103 -0.55101832 370.77237182 -1.17578125 359.95703125 C-2.62084891 347.73964104 -7.76811543 337.23516783 -17 329 C-37.92886001 314.01795893 -63.30499227 315.93871107 -81 335 Z " fill="#fe6100" transform="translate(302,29)"/>
</svg>
