<svg width="34" height="34" viewBox="0 0 34 34" fill="none" xmlns="http://www.w3.org/2000/svg">
<g id="folder_open_FILL0_wght400_GRAD0_opsz24 1">
<path id="Vector" d="M5.66927 28.3327C4.8901 28.3327 4.22309 28.0552 3.66823 27.5004C3.11337 26.9455 2.83594 26.2785 2.83594 25.4993V8.49935C2.83594 7.72018 3.11337 7.05317 3.66823 6.49831C4.22309 5.94345 4.8901 5.66602 5.66927 5.66602H14.1693L17.0026 8.49935H28.3359C29.1151 8.49935 29.7821 8.77678 30.337 9.33164C30.8918 9.8865 31.1693 10.5535 31.1693 11.3327H15.8339L13.0005 8.49935H5.66927V25.4993L9.06927 14.166H33.2943L29.6464 26.3139C29.4575 26.9278 29.1092 27.4177 28.6016 27.7837C28.0939 28.1497 27.5332 28.3327 26.9193 28.3327H5.66927ZM8.64427 25.4993H26.9193L29.4693 16.9993H11.1943L8.64427 25.4993Z" fill="#FE6100"/>
</g>
</svg>
