<svg width="88" height="87" viewBox="0 0 88 87" fill="none" xmlns="http://www.w3.org/2000/svg">
<g id="Group 1686551938">
<g id="Group 1686551939">
<path id="Vector 107" d="M33.4213 4.70346C25.5546 2.72996 18.5815 5.25444 15.4213 14.2035C5.47399 18.7583 3.12644 22.8377 4.4213 32.7035C-1.85353 41.4511 -1.08138 45.9818 4.4213 53.7035C4.22742 64.3493 5.7309 69.0349 15.4213 72.2035C19.7857 81.1826 23.9607 82.8301 33.4213 82.2035C42.5878 88.5319 46.84 87.2435 53.9213 82.2035C65.4549 83.1037 68.9195 80.5404 71.4213 72.2035C81.7198 67.4945 83.6611 63.2711 82.4213 53.7035C88.4868 46.4882 89.0052 41.9512 82.4213 32.7035C83.0664 23.8784 82.1851 19.3238 71.4213 14.2035C67.8683 6.76567 65.2778 3.30262 54.9213 4.70346C46.9115 -1.66141 41.3507 -1.47353 33.4213 4.70346Z" fill="#FF4343"/>
<circle id="Ellipse 740" cx="44" cy="43" r="39" fill="#FF4343"/>
<circle id="Ellipse 741" cx="43.5" cy="43.5" r="26.5" stroke="#A00A00" stroke-width="4"/>
</g>
<path id="Line 1" d="M36 51L51 36" stroke="white" stroke-width="4" stroke-linecap="round"/>
<path id="Line 2" d="M51.3125 51L36.3125 36" stroke="white" stroke-width="4" stroke-linecap="round"/>
</g>
</svg>
