<svg width="24" height="24" viewBox="0 0 24 24" fill="none" xmlns="http://www.w3.org/2000/svg">
<g id="photo_camera_front_FILL0_wght400_GRAD0_opsz24 1">
<path id="Vector" d="M8 17H16V16.45C16 15.7 15.6333 15.1042 14.9 14.6625C14.1667 14.2208 13.2 14 12 14C10.8 14 9.83333 14.2208 9.1 14.6625C8.36667 15.1042 8 15.7 8 16.45V17ZM12 13C12.55 13 13.0208 12.8042 13.4125 12.4125C13.8042 12.0208 14 11.55 14 11C14 10.45 13.8042 9.97917 13.4125 9.5875C13.0208 9.19583 12.55 9 12 9C11.45 9 10.9792 9.19583 10.5875 9.5875C10.1958 9.97917 10 10.45 10 11C10 11.55 10.1958 12.0208 10.5875 12.4125C10.9792 12.8042 11.45 13 12 13ZM4 21C3.45 21 2.97917 20.8042 2.5875 20.4125C2.19583 20.0208 2 19.55 2 19V7C2 6.45 2.19583 5.97917 2.5875 5.5875C2.97917 5.19583 3.45 5 4 5H7.15L9 3H15L16.85 5H20C20.55 5 21.0208 5.19583 21.4125 5.5875C21.8042 5.97917 22 6.45 22 7V19C22 19.55 21.8042 20.0208 21.4125 20.4125C21.0208 20.8042 20.55 21 20 21H4ZM4 19H20V7H15.95L14.125 5H9.875L8.05 7H4V19Z" fill="black"/>
</g>
</svg>
