<svg width="47" height="47" viewBox="0 0 47 47" fill="none" xmlns="http://www.w3.org/2000/svg">
<path d="M3.91406 41.125V5.875H23.4974V13.7083H43.0807V41.125H3.91406ZM7.83073 37.2083H11.7474V33.2917H7.83073V37.2083ZM7.83073 29.375H11.7474V25.4583H7.83073V29.375ZM7.83073 21.5417H11.7474V17.625H7.83073V21.5417ZM7.83073 13.7083H11.7474V9.79167H7.83073V13.7083ZM15.6641 37.2083H19.5807V33.2917H15.6641V37.2083ZM15.6641 29.375H19.5807V25.4583H15.6641V29.375ZM15.6641 21.5417H19.5807V17.625H15.6641V21.5417ZM15.6641 13.7083H19.5807V9.79167H15.6641V13.7083ZM23.4974 37.2083H39.1641V17.625H23.4974V21.5417H27.4141V25.4583H23.4974V29.375H27.4141V33.2917H23.4974V37.2083ZM31.3307 25.4583V21.5417H35.2474V25.4583H31.3307ZM31.3307 33.2917V29.375H35.2474V33.2917H31.3307Z" fill="#FF6100"/>
</svg>
